SplineFontDB: 3.0
FontName: arabella
FullName: arabella
FamilyName: arabella
Weight: Book
Copyright: Copyright (c) 2015 by mysunday. All rights reserved.
Version: 1.000
ItalicAngle: 0
UnderlinePosition: -100
UnderlineWidth: 50
Ascent: 750
Descent: 250
InvalidEm: 0
sfntRevision: 0x00010000
LayerCount: 2
Layer: 0 1 "Back" 1
Layer: 1 1 "Fore" 0
XUID: [1021 255 1616033871 2787543]
FSType: 4
OS2Version: 3
OS2_WeightWidthSlopeOnly: 0
OS2_UseTypoMetrics: 1
CreationTime: 1449266168
ModificationTime: 1466536274
PfmFamily: 81
TTFWeight: 400
TTFWidth: 5
LineGap: 0
VLineGap: 0
Panose: 0 0 0 0 0 0 0 0 0 0
OS2TypoAscent: 750
OS2TypoAOffset: 0
OS2TypoDescent: -250
OS2TypoDOffset: 0
OS2TypoLinegap: 0
OS2WinAscent: 892
OS2WinAOffset: 0
OS2WinDescent: 353
OS2WinDOffset: 0
HheadAscent: 750
HheadAOffset: 0
HheadDescent: -250
HheadDOffset: 0
OS2SubXSize: 700
OS2SubYSize: 650
OS2SubXOff: 0
OS2SubYOff: 140
OS2SupXSize: 700
OS2SupYSize: 650
OS2SupXOff: 0
OS2SupYOff: 477
OS2StrikeYSize: 50
OS2StrikeYPos: 250
OS2CapHeight: 700
OS2XHeight: 500
OS2Vendor: 'pyrs'
OS2CodePages: 00000001.00000000
OS2UnicodeRanges: 80000007.00000000.00000000.00000000
Lookup: 258 0 0 "'kern' Horizontal Kerning in Latin lookup 0" { "'kern' Horizontal Kerning in Latin lookup 0 subtable"  } ['kern' ('DFLT' <'dflt' > 'latn' <'dflt' > ) ]
DEI: 91125
TtTable: prep
PUSHW_1
 0
CALL
SVTCA[y-axis]
PUSHW_3
 1
 2
 2
CALL
SVTCA[x-axis]
PUSHW_3
 3
 3
 2
CALL
SVTCA[x-axis]
PUSHW_8
 3
 123
 100
 71
 51
 31
 0
 8
CALL
PUSHW_8
 4
 108
 86
 71
 51
 31
 0
 8
CALL
PUSHW_8
 5
 100
 86
 71
 51
 31
 0
 8
CALL
SVTCA[y-axis]
PUSHW_8
 1
 220
 180
 140
 90
 54
 0
 8
CALL
PUSHW_8
 2
 172
 141
 110
 90
 54
 0
 8
CALL
SVTCA[y-axis]
PUSHW_3
 6
 4
 7
CALL
PUSHW_1
 0
DUP
RCVT
RDTG
ROUND[Black]
RTG
WCVTP
EndTTInstrs
TtTable: fpgm
PUSHW_1
 0
FDEF
MPPEM
PUSHW_1
 9
LT
IF
PUSHB_2
 1
 1
INSTCTRL
EIF
PUSHW_1
 511
SCANCTRL
PUSHW_1
 68
SCVTCI
PUSHW_2
 9
 3
SDS
SDB
ENDF
PUSHW_1
 1
FDEF
DUP
DUP
RCVT
ROUND[Black]
WCVTP
PUSHB_1
 1
ADD
ENDF
PUSHW_1
 2
FDEF

StartChar: E
Encoding: 69 69 4
Width: 470
Flags: W
LayerCount: 2
Back
Fore
SplineSet
144 598 m 0,0,1
 159 631 159 631 184 655.5 c 128,-1,2
 209 680 209 680 243 691 c 0,3,4
 268 699 268 699 289 701 c 0,5,6
 299 702 299 702 310 702 c 0,7,-1
 337 700 l 0,8,9
 361 696 361 696 382 686 c 0,10,11
 406 674 406 674 421 657 c 0,12,13
 437 639 437 639 443 620 c 0,14,15
 449 602 449 602 449 584 c 0,16,17
 449 582 449 582 449 579 c 0,18,19
 449 560 449 560 440 538 c 0,20,21
 431 517 431 517 416 501 c 0,22,23
 400 484 400 484 386 476 c 0,24,25
 377 471 377 471 365 466.5 c 128,-1,26
 353 462 353 462 342 464 c 0,27,28
 320 468 320 468 312 488 c 0,29,30
 307 500 307 500 307 511 c 0,31,32
 308 521 308 521 310 529 c 128,-1,33
 312 537 312 537 317.5 548.5 c 128,-1,34
 323 560 323 560 331 564 c 0,35,36
 343 569 343 569 344.5 561.5 c 128,-1,37
 346 554 346 554 341 546 c 0,38,39
 335 536 335 536 330.5 528 c 128,-1,40
 326 520 326 520 325 508 c 0,41,42
 324 497 324 497 327 489 c 128,-1,43
 330 481 330 481 341 477 c 0,44,45
 351 473 351 473 361 476 c 128,-1,46
 371 479 371 479 380 483 c 0,47,48
 391 488 391 488 399.5 497 c 128,-1,49
 408 506 408 506 415 515 c 0,50,51
 429 532 429 532 437 556 c 0,52,53
 442 570 442 570 442 586 c 0,54,55
 442 593 442 593 441 601 c 0,56,57
 438 623 438 623 422 640 c 0,58,59
 408 655 408 655 389 664 c 0,60,61
 367 674 367 674 348 676 c 0,62,63
 336 677 336 677 324 677 c 0,64,65
 313 677 313 677 305 676 c 256,66,67
 282 673 282 673 262 664 c 0,68,69
 242 653 242 653 224 639 c 0,70,71
 207 625 207 625 193 600 c 0,72,73
 178 574 178 574 175 555 c 0,74,75
 172 538 172 538 172 524 c 0,76,77
 172 517 172 517 172 508 c 0,78,79
 174 486 174 486 187 462 c 0,80,81
 195 447 195 447 203 438 c 0,82,83
 210 431 210 431 216.5 427 c 128,-1,84
 223 423 223 423 229 419.5 c 128,-1,85
 235 416 235 416 243 407 c 0,86,87
 249 399 249 399 244 392 c 0,88,89
 241 389 241 389 232.5 387 c 128,-1,90
 224 385 224 385 214.5 383.5 c 128,-1,91
 205 382 205 382 195.5 380.5 c 128,-1,92
 186 379 186 379 181 376 c 0,93,94
 154 361 154 361 135.5 345 c 128,-1,95
 117 329 117 329 105 311 c 128,-1,96
 93 293 93 293 85.5 271.5 c 128,-1,97
 78 250 78 250 74 225 c 0,98,99
 72 212 72 212 71.5 199.5 c 128,-1,100
 71 187 71 187 72 174 c 0,101,102
 74 149 74 149 82 126 c 128,-1,103
 90 103 90 103 105 85 c 0,104,105
 113 75 113 75 127.5 61 c 128,-1,106
 142 47 142 47 162 36 c 128,-1,107
 182 25 182 25 208 20 c 0,108,109
 216 19 216 19 225 19 c 0,110,111
 243 19 243 19 263 25 c 0,112,113
 287 34 287 34 304.5 44 c 128,-1,114
 322 54 322 54 341 71 c 0,115,116
 359 84 359 84 372 104 c 128,-1,117
 385 124 385 124 393 148 c 0,118,119
 399 166 399 166 399 187 c 0,120,121
 399 190 399 190 399 193 c 0,122,123
 399 211 399 211 386 236 c 0,124,125
 374 258 374 258 354 261 c 0,126,127
 346 262 346 262 339 262 c 0,128,129
 327 263 327 263 312 257 c 0,130,131
 307 255 307 255 304 254.5 c 128,-1,132
 301 254 301 254 297 258 c 256,133,134
 293 262 293 262 296.5 266.5 c 128,-1,135
 300 271 300 271 306 275 c 128,-1,136
 312 279 312 279 318 282 c 0,137,138
 319 282 319 282 328 284 c 128,-1,139
 337 286 337 286 343 286 c 0,140,141
 355 286 355 286 364 280 c 0,142,143
 380 271 380 271 391 255 c 0,144,145
 401 241 401 241 405 222 c 0,146,147
 409 204 409 204 409 185 c 128,-1,148
 409 166 409 166 404.5 148.5 c 128,-1,149
 400 131 400 131 393 116 c 0,150,151
 379 84 379 84 353.5 59.5 c 128,-1,152
 328 35 328 35 297 22 c 0,153,154
 272 12 272 12 247.5 5.5 c 128,-1,155
 223 -1 223 -1 196 -1 c 0,156,157
 143 -1 143 -1 101 23 c 0,158,159
 81 35 81 35 63 50.5 c 128,-1,160
 45 66 45 66 33 86 c 0,161,162
 25 98 25 98 17.5 115 c 128,-1,163
 10 132 10 132 5 150 c 128,-1,164
 0 168 0 168 -1.5 185 c 128,-1,165
 -3 202 -3 202 0 215 c 0,166,167
 2 227 2 227 4 239 c 128,-1,168
 6 251 6 251 11 263 c 0,169,170
 20 284 20 284 32.5 303 c 128,-1,171
 45 322 45 322 63 336 c 0,172,173
 79 349 79 349 94.5 360 c 128,-1,174
 110 371 110 371 128 379 c 0,175,176
 148 387 148 387 168 392 c 128,-1,177
 188 397 188 397 205 406 c 1,178,179
 194 424 194 424 180 438 c 0,180,181
 161 456 161 456 154 470 c 0,182,183
 145 489 145 489 139 510 c 0,184,185
 135 525 135 525 135 541 c 0,186,187
 136 550 136 550 136 554 c 0,188,189
 138 568 138 568 139 578 c 128,-1,190
 140 588 140 588 144 598 c 0,0,1
EndSplineSet
Validated: 1
EndChar

StartChar: F
Encoding: 70 70 5
Width: 559
Flags: W
LayerCount: 2
Back
Fore
SplineSet
279 636 m 0,0,1
 249 638 249 638 218 638 c 0,2,3
 216 639 216 639 214 639 c 0,4,5
 187 639 187 639 158 633 c 128,-1,6
 129 627 129 627 110 618 c 0,7,8
 87 609 87 609 71 587 c 0,9,10
 53 562 53 562 46 550 c 0,11,12
 37 534 37 534 37 514 c 0,13,14
 37 511 37 511 37 506 c 0,15,16
 37 464 37 464 77 439 c 0,17,18
 96 427 96 427 119 427 c 0,19,20
 120 427 120 427 121 428 c 0,21,22
 145 428 145 428 164 442 c 0,23,24
 182 455 182 455 189 475 c 0,25,26
 191 480 191 480 193.5 486 c 128,-1,27
 196 492 196 492 196 499 c 0,28,29
 196 509 196 509 206 512 c 0,30,31
 213 513 213 513 215 509 c 128,-1,32
 217 505 217 505 216.5 499 c 128,-1,33
 216 493 216 493 214 486.5 c 128,-1,34
 212 480 212 480 211 477 c 0,35,36
 204 449 204 449 186 435 c 0,37,38
 171 423 171 423 146 418 c 0,39,40
 135 416 135 416 124 416 c 0,41,42
 112 416 112 416 102 418 c 0,43,44
 76 423 76 423 58 440 c 128,-1,45
 40 457 40 457 33 480 c 0,46,47
 28 496 28 496 28 514 c 0,48,49
 28 519 28 519 29 530 c 0,50,51
 31 552 31 552 46 576 c 0,52,53
 59 596 59 596 79 611 c 128,-1,54
 99 626 99 626 124 633 c 0,55,56
 174 647 174 647 224 647 c 0,57,-1
 242 647 l 0,58,59
 301 644 301 644 361 641 c 0,60,61
 375 640 375 640 390 639.5 c 128,-1,62
 405 639 405 639 419 638 c 0,63,64
 435 636 435 636 439 644 c 0,65,66
 449 664 449 664 449 664 c 0,67,68
 471 711 471 711 512 744 c 0,69,70
 543 769 543 769 583 769 c 0,71,72
 590 769 590 769 599 768 c 128,-1,73
 608 767 608 767 622 762 c 0,74,75
 633 759 633 759 644 751 c 0,76,77
 657 741 657 741 660 726 c 0,78,79
 662 713 662 713 657 699.5 c 128,-1,80
 652 686 652 686 642.5 674 c 128,-1,81
 633 662 633 662 623 655 c 0,82,83
 603 641 603 641 574.5 636.5 c 128,-1,84
 546 632 546 632 523 630 c 0,85,86
 518 630 518 630 513.5 629.5 c 128,-1,87
 509 629 509 629 505 624 c 256,88,89
 501 619 501 619 499 611.5 c 128,-1,90
 497 604 497 604 495 598 c 0,91,92
 490 584 490 584 486 570.5 c 128,-1,93
 482 557 482 557 477 543 c 0,94,95
 467 515 467 515 459.5 487.5 c 128,-1,96
 452 460 452 460 444 431 c 0,97,98
 442 423 442 423 437 410 c 128,-1,99
 432 397 432 397 434 390 c 0,100,101
 436 386 436 386 441 386.5 c 128,-1,102
 446 387 446 387 448 387 c 0,103,104
 455 386 455 386 462 385.5 c 128,-1,105
 469 385 469 385 476 384 c 0,106,107
 490 383 490 383 502.5 385 c 128,-1,108
 515 387 515 387 528 391 c 0,109,110
 534 393 534 393 537.5 398.5 c 128,-1,111
 541 404 541 404 543.5 409.5 c 128,-1,112
 546 415 546 415 549 418.5 c 128,-1,113
 552 422 552 422 558 420 c 256,114,115
 564 418 564 418 564.5 413.5 c 128,-1,116
 565 409 565 409 562 404 c 128,-1,117
 559 399 559 399 553.5 394 c 128,-1,118
 548 389 548 389 542 386 c 0,119,120
 529 379 529 379 515 377 c 128,-1,121
 501 375 501 375 487 375 c 0,122,123
 476 376 476 376 462 378.5 c 128,-1,124
 448 381 448 381 437 378 c 0,125,126
 432 377 432 377 429.5 372.5 c 128,-1,127
 427 368 427 368 425.5 362.5 c 128,-1,128
 424 357 424 357 423.5 351 c 128,-1,129
 423 345 423 345 422 342 c 0,130,131
 408 286 408 286 391.5 231 c 128,-1,132
 375 176 375 176 346 125 c 0,133,134
 332 101 332 101 312 79 c 0,135,136
 291 56 291 56 269 41 c 128,-1,137
 247 26 247 26 219 14 c 0,138,139
 189 2 189 2 165 2 c 0,140,141
 159 2 159 2 153 2 c 0,142,143
 150 2 150 2 146 2 c 0,144,145
 144 2 144 2 143 2 c 128,-1,146
 142 2 142 2 140 2 c 0,147,148
 134 1 134 1 110 7 c 0,149,150
 82 14 82 14 61 31 c 0,151,152
 41 47 41 47 28 70 c 0,153,154
 16 89 16 89 9 118 c 0,155,156
 6 130 6 130 6 144 c 128,-1,157
 6 158 6 158 9 171 c 0,158,159
 15 199 15 199 29 220 c 0,160,161
 44 245 44 245 65 256 c 0,162,163
 76 262 76 262 89 268 c 0,164,165
 106 277 106 277 114 277 c 0,166,167
 119 277 119 277 124 277 c 0,168,169
 128 277 128 277 131 277 c 0,170,171
 133 277 133 277 136 277 c 0,172,173
 142 278 142 278 164 271 c 0,174,175
 188 263 188 263 202 242 c 0,176,177
 212 227 212 227 212 208 c 0,178,179
 212 203 212 203 211 198 c 0,180,181
 209 187 209 187 201 187 c 0,182,183
 194 188 194 188 193.5 193.5 c 128,-1,184
 193 199 193 199 193 204 c 0,185,186
 193 215 193 215 191.5 225.5 c 128,-1,187
 190 236 190 236 182 244 c 0,188,189
 173 252 173 252 162 258 c 0,190,191
 146 266 146 266 139 266 c 0,192,193
 136 266 136 266 125 267 c 0,194,195
 124 267 124 267 122 267 c 0,196,197
 121 267 121 267 120 267 c 128,-1,198
 119 267 119 267 118 267 c 128,-1,199
 117 267 117 267 116 267 c 0,200,201
 107 268 107 268 88 256 c 0,202,203
 61 239 61 239 46 224 c 0,204,205
 28 204 28 204 20 176 c 0,206,207
 16 162 16 162 16 149 c 128,-1,208
 16 136 16 136 20 124 c 0,209,210
 30 94 30 94 39 76 c 0,211,212
 50 54 50 54 72 37 c 0,213,214
 104 12 104 12 144 12 c 0,215,216
 145 12 145 12 147 12 c 0,217,218
 188 12 188 12 221 38 c 0,219,220
 239 52 239 52 251.5 70 c 128,-1,221
 264 88 264 88 275 108 c 0,222,223
 286 129 286 129 296.5 150 c 128,-1,224
 307 171 307 171 315 194 c 0,225,226
 319 206 319 206 327.5 235 c 128,-1,227
 336 264 336 264 344 295 c 0,228,229
 354 328 354 328 359 352 c 128,-1,230
 364 376 364 376 364 382 c 0,231,232
 364 383 364 383 364 384 c 0,233,234
 364 387 364 387 355 388 c 128,-1,235
 346 389 346 389 335.5 390 c 128,-1,236
 325 391 325 391 315.5 391 c 128,-1,237
 306 391 306 391 304 391 c 0,238,239
 293 390 293 390 282 387.5 c 128,-1,240
 271 385 271 385 262 379 c 0,241,242
 258 376 258 376 254 371.5 c 128,-1,243
 250 367 250 367 246.5 362.5 c 128,-1,244
 243 358 243 358 238.5 356 c 128,-1,245
 234 354 234 354 230 357 c 0,246,247
 225 361 225 361 228 365 c 128,-1,248
 231 369 231 369 236 374 c 0,249,250
 240 377 240 377 243 380.5 c 128,-1,251
 246 384 246 384 251 387 c 0,252,253
 264 396 264 396 277.5 399 c 128,-1,254
 291 402 291 402 305.5 401.5 c 128,-1,255
 320 401 320 401 334 399 c 128,-1,256
 348 397 348 397 361 398 c 256,257,258
 374 399 374 399 376 413 c 128,-1,259
 378 427 378 427 381 437 c 0,260,261
 389 467 389 467 397 497 c 128,-1,262
 405 527 405 527 413 556 c 0,263,264
 418 571 418 571 422 586.5 c 128,-1,265
 426 602 426 602 432 616 c 0,266,267
 434 621 434 621 417.5 625 c 128,-1,268
 401 629 401 629 376.5 631 c 128,-1,269
 352 633 352 633 325 634.5 c 128,-1,270
 298 636 298 636 279 636 c 0,0,1
599 655 m 0,271,272
 607 659 607 659 618.5 669 c 128,-1,273
 630 679 630 679 637.5 691.5 c 128,-1,274
 645 704 645 704 646.5 717 c 128,-1,275
 648 730 648 730 636 741 c 0,276,277
 628 747 628 747 618 748 c 128,-1,278
 608 749 608 749 597.5 747 c 128,-1,279
 587 745 587 745 577.5 740 c 128,-1,280
 568 735 568 735 562 730 c 0,281,282
 552 722 552 722 546.5 711 c 128,-1,283
 541 700 541 700 535 690 c 0,284,285
 528 677 528 677 522 665.5 c 128,-1,286
 516 654 516 654 513 640 c 1,287,288
 519 639 519 639 525 639 c 0,289,290
 548 641 548 641 557 643 c 0,291,292
 581 648 581 648 599 655 c 0,271,272
EndSplineSet
Validated: 1
EndChar

StartChar: G
Encoding: 71 71 6
Width: 494
Flags: W
LayerCount: 2
Back
Fore
SplineSet
414 183 m 0,0,1
 409 152 409 152 396 102 c 0,2,3
 393 91 393 91 371 26 c 0,4,5
 359 -9 359 -9 330 -30 c 0,6,7
 303 -51 303 -51 269 -63 c 0,8,9
 247 -71 247 -71 220 -76 c 0,10,11
 217 -77 217 -77 200 -78 c 0,12,13
 188 -79 188 -79 172 -75 c 0,14,15
 152 -70 152 -70 127 -59 c 0,16,17
 116 -54 116 -54 106 -48 c 128,-1,18
 96 -42 96 -42 89 -33 c 0,19,20
 59 6 59 6 59 45 c 0,21,22
 59 48 59 48 59 50 c 128,-1,23
 59 52 59 52 59 54 c 128,-1,24
 59 56 59 56 59 58 c 128,-1,25
 59 60 59 60 59 61 c 0,26,27
 58.8709677419 62.5483870968 58.8709677419 62.5483870968 58.8709677419 64.1050988554 c 0,28,29
 58.8709677419 86.6774193548 58.8709677419 86.6774193548 86 111 c 0,30,31
 97 121 97 121 115 126 c 0,32,33
 126 129 126 129 139 129 c 0,34,35
 151 129 151 129 162 127 c 0,36,37
 190 122 190 122 205 109 c 0,38,39
 213 102 213 102 218.5 93.5 c 128,-1,40
 224 85 224 85 224 74 c 0,41,42
 224 55 224 55 213 38 c 0,43,44
 208 33 208 33 202 27 c 128,-1,45
 196 21 196 21 189 19 c 0,46,47
 176 19 176 19 176 25.5 c 128,-1,48
 176 32 176 32 183 40 c 0,49,50
 187 45 187 45 191.5 48.5 c 128,-1,51
 196 52 196 52 199 57 c 0,52,53
 204 65 204 65 203 75 c 0,54,55
 202 88 202 88 199 93 c 0,56,57
 195 101 195 101 186 107 c 0,58,59
 174 114 174 114 168 116 c 0,60,61
 159 119 159 119 146 119 c 0,62,63
 140 120 140 120 130 118 c 0,64,65
 110 112 110 112 98 101 c 0,66,67
 88 92 88 92 84 86 c 0,68,69
 74 70 74 70 74 70 c 0,70,71
 66 57 66 57 66 40 c 0,72,73
 66 34 66 34 68 28 c 0,74,75
 73 10 73 10 85 -11 c 0,76,77
 96 -30 96 -30 116 -41 c 0,78,79
 135 -51 135 -51 156 -57 c 0,80,81
 171 -61 171 -61 188 -61 c 0,82,83
 198 -61 198 -61 207 -60 c 0,84,85
 236 -55 236 -55 254 -44 c 0,86,87
 276 -31 276 -31 281 -25 c 0,88,89
 291 -14 291 -14 301 0 c 0,90,91
 305 6 305 6 308 11.5 c 128,-1,92
 311 17 311 17 313 24 c 0,93,94
 333 75 333 75 345 127 c 0,95,96
 349 142 349 142 352 157 c 128,-1,97
 355 172 355 172 360 187 c 0,98,99
 364 201 364 201 371.5 217 c 128,-1,100
 379 233 379 233 377 247 c 1,101,102
 360 242 360 242 345 230 c 128,-1,103
 330 218 330 218 316 210 c 0,104,105
 295 198 295 198 268 189 c 0,106,107
 247 182 247 182 227 182 c 0,108,109
 223 182 223 182 218 182 c 0,110,111
 206 182 206 182 194 181 c 128,-1,112
 182 180 182 180 170 181 c 0,113,114
 145 183 145 183 120.5 191 c 128,-1,115
 96 199 96 199 75 211 c 0,116,117
 42 230 42 230 24 264 c 0,118,119
 8 295 8 295 1 337 c 0,120,121
 -2 356 -2 356 -2 376 c 128,-1,122
 -2 396 -2 396 1 415 c 0,123,124
 8 458 8 458 19 484 c 0,125,126
 29 507 29 507 39.5 531 c 128,-1,127
 50 555 50 555 66 573 c 0,128,129
 80 593 80 593 97.5 609.5 c 128,-1,130
 115 626 115 626 132 639 c 0,131,132
 152 655 152 655 175 666 c 128,-1,133
 198 677 198 677 221 685 c 0,134,135
 247 694 247 694 273 697 c 256,136,137
 299 700 299 700 325.5 700 c 128,-1,138
 352 700 352 700 376 691 c 0,139,140
 395 685 395 685 419 668 c 0,141,142
 451 646 451 646 464 613 c 0,143,144
 478 579 478 579 478 552 c 0,145,146
 478 549 478 549 478 545 c 0,147,148
 478 536 478 536 474 520 c 0,149,150
 471 504 471 504 468 494 c 0,151,152
 461 471 461 471 446 450 c 0,153,154
 430 426 430 426 419 411 c 0,155,156
 406 394 406 394 384 380 c 0,157,158
 358 365 358 365 339 362 c 0,159,160
 333 361 333 361 325 361 c 0,161,162
 313 360 313 360 296 366 c 0,163,164
 273 374 273 374 261 393 c 0,165,166
 251 409 251 409 251 426 c 0,167,168
 251 432 251 432 252 438 c 0,169,170
 255 461 255 461 270 483 c 0,171,172
 276 492 276 492 281 497 c 0,173,174
 287 503 287 503 296 508 c 0,175,176
 304 513 304 513 313 515 c 0,177,178
 326 518 326 518 331 518 c 0,179,180
 348 518 348 518 354 516 c 128,-1,181
 360 514 360 514 364 513 c 0,182,183
 375 510 375 510 370 502 c 0,184,185
 365 492 365 492 358 493 c 128,-1,186
 351 494 351 494 346 496 c 0,187,188
 336 498 336 498 333 498 c 0,189,190
 325 498 325 498 325 498 c 0,191,192
 315 500 315 500 301 494 c 0,193,194
 285 486 285 486 276 474 c 0,195,196
 262 455 262 455 262 440 c 0,197,198
 262 436 262 436 262 432 c 0,199,200
 262 417 262 417 269 405 c 0,201,202
 281 384 281 384 300 376 c 0,203,204
 311 371 311 371 323 371 c 0,205,206
 333 371 333 371 343 375 c 0,207,208
 368 385 368 385 384 400 c 0,209,210
 400 416 400 416 412 437 c 0,211,212
 428 465 428 465 433 486 c 0,213,214
 439 508 439 508 442 531 c 256,215,216
 445 554 445 554 445 580 c 128,-1,217
 445 606 445 606 432 626 c 256,218,219
 419 646 419 646 397 657 c 128,-1,220
 375 668 375 668 352 673 c 0,221,222
 326 678 326 678 299 678 c 128,-1,223
 272 678 272 678 250 669 c 0,224,225
 226 658 226 658 205 644.5 c 128,-1,226
 184 631 184 631 167 612 c 0,227,228
 141 582 141 582 119 551.5 c 128,-1,229
 97 521 97 521 83 485 c 0,230,231
 64 433 64 433 64 385 c 0,232,233
 64 358 64 358 70 334 c 0,234,235
 76 308 76 308 87 286 c 128,-1,236
 98 264 98 264 116 246 c 0,237,238
 124 237 124 237 133 228.5 c 128,-1,239
 142 220 142 220 152 214 c 0,240,241
 170 204 170 204 192 202 c 0,242,243
 203 200 203 200 214 202 c 128,-1,244
 225 204 225 204 236 205 c 0,245,246
 242 206 242 206 248 206.5 c 128,-1,247
 254 207 254 207 260 209 c 0,248,249
 267 211 267 211 273 213.5 c 128,-1,250
 279 216 279 216 285 218 c 0,251,252
 296 223 296 223 307 228 c 128,-1,253
 318 233 318 233 328 241 c 0,254,255
 337 248 337 248 345 256 c 128,-1,256
 353 264 353 264 361 272 c 0,257,258
 376 291 376 291 390 312.5 c 128,-1,259
 404 334 404 334 414 355 c 0,260,261
 418 363 418 363 421 371.5 c 128,-1,262
 424 380 424 380 432 385 c 0,263,264
 436 387 436 387 442.5 386.5 c 128,-1,265
 449 386 449 386 456.5 383.5 c 128,-1,266
 464 381 464 381 470 378 c 128,-1,267
 476 375 476 375 478 372 c 0,268,269
 480 370 480 370 480.5 366.5 c 128,-1,270
 481 363 481 363 480 361 c 0,271,272
 478 353 478 353 472 345 c 0,273,274
 463 333 463 333 462 331 c 0,275,276
 453 314 453 314 446 296 c 0,277,278
 445 293 445 293 434 258 c 0,279,280
 434 258 434 258 422 220 c 0,281,282
 417 202 417 202 414 183 c 0,0,1
EndSplineSet
Validated: 524289
EndChar

StartChar: H
Encoding: 72 72 7
Width: 878
Flags: W
LayerCount: 2
Back
Fore
SplineSet
654 741 m 1,0,1
 656 736 656 736 658 723 c 0,2,3
 659 715 659 715 656 708 c 0,4,5
 647 689 647 689 636 676 c 0,6,7
 622 662 622 662 605 651.5 c 128,-1,8
 588 641 588 641 575 637 c 0,9,10
 561 633 561 633 546.5 631 c 128,-1,11
 532 629 532 629 518 626 c 0,12,13
 512 625 512 625 510.5 618 c 128,-1,14
 509 611 509 611 508 606 c 0,15,16
 491 541 491 541 480.5 475.5 c 128,-1,17
 470 410 470 410 458 344 c 0,18,19
 458 342 458 342 456.5 337.5 c 128,-1,20
 455 333 455 333 454.5 327.5 c 128,-1,21
 454 322 454 322 454 318.5 c 128,-1,22
 454 315 454 315 457 315 c 0,23,24
 490 319 490 319 523 323 c 128,-1,25
 556 327 556 327 590 331 c 0,26,27
 606 333 606 333 622 336.5 c 128,-1,28
 638 340 638 340 654 344 c 0,29,30
 660 346 660 346 663 352.5 c 128,-1,31
 666 359 666 359 667.5 367 c 128,-1,32
 669 375 669 375 669.5 383.5 c 128,-1,33
 670 392 670 392 671 398 c 0,34,35
 678 430 678 430 688 462 c 128,-1,36
 698 494 698 494 712 520 c 0,37,38
 726 548 726 548 740.5 573.5 c 128,-1,39
 755 599 755 599 778 621 c 0,40,41
 787 630 787 630 798 639 c 128,-1,42
 809 648 809 648 821 655 c 128,-1,43
 833 662 833 662 846 665 c 128,-1,44
 859 668 859 668 873 665 c 0,45,46
 888 661 888 661 896 651.5 c 128,-1,47
 904 642 904 642 907 630 c 128,-1,48
 910 618 910 618 910 604 c 128,-1,49
 910 590 910 590 909 577 c 0,50,51
 907 549 907 549 896 522 c 128,-1,52
 885 495 885 495 870 472 c 0,53,54
 853 449 853 449 832 426.5 c 128,-1,55
 811 404 811 404 788 387 c 0,56,57
 770 375 770 375 755 363 c 0,58,59
 739 350 739 350 720 344 c 0,60,61
 714 342 714 342 710 340 c 128,-1,62
 706 338 706 338 705 329 c 0,63,64
 699 277 699 277 698 264 c 0,65,66
 695 238 695 238 695 213 c 0,67,68
 695 207 695 207 695 198 c 0,69,70
 695 132 695 132 720 77 c 0,71,72
 731 54 731 54 749 39.5 c 128,-1,73
 767 25 767 25 793 20 c 0,74,75
 805 18 805 18 814.5 20.5 c 128,-1,76
 824 23 824 23 832 33 c 0,77,78
 836 38 836 38 838.5 44.5 c 128,-1,79
 841 51 841 51 843 57 c 256,80,81
 845 63 845 63 846.5 70 c 128,-1,82
 848 77 848 77 854 75 c 0,83,84
 865 72 865 72 868 62.5 c 128,-1,85
 871 53 871 53 866.5 42 c 128,-1,86
 862 31 862 31 851 20.5 c 128,-1,87
 840 10 840 10 824 4 c 0,88,89
 811 -1 811 -1 795 -1 c 0,90,91
 790 -1 790 -1 787 -0 c 0,92,93
 764 4 764 4 743 14 c 0,94,95
 731 20 731 20 721 34 c 0,96,97
 710 50 710 50 702 59 c 0,98,99
 680 85 680 85 672 111 c 0,100,101
 666 130 666 130 660 171 c 0,102,103
 656 198 656 198 656 225 c 0,104,105
 656 229 656 229 656 233 c 0,106,107
 657 264 657 264 658 292 c 0,108,109
 658 299 658 299 659 306 c 0,110,111
 660 314 660 314 657 319 c 0,112,113
 655 323 655 323 647.5 321.5 c 128,-1,114
 640 320 640 320 637 319 c 0,115,116
 631 318 631 318 615 316.5 c 128,-1,117
 599 315 599 315 578.5 313.5 c 128,-1,118
 558 312 558 312 535 309 c 128,-1,119
 512 306 512 306 493 302.5 c 128,-1,120
 474 299 474 299 460.5 293.5 c 128,-1,121
 447 288 447 288 445 281 c 0,122,123
 427 220 427 220 407 159.5 c 128,-1,124
 387 99 387 99 350 46 c 0,125,126
 334 24 334 24 315.5 4 c 128,-1,127
 297 -16 297 -16 274 -30 c 0,128,129
 250 -46 250 -46 223 -51.5 c 128,-1,130
 196 -57 196 -57 167 -59 c 0,131,132
 160 -60 160 -60 153 -60 c 0,133,-1
 119 -56 l 0,134,135
 95 -51 95 -51 73 -39 c 0,136,137
 52 -27 52 -27 33 -8 c 128,-1,138
 14 11 14 11 9 35 c 0,139,140
 6 48 6 48 3 62 c 128,-1,141
 0 76 0 76 -1 90 c 0,142,143
 -2 101 -2 101 0 115 c 128,-1,144
 2 129 2 129 5.5 142.5 c 128,-1,145
 9 156 9 156 14.5 168 c 128,-1,146
 20 180 20 180 27 189 c 256,147,148
 34 198 34 198 42.5 207 c 128,-1,149
 51 216 51 216 61 223 c 0,150,151
 83 238 83 238 106 242 c 0,152,153
 117 244 117 244 127 244 c 0,154,155
 141 244 141 244 152 240 c 0,156,157
 170 234 170 234 183 214 c 0,158,159
 191 204 191 204 194.5 192.5 c 128,-1,160
 198 181 198 181 204 171 c 1,161,162
 209 176 209 176 212.5 182 c 128,-1,163
 216 188 216 188 220 194 c 0,164,165
 234 215 234 215 257.5 233.5 c 128,-1,166
 281 252 281 252 302 263 c 0,167,168
 316 271 316 271 332 279.5 c 128,-1,169
 348 288 348 288 364 292 c 0,170,171
 378 296 378 296 384.5 298.5 c 128,-1,172
 391 301 391 301 393 316 c 0,173,174
 400 354 400 354 408.5 392.5 c 128,-1,175
 417 431 417 431 426 469 c 0,176,177
 437 507 437 507 449 545 c 128,-1,178
 461 583 461 583 465 619 c 1,179,180
 432 617 432 617 399.5 610 c 128,-1,181
 367 603 367 603 336 594 c 0,182,183
 321 589 321 589 294.5 578.5 c 128,-1,184
 268 568 268 568 246 550 c 0,185,186
 226 534 226 534 215 509 c 0,187,188
 211 500 211 500 211 491 c 0,189,190
 212 472 212 472 223 454 c 0,191,192
 233 437 233 437 256 437 c 0,193,194
 270 437 270 437 276.5 446.5 c 128,-1,195
 283 456 283 456 293 463 c 0,196,197
 295 465 295 465 302 465 c 128,-1,198
 309 465 309 465 311 459 c 0,199,200
 313 454 313 454 310.5 449.5 c 128,-1,201
 308 445 308 445 304 442 c 0,202,203
 294 433 294 433 280 429 c 128,-1,204
 266 425 266 425 254 427 c 0,205,206
 221 432 221 432 208 458 c 0,207,208
 199 476 199 476 199 495 c 0,209,210
 199 504 199 504 201 513 c 0,211,212
 208 545 208 545 229 564 c 0,213,214
 251 584 251 584 279.5 595.5 c 128,-1,215
 308 607 308 607 339.5 613 c 128,-1,216
 371 619 371 619 397 623 c 0,217,218
 414 626 414 626 431 626.5 c 128,-1,219
 448 627 448 627 465 632 c 0,220,221
 474 634 474 634 477 640.5 c 128,-1,222
 480 647 480 647 483 655 c 0,223,224
 487 664 487 664 490.5 673 c 128,-1,225
 494 682 494 682 498 690 c 0,226,227
 506 707 506 707 518 718 c 128,-1,228
 530 729 530 729 545 739 c 0,229,230
 559 749 559 749 573.5 755.5 c 128,-1,231
 588 762 588 762 602 763.5 c 128,-1,232
 616 765 616 765 629 760 c 128,-1,233
 642 755 642 755 654 741 c 1,0,1
190 100 m 0,234,235
 185 102 185 102 186 106 c 128,-1,236
 187 110 187 110 188 114 c 0,237,238
 194 138 194 138 194 147 c 0,239,240
 194 151 194 151 194 151 c 0,241,242
 194 153 194 153 194 154 c 128,-1,243
 194 155 194 155 194 157 c 0,244,245
 194 158 194 158 194.071428571 159.321428571 c 0,246,247
 194.113493605 160.099631693 194.113493605 160.099631693 194.113493605 160.904809583 c 0,248,249
 194.113493605 174.568434391 194.113493605 174.568434391 182 196 c 0,250,251
 170 218 170 218 142 227 c 0,252,253
 137 229 137 229 121 230 c 0,254,255
 109 231 109 231 94 224 c 0,256,257
 71 214 71 214 57 195 c 0,258,259
 38 170 38 170 31 144 c 0,260,261
 24 119 24 119 24 96 c 0,262,263
 24 92 24 92 24 86 c 256,264,265
 24 63 24 63 37 29 c 0,266,267
 48 0 48 0 69 -19 c 256,268,269
 86 -35 86 -35 118 -44 c 0,270,271
 135 -49 135 -49 153 -49 c 0,272,-1
 174 -47 l 0,273,274
 203 -44 203 -44 228.5 -31.5 c 128,-1,275
 254 -19 254 -19 277 0 c 0,276,277
 301 20 301 20 315 46 c 128,-1,278
 329 72 329 72 340 101 c 0,279,280
 356 144 356 144 367.5 188 c 128,-1,281
 379 232 379 232 383 275 c 1,282,283
 352 267 352 267 322.5 254 c 128,-1,284
 293 241 293 241 270 224 c 0,285,286
 250 209 250 209 232 182 c 128,-1,287
 214 155 214 155 208 127 c 0,288,289
 207 124 207 124 207 118 c 128,-1,290
 207 112 207 112 205.5 106.5 c 128,-1,291
 204 101 204 101 200.5 98.5 c 128,-1,292
 197 96 197 96 190 100 c 0,234,235
858 654 m 0,293,294
 847 655 847 655 836.5 647.5 c 128,-1,295
 826 640 826 640 816.5 629 c 128,-1,296
 807 618 807 618 799.5 606 c 128,-1,297
 792 594 792 594 788 586 c 0,298,299
 772 557 772 557 761.5 529.5 c 128,-1,300
 751 502 751 502 743 475 c 128,-1,301
 735 448 735 448 728 421 c 128,-1,302
 721 394 721 394 713 366 c 1,303,304
 730 370 730 370 746.5 381 c 128,-1,305
 763 392 763 392 777 403 c 0,306,307
 808 428 808 428 837.5 457 c 128,-1,308
 867 486 867 486 882 522 c 0,309,310
 890 542 890 542 895 563 c 0,311,312
 899 581 899 581 899 598 c 0,313,314
 899 601 899 601 899 604 c 0,315,316
 899 623 899 623 888 638 c 0,317,318
 879 652 879 652 858 654 c 0,293,294
547 713 m 0,319,320
 535 696 535 696 528.5 679.5 c 128,-1,321
 522 663 522 663 517 645 c 0,322,323
 515 637 515 637 519.5 637 c 128,-1,324
 524 637 524 637 529 639 c 0,325,326
 555 645 555 645 584 653 c 128,-1,327
 613 661 613 661 630 684 c 0,328,329
 637 692 637 692 641.5 703.5 c 128,-1,330
 646 715 646 715 644 726 c 0,331,332
 641 736 641 736 632.5 744 c 128,-1,333
 624 752 624 752 613 751 c 0,334,335
 612 751 612 751 604.5 749 c 128,-1,336
 597 747 597 747 586.5 742.5 c 128,-1,337
 576 738 576 738 565 731 c 128,-1,338
 554 724 554 724 547 713 c 0,319,320
EndSplineSet
Validated: 524289
EndChar

StartChar: I
Encoding: 73 73 8
Width: 482
Flags: W
LayerCount: 2
Back
Fore
SplineSet
49 303 m 0,0,1
 63 315 63 315 98 330 c 0,2,3
 112 336 112 336 128 336 c 0,4,5
 143 335 143 335 153 332 c 0,6,7
 160 330 160 330 178 324 c 0,8,9
 189 321 189 321 200 312 c 256,10,11
 211 303 211 303 219 292 c 128,-1,12
 227 281 227 281 231 268 c 0,13,14
 235 254 235 254 232.5 241.5 c 128,-1,15
 230 229 230 229 227 217 c 0,16,17
 225 212 225 212 222.5 204.5 c 128,-1,18
 220 197 220 197 215.5 190.5 c 128,-1,19
 211 184 211 184 205 180.5 c 128,-1,20
 199 177 199 177 192 179 c 0,21,22
 187 180 187 180 188 185.5 c 128,-1,23
 189 191 189 191 192 197 c 128,-1,24
 195 203 195 203 199 209 c 128,-1,25
 203 215 203 215 205 217 c 0,26,27
 212 230 212 230 216 243.5 c 128,-1,28
 220 257 220 257 217 271 c 0,29,30
 213 285 213 285 204 295 c 128,-1,31
 195 305 195 305 182.5 312 c 128,-1,32
 170 319 170 319 156 322 c 128,-1,33
 142 325 142 325 129 325 c 0,34,35
 97 325 97 325 73 309 c 128,-1,36
 49 293 49 293 33 268 c 0,37,38
 16 242 16 242 11 213 c 0,39,40
 8 197 8 197 8 181 c 0,41,42
 8 169 8 169 10 155 c 0,43,44
 14 127 14 127 31 99 c 0,45,46
 47 73 47 73 70.5 55.5 c 128,-1,47
 94 38 94 38 122 30 c 0,48,49
 140 25 140 25 159 25 c 0,50,51
 170 25 170 25 182 27 c 0,52,53
 188 28 188 28 210 34 c 0,54,55
 224 37 224 37 236 45 c 256,56,57
 248 53 248 53 259.5 62 c 128,-1,58
 271 71 271 71 281 82 c 0,59,60
 301 102 301 102 313 127 c 128,-1,61
 325 152 325 152 334 178 c 0,62,63
 379 298 379 298 406 428 c 0,64,65
 414 461 414 461 422 493.5 c 128,-1,66
 430 526 430 526 437 559 c 0,67,68
 443 589 443 589 452 620 c 0,69,70
 453 623 453 623 455.5 629 c 128,-1,71
 458 635 458 635 459.5 641 c 128,-1,72
 461 647 461 647 460.5 651.5 c 128,-1,73
 460 656 460 656 454 656 c 0,74,75
 444 656 444 656 435 656 c 0,76,-1
 386 654 l 0,77,78
 352 652 352 652 319 650 c 0,79,80
 302 649 302 649 254 643 c 0,81,82
 222 639 222 639 191 627 c 0,83,84
 165 618 165 618 144 608 c 128,-1,85
 123 598 123 598 112 571 c 0,86,87
 108 560 108 560 108 547.5 c 128,-1,88
 108 535 108 535 112.5 524 c 128,-1,89
 117 513 117 513 125.5 504.5 c 128,-1,90
 134 496 134 496 147 494 c 0,91,92
 158 492 158 492 168 494 c 128,-1,93
 178 496 178 496 186 503 c 0,94,95
 192 508 192 508 197 513 c 128,-1,96
 202 518 202 518 208 523 c 0,97,98
 215 528 215 528 220 528.5 c 128,-1,99
 225 529 225 529 228 521 c 0,100,101
 233 507 233 507 223.5 499 c 128,-1,102
 214 491 214 491 204 486 c 0,103,104
 191 478 191 478 178.5 474.5 c 128,-1,105
 166 471 166 471 150 475 c 0,106,107
 121 482 121 482 107 504 c 0,108,109
 97 520 97 520 97 540 c 0,110,111
 97 546 97 546 98 555 c 256,112,113
 101 583 101 583 122 602 c 0,114,115
 141 619 141 619 168 631 c 128,-1,116
 195 643 195 643 230 648 c 0,117,118
 276 657 276 657 294 659 c 0,119,120
 309 661 309 661 362 663 c 0,121,122
 400 664 400 664 429 667 c 0,123,124
 439 668 439 668 452 666 c 0,125,126
 467 665 467 665 472 677 c 0,127,128
 477 690 477 690 485 704 c 0,129,130
 490 712 490 712 502 728 c 0,131,132
 520 752 520 752 541 764 c 0,133,134
 563 777 563 777 588 777 c 0,135,136
 590 777 590 777 592 777 c 0,137,138
 617 777 617 777 638 758 c 0,139,140
 642 755 642 755 647 750 c 128,-1,141
 652 745 652 745 651 739 c 0,142,143
 651 725 651 725 648 712 c 0,144,145
 644 697 644 697 634.5 688 c 128,-1,146
 625 679 625 679 612.5 674 c 128,-1,147
 600 669 600 669 586 666.5 c 128,-1,148
 572 664 572 664 559 663 c 0,149,150
 551 661 551 661 542.5 660.5 c 128,-1,151
 534 660 534 660 526 659 c 0,152,153
 513 659 513 659 511 651 c 0,154,155
 507 636 507 636 504 620.5 c 128,-1,156
 501 605 501 605 498 590 c 0,157,158
 492 556 492 556 486 525.5 c 128,-1,159
 480 495 480 495 472 464 c 0,160,161
 465 434 465 434 459 404 c 128,-1,162
 453 374 453 374 445 345 c 0,163,164
 441 331 441 331 437.5 316 c 128,-1,165
 434 301 434 301 429 287 c 256,166,167
 424 273 424 273 418 259 c 0,168,169
 412 241 412 241 408 231 c 0,170,171
 386 176 386 176 386 176 c 0,172,173
 372 147 372 147 357 123 c 128,-1,174
 342 99 342 99 324 78 c 0,175,176
 306 54 306 54 284 39 c 0,177,178
 233 4 233 4 183 4 c 0,179,180
 178 4 178 4 173 4 c 0,181,182
 169 4 169 4 164 4 c 0,183,-1
 79 30 l 0,184,185
 33 58 33 58 13 111 c 0,186,187
 8 123 8 123 5 136 c 128,-1,188
 2 149 2 149 0 162 c 0,189,190
 -1 169 -1 169 -2 175 c 128,-1,191
 -3 181 -3 181 -3 188 c 0,192,193
 -3 207 -3 207 2.5 225 c 128,-1,194
 8 243 8 243 16 258.5 c 128,-1,195
 24 274 24 274 33 285.5 c 128,-1,196
 42 297 42 297 49 303 c 0,0,1
581 676 m 2,197,198
 592 678 592 678 602 680 c 128,-1,199
 612 682 612 682 620 690 c 0,200,201
 626 696 626 696 632 704 c 128,-1,202
 638 712 638 712 640 721 c 128,-1,203
 642 730 642 730 640.5 738.5 c 128,-1,204
 639 747 639 747 630 753 c 0,205,206
 624 758 624 758 601 762 c 0,207,208
 596 763 596 763 588 761 c 0,209,210
 563 754 563 754 550 742 c 128,-1,211
 537 730 537 730 530 709 c 0,212,213
 523 690 523 690 519 671 c 1,214,-1
 581 676 l 2,197,198
EndSplineSet
Validated: 1
EndChar

StartChar: J
Encoding: 74 74 9
Width: 543
Flags: W
LayerCount: 2
Back
Fore
SplineSet
712 802 m 0,0,1
 720 793 720 793 718 778 c 0,2,3
 717 766 717 766 714 755 c 0,4,5
 710 740 710 740 702 729.5 c 128,-1,6
 694 719 694 719 683 711 c 128,-1,7
 672 703 672 703 659 697 c 128,-1,8
 646 691 646 691 633 685 c 0,9,10
 620 678 620 678 606 675.5 c 128,-1,11
 592 673 592 673 578 670 c 2,12,-1
 548 663 l 2,13,14
 539 661 539 661 535 657.5 c 128,-1,15
 531 654 531 654 527 644 c 0,16,17
 516 612 516 612 507.5 580.5 c 128,-1,18
 499 549 499 549 491 516 c 256,19,20
 483 483 483 483 477.5 450.5 c 128,-1,21
 472 418 472 418 467 385 c 2,22,-1
 456 321 l 2,23,24
 455 318 455 318 453.5 311 c 128,-1,25
 452 304 452 304 457 302 c 0,26,27
 464 301 464 301 472 303 c 128,-1,28
 480 305 480 305 487 306 c 0,29,30
 500 308 500 308 517 311.5 c 128,-1,31
 534 315 534 315 551.5 320 c 128,-1,32
 569 325 569 325 584 332 c 128,-1,33
 599 339 599 339 609 349 c 0,34,35
 614 354 614 354 617.5 347 c 128,-1,36
 621 340 621 340 620 335 c 2,37,-1
 620 334 l 2,38,39
 620 324 620 324 608 317 c 128,-1,40
 596 310 596 310 578 305 c 128,-1,41
 560 300 560 300 538.5 296.5 c 128,-1,42
 517 293 517 293 498 290.5 c 128,-1,43
 479 288 479 288 465.5 285 c 128,-1,44
 452 282 452 282 450 278 c 0,45,46
 444 267 444 267 443 255.5 c 128,-1,47
 442 244 442 244 440 232 c 0,48,49
 437 214 437 214 434 196.5 c 128,-1,50
 431 179 431 179 426 162 c 0,51,52
 418 133 418 133 403 104.5 c 128,-1,53
 388 76 388 76 371 50 c 0,54,55
 357 28 357 28 337.5 6.5 c 128,-1,56
 318 -15 318 -15 295.5 -32 c 128,-1,57
 273 -49 273 -49 247 -59 c 128,-1,58
 221 -69 221 -69 193 -69 c 0,59,60
 162 -69 162 -69 134 -64 c 0,61,62
 108 -58 108 -58 80 -41 c 0,63,64
 56 -27 56 -27 41 2 c 0,65,66
 27 27 27 27 19 55 c 0,67,68
 15 69 15 69 15 84 c 0,69,70
 16 92 16 92 16 95 c 0,71,72
 16 110 16 110 24 134 c 0,73,74
 27 143 27 143 32 150 c 0,75,76
 39 161 39 161 42 165 c 0,77,78
 52 178 52 178 53 180 c 0,79,80
 56 184 56 184 66 192 c 0,81,82
 81 204 81 204 100 208 c 0,83,84
 113 211 113 211 125 211 c 0,85,86
 133 210 133 210 136 210 c 0,87,88
 154 210 154 210 168 198 c 0,89,90
 180 188 180 188 192 174 c 1,91,92
 200 185 200 185 205 196 c 128,-1,93
 210 207 210 207 219 218 c 256,94,95
 228 229 228 229 239 238.5 c 128,-1,96
 250 248 250 248 261 256 c 0,97,98
 282 270 282 270 301 279 c 128,-1,99
 320 288 320 288 339 293 c 0,100,101
 347 295 347 295 355 295 c 128,-1,102
 363 295 363 295 371 297 c 0,103,104
 376 298 376 298 379 304 c 128,-1,105
 382 310 382 310 383.5 317.5 c 128,-1,106
 385 325 385 325 385.5 332.5 c 128,-1,107
 386 340 386 340 387 344 c 2,108,-1
 403 413 l 1,109,-1
 430 545 l 2,110,111
 434 561 434 561 439 576 c 128,-1,112
 444 591 444 591 450 606 c 2,113,-1
 462 634 l 2,114,115
 465 640 465 640 468 647 c 128,-1,116
 471 654 471 654 460 654 c 0,117,118
 427 652 427 652 394 650.5 c 128,-1,119
 361 649 361 649 328 647 c 0,120,121
 264 644 264 644 198.5 635.5 c 128,-1,122
 133 627 133 627 75 598 c 0,123,124
 63 592 63 592 50 586 c 0,125,126
 37 579 37 579 30 568 c 0,127,128
 22 555 22 555 17 532 c 0,129,130
 15 522 15 522 15 512 c 128,-1,131
 15 502 15 502 17 493 c 0,132,133
 21 474 21 474 34 458 c 0,134,135
 44 444 44 444 69 436 c 0,136,137
 79 433 79 433 87 433 c 0,138,139
 106 434 106 434 122 444 c 0,140,141
 149 459 149 459 163 482 c 0,142,143
 169 492 169 492 170 504 c 0,144,145
 170 504 170 504 170 528 c 0,146,147
 170 531 170 531 168 539 c 0,148,149
 166 545 166 545 168 550 c 0,150,151
 171 558 171 558 177 558 c 0,152,153
 181 559 181 559 187 553 c 0,154,155
 194 546 194 546 194 530 c 0,156,157
 193 514 193 514 191 504 c 0,158,159
 186 480 186 480 168 459 c 256,160,161
 150 438 150 438 123 427 c 0,162,163
 106 420 106 420 90 420 c 0,164,165
 80 420 80 420 69 423 c 0,166,167
 47 429 47 429 26 446 c 128,-1,168
 5 463 5 463 0 487 c 0,169,170
 -3 501 -3 501 -2 512 c 0,171,172
 -2 527 -2 527 0 538 c 0,173,174
 3 555 3 555 12 564 c 0,175,176
 22 575 22 575 33 586 c 0,177,178
 46 599 46 599 68 608 c 0,179,180
 96 620 96 620 108 625 c 0,181,182
 132 635 132 635 156 638 c 0,183,184
 179 641 179 641 205 645 c 0,185,186
 246 652 246 652 304 656 c 0,187,188
 353 660 353 660 402 663 c 2,189,-1
 450 666 l 2,190,191
 458 666 458 666 466.5 667.5 c 128,-1,192
 475 669 475 669 482 674 c 0,193,194
 490 680 490 680 494 688 c 128,-1,195
 498 696 498 696 503 703 c 0,196,197
 511 712 511 712 518.5 720 c 128,-1,198
 526 728 526 728 533 737 c 0,199,200
 546 754 546 754 558.5 768 c 128,-1,201
 571 782 571 782 591 792 c 0,202,203
 605 799 605 799 622 806 c 0,204,205
 637 813 637 813 654 816 c 0,206,207
 667 818 667 818 672 818 c 0,208,209
 682 817 682 817 686 816 c 0,210,211
 700 815 700 815 712 802 c 0,0,1
173 180 m 0,212,213
 164 191 164 191 155 196 c 0,214,215
 143 204 143 204 132 204 c 0,216,217
 107 204 107 204 88 190 c 0,218,219
 69 174 69 174 58 154 c 0,220,221
 42 125 42 125 42 100 c 0,222,223
 42 94 42 94 42 89 c 0,224,225
 41.6 85.2 41.6 85.2 41.6 81.2 c 0,226,227
 41.6 65.2 41.6 65.2 48 46 c 0,228,229
 56 23 56 23 74 -2 c 0,230,231
 92 -26 92 -26 116 -39 c 0,232,233
 119 -40 119 -40 165 -52 c 0,234,235
 169 -53 169 -53 174 -52 c 0,236,237
 215 -45 215 -45 233 -37 c 0,238,239
 254 -28 254 -28 257 -26 c 0,240,241
 268 -20 268 -20 277 -9 c 0,242,243
 287 2 287 2 295.5 14 c 128,-1,244
 304 26 304 26 311 40 c 0,245,246
 317 53 317 53 321.5 66.5 c 128,-1,247
 326 80 326 80 331 94 c 0,248,249
 337 110 337 110 340.5 126 c 128,-1,250
 344 142 344 142 348 159 c 2,251,-1
 363 223 l 2,252,253
 364 226 364 226 366.5 235 c 128,-1,254
 369 244 369 244 371.5 253.5 c 128,-1,255
 374 263 374 263 375 271.5 c 128,-1,256
 376 280 376 280 373 282 c 0,257,258
 368 284 368 284 355.5 279.5 c 128,-1,259
 343 275 343 275 338 273 c 0,260,261
 327 270 327 270 318 266.5 c 128,-1,262
 309 263 309 263 300 257 c 0,263,264
 283 246 283 246 265 234.5 c 128,-1,265
 247 223 247 223 233 208 c 0,266,267
 221 196 221 196 211.5 178.5 c 128,-1,268
 202 161 202 161 200 144 c 0,269,270
 199 138 199 138 201 131 c 128,-1,271
 203 124 203 124 200 118 c 0,272,273
 195 108 195 108 188 113 c 0,274,275
 188 113 188 113 184 129 c 0,276,277
 182 137 182 137 180 154 c 0,278,279
 179 173 179 173 173 180 c 0,212,213
588 753 m 0,280,281
 577 741 577 741 569.5 727.5 c 128,-1,282
 562 714 562 714 554 701 c 0,283,284
 553 699 553 699 551 695.5 c 128,-1,285
 549 692 549 692 547 688.5 c 128,-1,286
 545 685 545 685 545 682 c 128,-1,287
 545 679 545 679 549 679 c 0,288,289
 556 678 556 678 563.5 680.5 c 128,-1,290
 571 683 571 683 578 685 c 0,291,292
 591 688 591 688 604.5 691 c 128,-1,293
 618 694 618 694 631 699 c 0,294,295
 642 704 642 704 652.5 711.5 c 128,-1,296
 663 719 663 719 673 725 c 0,297,298
 684 733 684 733 692.5 742.5 c 128,-1,299
 701 752 701 752 704 765 c 0,300,301
 706 770 706 770 707 776.5 c 128,-1,302
 708 783 708 783 706 788 c 0,303,304
 698 801 698 801 681 800 c 128,-1,305
 664 799 664 799 645.5 790.5 c 128,-1,306
 627 782 627 782 611 771 c 128,-1,307
 595 760 595 760 588 753 c 0,280,281
EndSplineSet
Validated: 524289
EndChar

StartChar: K
Encoding: 75 75 10
Width: 641
Flags: W
LayerCount: 2
Back
Fore
SplineSet
236 45 m 0,0,1
 220 25 220 25 198.5 8 c 128,-1,2
 177 -9 177 -9 153 -18 c 128,-1,3
 129 -27 129 -27 103 -27 c 128,-1,4
 77 -27 77 -27 52 -13 c 0,5,6
 28 -1 28 -1 15.5 21 c 128,-1,7
 3 43 3 43 -0.5 68.5 c 0,8,9
 -1.94117647059 79 -1.94117647059 79 -1.94117647059 89.669550173 c 0,10,11
 -1.94117647059 104.911764706 -1.94117647059 104.911764706 1 120.5 c 0,12,13
 6 147 6 147 18 168 c 0,14,15
 29 189 29 189 47.5 204 c 128,-1,16
 66 219 66 219 90 222 c 0,17,18
 95.7142857143 222.571428571 95.7142857143 222.571428571 101.591836735 222.571428571 c 0,19,20
 116.285714286 222.571428571 116.285714286 222.571428571 132 219 c 0,21,22
 154 214 154 214 163 193 c 0,23,24
 168 180 168 180 167 165.5 c 128,-1,25
 166 151 166 151 161 138 c 0,26,27
 156 122 156 122 145 111 c 0,28,29
 142 108 142 108 139 105.5 c 128,-1,30
 136 103 136 103 133 100 c 0,31,32
 129 97 129 97 123 96 c 128,-1,33
 117 95 117 95 115 98 c 0,34,35
 111 103 111 103 114 108 c 128,-1,36
 117 113 117 113 122 118 c 256,37,38
 127 123 127 123 131 128 c 128,-1,39
 135 133 135 133 139 138 c 0,40,41
 148.375 154.875 148.375 154.875 148.375 171.359375 c 0,42,43
 148.375 181.25 148.375 181.25 145 191 c 0,44,45
 141 206 141 206 129.5 209.5 c 128,-1,46
 118 213 118 213 104 211 c 128,-1,47
 90 209 90 209 76.5 203 c 128,-1,48
 63 197 63 197 55 192 c 0,49,50
 33 178 33 178 23 156.5 c 128,-1,51
 13 135 13 135 10 111 c 0,52,53
 9.14285714286 103.571428571 9.14285714286 103.571428571 9.14285714286 95.8571428571 c 0,54,55
 9.14285714286 76.5714285714 9.14285714286 76.5714285714 14.5 55.5 c 0,56,57
 22 26 22 26 42 9 c 0,58,59
 63.4358974359 -9.51282051282 63.4358974359 -9.51282051282 91.9921104536 -9.51282051282 c 0,60,61
 92.7435897436 -9.51282051282 92.7435897436 -9.51282051282 93.5 -9.5 c 0,62,63
 123 -9 123 -9 147 3 c 0,64,65
 174 17 174 17 187.5 39 c 128,-1,66
 201 61 201 61 212 87 c 0,67,68
 236 150 236 150 255 214 c 128,-1,69
 274 278 274 278 289 344 c 0,70,71
 296 373 296 373 302 402 c 128,-1,72
 308 431 308 431 316 460 c 0,73,74
 323 489 323 489 331 519 c 128,-1,75
 339 549 339 549 345 579 c 0,76,77
 345 581 345 581 347 586.5 c 128,-1,78
 349 592 349 592 347 594 c 0,79,80
 345 597 345 597 337.5 595.5 c 128,-1,81
 330 594 330 594 328 593 c 0,82,83
 311 591 311 591 295.5 588.5 c 128,-1,84
 280 586 280 586 264 584 c 0,85,86
 234 579 234 579 204.5 572.5 c 128,-1,87
 175 566 175 566 146 555 c 0,88,89
 122 547 122 547 97.5 531 c 128,-1,90
 73 515 73 515 65 489 c 0,91,92
 61.4 476.4 61.4 476.4 61.4 462 c 0,93,94
 61.4 452.4 61.4 452.4 63 442 c 0,95,96
 67 416 67 416 87 403 c 0,97,98
 104 392 104 392 126 392 c 128,-1,99
 148 392 148 392 163 407 c 0,100,101
 176 419 176 419 176 439 c 0,102,103
 176 445 176 445 175 450.5 c 128,-1,104
 174 456 174 456 173 461 c 0,105,106
 172 468 172 468 174 474 c 128,-1,107
 176 480 176 480 182 482 c 0,108,109
 190 484 190 484 191.5 477.5 c 128,-1,110
 193 471 193 471 195 463 c 0,111,112
 198 447 198 447 194 433 c 0,113,114
 188 409 188 409 169 394 c 0,115,116
 152 381 152 381 130.5 377.5 c 0,117,118
 125.310344828 376.655172414 125.310344828 376.655172414 120.324613555 376.655172414 c 0,119,120
 104.655172414 376.655172414 104.655172414 376.655172414 91 385 c 0,121,122
 68 397 68 397 58 421.5 c 0,123,124
 49.6666666667 441.916666667 49.6666666667 441.916666667 49.6666666667 462.680555556 c 0,125,126
 49.6666666667 466.833333333 49.6666666667 466.833333333 50 471 c 0,127,128
 53 497 53 497 68.5 517 c 128,-1,129
 84 537 84 537 106 550 c 0,130,131
 133 567 133 567 164.5 574 c 128,-1,132
 196 581 196 581 227 588 c 0,133,134
 274 599 274 599 323 604 c 0,135,136
 330 605 330 605 338.5 605 c 128,-1,137
 347 605 347 605 352 610 c 0,138,139
 357 614 357 614 358 620.5 c 128,-1,140
 359 627 359 627 361 632 c 0,141,142
 364 638 364 638 367 644.5 c 128,-1,143
 370 651 370 651 373 656 c 0,144,145
 387 682 387 682 408 704 c 0,146,147
 425 722 425 722 451 727.5 c 0,148,149
 459.171428571 729.228571429 459.171428571 729.228571429 466.947755102 729.228571429 c 0,150,151
 483.914285714 729.228571429 483.914285714 729.228571429 499 721 c 0,152,153
 513 713 513 713 516.5 700.5 c 128,-1,154
 520 688 520 688 516.5 674.5 c 128,-1,155
 513 661 513 661 504.5 648.5 c 128,-1,156
 496 636 496 636 486 629 c 0,157,158
 472 619 472 619 455 614 c 128,-1,159
 438 609 438 609 421 607 c 0,160,161
 407 605 407 605 400 596 c 0,162,163
 390 579 390 579 388.5 559 c 128,-1,164
 387 539 387 539 383 519 c 0,165,166
 374 478 374 478 366.5 439 c 128,-1,167
 359 400 359 400 350 361 c 0,168,169
 349 358 349 358 347.5 353.5 c 128,-1,170
 346 349 346 349 345.5 344.5 c 128,-1,171
 345 340 345 340 345.5 336.5 c 128,-1,172
 346 333 346 333 350 332 c 0,173,174
 363 327 363 327 378.5 326.5 c 128,-1,175
 394 326 394 326 408 327 c 0,176,177
 437 329 437 329 464.5 340 c 128,-1,178
 492 351 492 351 513 372 c 0,179,180
 535 394 535 394 548 419.5 c 128,-1,181
 561 445 561 445 572 473 c 0,182,183
 585 503 585 503 596.5 533.5 c 128,-1,184
 608 564 608 564 622 594 c 0,185,186
 632 615 632 615 646 638 c 128,-1,187
 660 661 660 661 679 677.5 c 128,-1,188
 698 694 698 694 721 700.5 c 0,189,190
 729.542857143 702.914285714 729.542857143 702.914285714 738.63755102 702.914285714 c 0,191,192
 754.028571429 702.914285714 754.028571429 702.914285714 771 696 c 0,193,194
 776 693 776 693 781.5 690 c 128,-1,195
 787 687 787 687 791 682 c 0,196,197
 794 677 794 677 790.5 675 c 128,-1,198
 787 673 787 673 783 675 c 0,199,200
 778 677 778 677 773 681 c 128,-1,201
 768 685 768 685 762 687 c 0,202,203
 752.5 691 752.5 691 743.875 691 c 128,-1,204
 735.25 691 735.25 691 727.5 687 c 0,205,206
 712 679 712 679 701 664 c 0,207,208
 675 626 675 626 662 582.5 c 128,-1,209
 649 539 649 539 633 497 c 0,210,211
 617 458 617 458 600 423 c 128,-1,212
 583 388 583 388 551 359 c 0,213,214
 521 331 521 331 486 319 c 0,215,216
 465 311 465 311 444 311 c 128,-1,217
 423 311 423 311 402 306 c 1,218,219
 410 297 410 297 420.5 289.5 c 128,-1,220
 431 282 431 282 439 273 c 0,221,222
 459 252 459 252 469 227 c 0,223,224
 474 213 474 213 478 198 c 128,-1,225
 482 183 482 183 487 169 c 0,226,227
 492 152 492 152 498 135 c 128,-1,228
 504 118 504 118 510 101 c 0,229,230
 513 92 513 92 519 77.5 c 128,-1,231
 525 63 525 63 533.5 51 c 128,-1,232
 542 39 542 39 553.5 33 c 128,-1,233
 565 27 565 27 579 33 c 0,234,235
 588 37 588 37 597 49 c 0,236,237
 600 53 600 53 604 56.5 c 128,-1,238
 608 60 608 60 613 55 c 0,239,240
 617 51 617 51 614 45 c 128,-1,241
 611 39 611 39 606 33.5 c 128,-1,242
 601 28 601 28 595 23.5 c 128,-1,243
 589 19 589 19 586 17 c 0,244,245
 567.625 4.75 567.625 4.75 546.1875 4.75 c 0,246,247
 543.125 4.75 543.125 4.75 540 5 c 0,248,249
 515 7 515 7 495 21 c 0,250,251
 471 38 471 38 458.5 65.5 c 128,-1,252
 446 93 446 93 439 120 c 0,253,254
 432 151 432 151 426 182 c 128,-1,255
 420 213 420 213 409 242 c 0,256,257
 405 252 405 252 397.5 263 c 128,-1,258
 390 274 390 274 380.5 284 c 128,-1,259
 371 294 371 294 359.5 301 c 128,-1,260
 348 308 348 308 336 310 c 1,261,262
 332 296 332 296 324 263 c 128,-1,263
 316 230 316 230 303.5 190.5 c 128,-1,264
 291 151 291 151 274 111.5 c 128,-1,265
 257 72 257 72 236 45 c 0,0,1
488 717 m 0,266,267
 478 720 478 720 469.5 713.5 c 128,-1,268
 461 707 461 707 454 700 c 0,269,270
 439 686 439 686 429 668 c 128,-1,271
 419 650 419 650 412 630 c 0,272,273
 408 619 408 619 409.5 616.5 c 128,-1,274
 411 614 411 614 422 616 c 0,275,276
 432 618 432 618 441.5 619.5 c 128,-1,277
 451 621 451 621 461 625 c 0,278,279
 481 633 481 633 495.5 650.5 c 0,280,281
 508.242424242 665.878787879 508.242424242 665.878787879 508.242424242 683.960514233 c 0,282,283
 508.242424242 686.454545455 508.242424242 686.454545455 508 689 c 0,284,285
 507 698 507 698 502 706 c 128,-1,286
 497 714 497 714 488 717 c 0,266,267
EndSplineSet
Validated: 524289
EndChar

StartChar: L
Encoding: 76 76 11
Width: 529
Flags: W
LayerCount: 2
Back
Fore
SplineSet
635 509 m 0,0,1
 624 483 624 483 609.5 457.5 c 128,-1,2
 595 432 595 432 574 411 c 256,3,4
 553 390 553 390 529 373 c 128,-1,5
 505 356 505 356 477 344 c 0,6,7
 464 339 464 339 450.5 335.5 c 128,-1,8
 437 332 437 332 424 326 c 0,9,10
 409 319 409 319 406 308 c 128,-1,11
 403 297 403 297 399 283 c 0,12,13
 391 251 391 251 382.5 220 c 128,-1,14
 374 189 374 189 361 159 c 0,15,16
 347 130 347 130 332 102 c 128,-1,17
 317 74 317 74 299 47 c 0,18,19
 295 41 295 41 306.5 31.5 c 128,-1,20
 318 22 318 22 335 12 c 128,-1,21
 352 2 352 2 369 -6.5 c 128,-1,22
 386 -15 386 -15 393 -18 c 0,23,24
 421 -30 421 -30 449 -40 c 0,25,26
 482 -53 482 -53 507 -53 c 0,27,28
 510 -53 510 -53 513 -53 c 128,-1,29
 516 -53 516 -53 518 -53 c 0,30,31
 536 -55 536 -55 557 -39 c 0,32,33
 559 -38 559 -38 564 -31 c 0,34,35
 568 -25 568 -25 573 -20 c 128,-1,36
 578 -15 578 -15 582.5 -12.5 c 128,-1,37
 587 -10 587 -10 591 -15 c 0,38,39
 599 -26 599 -26 596.5 -36.5 c 128,-1,40
 594 -47 594 -47 585.5 -55 c 128,-1,41
 577 -63 577 -63 566 -69 c 0,42,43
 555 -74 555 -74 544 -76 c 128,-1,44
 533 -78 533 -78 519 -78 c 0,45,46
 501 -78 501 -78 486 -74 c 0,47,48
 458 -65 458 -65 431 -53 c 0,49,50
 395 -37 395 -37 376 -26 c 0,51,52
 349 -11 349 -11 323 6 c 0,53,54
 320 8 320 8 315 12.5 c 128,-1,55
 310 17 310 17 304.5 21 c 128,-1,56
 299 25 299 25 293.5 27.5 c 128,-1,57
 288 30 288 30 284 28 c 256,58,59
 280 26 280 26 277 22 c 0,60,61
 273 15 273 15 271 13 c 0,62,63
 266 7 266 7 260 2 c 0,64,65
 259 0 259 0 248 -9 c 0,66,67
 219 -32 219 -32 200 -32 c 0,68,69
 197 -32 197 -32 193 -32 c 0,70,71
 169 -31 169 -31 151 -18 c 0,72,73
 140 -10 140 -10 136 0 c 0,74,75
 131 12 131 12 132 23.5 c 128,-1,76
 133 35 133 35 139.5 45.5 c 128,-1,77
 146 56 146 56 157 62 c 0,78,79
 169 69 169 69 184 70.5 c 128,-1,80
 199 72 199 72 212 70 c 0,81,82
 217 69 217 69 224.5 66 c 128,-1,83
 232 63 232 63 239.5 61 c 128,-1,84
 247 59 247 59 253.5 59.5 c 128,-1,85
 260 60 260 60 262 67 c 0,86,87
 273 99 273 99 284.5 132 c 128,-1,88
 296 165 296 165 307 197 c 0,89,90
 308 201 308 201 314 219 c 128,-1,91
 320 237 320 237 326 256.5 c 128,-1,92
 332 276 332 276 336 292 c 0,93,94
 339 309 339 309 335 309 c 0,95,96
 316 311 316 311 297 311 c 0,97,98
 282 311 282 311 272 310 c 0,99,100
 268 310 268 310 263 310 c 0,101,102
 261 310 261 310 259 310 c 0,103,104
 240 309 240 309 213 319 c 0,105,106
 148 343 148 343 107 369 c 0,107,108
 59 400 59 400 28 451 c 0,109,110
 5 489 5 489 5 532 c 0,111,112
 5 552 5 552 10 572 c 0,113,114
 18 606 18 606 29 625 c 0,115,116
 40 646 40 646 64 667 c 0,117,118
 85 686 85 686 114 686 c 0,119,120
 115 687 115 687 117 687 c 0,121,122
 144 687 144 687 168 676 c 0,123,124
 194 664 194 664 203.5 638.5 c 128,-1,125
 213 613 213 613 218 588 c 0,126,127
 220 579 220 579 214 571 c 128,-1,128
 208 563 208 563 197 569 c 0,129,130
 192 572 192 572 191.5 578 c 128,-1,131
 191 584 191 584 191 589 c 0,132,133
 191 597 191 597 190 606 c 0,134,135
 190 618 190 618 188 623 c 0,136,137
 176 653 176 653 160 666 c 128,-1,138
 144 679 144 679 122 679 c 0,139,140
 115 679 115 679 111 678 c 0,141,142
 98 675 98 675 86 668 c 0,143,144
 73 661 73 661 62 650.5 c 128,-1,145
 51 640 51 640 42.5 628 c 128,-1,146
 34 616 34 616 30 605 c 0,147,148
 17 570 17 570 17 543 c 2,149,-1
 17 534 l 2,150,151
 17 511 17 511 28 481 c 0,152,153
 47 430 47 430 90 395 c 0,154,155
 116 374 116 374 142 362 c 0,156,157
 173 348 173 348 197 340 c 0,158,159
 220 333 220 333 259 328 c 0,160,161
 276 326 276 326 294 326 c 0,162,163
 309 326 309 326 322 327 c 0,164,165
 331 327 331 327 339 327.5 c 128,-1,166
 347 328 347 328 351 338 c 0,167,168
 360 361 360 361 367.5 388.5 c 128,-1,169
 375 416 375 416 382.5 445 c 128,-1,170
 390 474 390 474 398 504 c 128,-1,171
 406 534 406 534 417 562 c 0,172,173
 425 585 425 585 435 605.5 c 128,-1,174
 445 626 445 626 457 647 c 0,175,176
 466 663 466 663 478 680 c 128,-1,177
 490 697 490 697 505 710 c 0,178,179
 519 723 519 723 538 732 c 0,180,181
 555 740 555 740 574 740 c 0,182,183
 576 740 576 740 578 740 c 0,184,185
 619 740 619 740 649 702 c 0,186,187
 663 684 663 684 666 657 c 0,188,189
 667 648 667 648 667 638 c 0,190,191
 667 635 667 635 667 632 c 0,192,193
 668 624 668 624 664 604 c 0,194,195
 657 568 657 568 651 552 c 0,196,197
 642 527 642 527 635 509 c 0,0,1
636 692 m 0,198,199
 626 708 626 708 620 713 c 0,200,201
 611 720 611 720 596 726 c 0,202,203
 585 730 585 730 572 726 c 128,-1,204
 559 722 559 722 548 713 c 128,-1,205
 537 704 537 704 527.5 693 c 128,-1,206
 518 682 518 682 512 673 c 0,207,208
 495 650 495 650 483 619 c 128,-1,209
 471 588 471 588 462 554 c 128,-1,210
 453 520 453 520 447 487.5 c 128,-1,211
 441 455 441 455 436 430 c 0,212,213
 432 415 432 415 428.5 400 c 128,-1,214
 425 385 425 385 421 369 c 0,215,216
 420 364 420 364 418 357.5 c 128,-1,217
 416 351 416 351 418 346 c 0,218,219
 419 344 419 344 423 344 c 128,-1,220
 427 344 427 344 431 345.5 c 128,-1,221
 435 347 435 347 439 348.5 c 128,-1,222
 443 350 443 350 445 350 c 0,223,224
 473 361 473 361 501 380 c 128,-1,225
 529 399 529 399 548 420 c 0,226,227
 567 443 567 443 585 469 c 0,228,229
 605 499 605 499 616 522 c 0,230,231
 636 564 636 564 646 606 c 0,232,233
 648 609 648 609 649 634 c 4,234,235
 649 636.741315286 649 636.741315286 648.736215644 639.396218087 c 0,236,237
 645 677 645 677 636 692 c 0,198,199
148 32 m 0,238,239
 147.217391304 26.1304347826 147.217391304 26.1304347826 147.217391304 20.9073724008 c 0,240,241
 147.217391304 -13.9130434783 147.217391304 -13.9130434783 182 -20 c 0,242,243
 185.677419355 -20.5806451613 185.677419355 -20.5806451613 189.14880333 -20.5806451613 c 0,244,245
 203.612903226 -20.5806451613 203.612903226 -20.5806451613 214.5 -10.5 c 0,246,247
 228 2 228 2 238 16 c 0,248,249
 239 17 239 17 242 22 c 128,-1,250
 245 27 245 27 247.5 32 c 128,-1,251
 250 37 250 37 251.5 41.5 c 128,-1,252
 253 46 253 46 250 47 c 0,253,254
 239 51 239 51 229 54 c 128,-1,255
 219 57 219 57 209 60 c 0,256,257
 208 60 208 60 199.5 60.5 c 128,-1,258
 191 61 191 61 180.5 58.5 c 128,-1,259
 170 56 170 56 160.5 50 c 128,-1,260
 151 44 151 44 148 32 c 0,238,239
EndSplineSet
Validated: 524321
EndChar

StartChar: a
Encoding: 97 97 12
Width: 343
Flags: W
LayerCount: 2
Back
Fore
SplineSet
12 154 m 0,0,1
 17 168 17 168 21 182.5 c 128,-1,2
 25 197 25 197 32 211 c 0,3,4
 45 240 45 240 61.5 264.5 c 128,-1,5
 78 289 78 289 102 310 c 0,6,7
 123 329 123 329 148.5 342 c 0,8,9
 172.178571429 354.071428571 172.178571429 354.071428571 198.875 354.071428571 c 0,10,11
 200.928571429 354.071428571 200.928571429 354.071428571 203 354 c 0,12,13
 215 353 215 353 229 348 c 0,14,15
 235 345 235 345 238.5 343.5 c 128,-1,16
 242 342 242 342 248 347 c 0,17,18
 254 351 254 351 260.5 356.5 c 128,-1,19
 267 362 267 362 274 366.5 c 128,-1,20
 281 371 281 371 288 372.5 c 128,-1,21
 295 374 295 374 303 371 c 0,22,23
 313 367 313 367 309.5 354.5 c 128,-1,24
 306 342 306 342 297 327 c 128,-1,25
 288 312 288 312 278 298.5 c 128,-1,26
 268 285 268 285 265 281 c 0,27,28
 249 253 249 253 243.5 220.5 c 128,-1,29
 238 188 238 188 232 158 c 0,30,31
 226 126 226 126 223.5 93 c 0,32,33
 223.068965517 87.3103448276 223.068965517 87.3103448276 223.068965517 81.6801426873 c 0,34,35
 223.068965517 54.6551724138 223.068965517 54.6551724138 233 29 c 0,36,37
 238 17 238 17 246.5 8.5 c 128,-1,38
 255 0 255 0 269 4 c 0,39,40
 283 9 283 9 293 18 c 128,-1,41
 303 27 303 27 310 38 c 0,42,43
 320 54 320 54 328 70 c 128,-1,44
 336 86 336 86 342 103 c 0,45,46
 345 112 345 112 348 124.5 c 128,-1,47
 351 137 351 137 354.5 148 c 128,-1,48
 358 159 358 159 362 167 c 128,-1,49
 366 175 366 175 370 175 c 0,50,51
 373 175 373 175 372 168.5 c 128,-1,52
 371 162 371 162 368.5 153.5 c 128,-1,53
 366 145 366 145 362.5 136 c 128,-1,54
 359 127 359 127 357 121 c 0,55,56
 353 109 353 109 349 96 c 128,-1,57
 345 83 345 83 339 71 c 256,58,59
 333 59 333 59 326.5 47 c 128,-1,60
 320 35 320 35 312 24 c 128,-1,61
 304 13 304 13 294 4.5 c 128,-1,62
 284 -4 284 -4 270 -8 c 0,63,64
 262 -11 262 -11 249.5 -9 c 128,-1,65
 237 -7 237 -7 229 -4 c 0,66,67
 218 1 218 1 210.5 9.5 c 128,-1,68
 203 18 203 18 197 28 c 0,69,70
 185 49 185 49 182 72 c 0,71,72
 180 86 180 86 182 100 c 128,-1,73
 184 114 184 114 179 127 c 1,74,75
 165 111 165 111 156.5 89.5 c 128,-1,76
 148 68 148 68 136 50 c 0,77,78
 126 35 126 35 111.5 20 c 128,-1,79
 97 5 97 5 79 2 c 0,80,81
 72.6 0.8 72.6 0.8 66.04 0.8 c 0,82,83
 56.2 0.8 56.2 0.8 46 3.5 c 0,84,85
 29 8 29 8 19 22 c 0,86,87
 14 29 14 29 12 37 c 128,-1,88
 10 45 10 45 8 53 c 0,89,90
 2.47619047619 83.9333333333 2.47619047619 83.9333333333 2.47619047619 106.199546485 c 128,-1,91
 2.47619047619 128.285714286 2.47619047619 128.285714286 12 154 c 0,0,1
62 19 m 0,92,93
 68 11 68 11 80 16 c 128,-1,94
 92 21 92 21 100 26 c 0,95,96
 120 40 120 40 131.5 64.5 c 128,-1,97
 143 89 143 89 154 111 c 0,98,99
 161 123 161 123 166.5 135.5 c 128,-1,100
 172 148 172 148 176 162 c 0,101,102
 180 174 180 174 186 185.5 c 128,-1,103
 192 197 192 197 195 209 c 0,104,105
 202 235 202 235 208 262 c 128,-1,106
 214 289 214 289 227 313 c 0,107,108
 229 317 229 317 232 322 c 128,-1,109
 235 327 235 327 235 331 c 0,110,111
 234 336 234 336 228.5 337 c 128,-1,112
 223 338 223 338 220 339 c 0,113,114
 210 341 210 341 199.5 338.5 c 128,-1,115
 189 336 189 336 180 332 c 0,116,117
 169 327 169 327 161.5 319.5 c 128,-1,118
 154 312 154 312 146 304 c 0,119,120
 136 293 136 293 127.5 283 c 128,-1,121
 119 273 119 273 111 261 c 0,122,123
 105 250 105 250 98 239 c 128,-1,124
 91 228 91 228 85 217 c 0,125,126
 79 205 79 205 75.5 192.5 c 128,-1,127
 72 180 72 180 67 167 c 0,128,129
 47 112 47 112 43.5 78 c 0,130,131
 43.0196078431 73.3333333333 43.0196078431 73.3333333333 43.0196078431 68.8362168397 c 0,132,133
 43.0196078431 40.568627451 43.0196078431 40.568627451 62 19 c 0,92,93
292 338 m 0,134,135
 295 343 295 343 298.5 348.5 c 128,-1,136
 302 354 302 354 301 361 c 1,137,138
 290 355 290 355 285 343 c 0,139,140
 283 338 283 338 280.5 330.5 c 128,-1,141
 278 323 278 323 280 318 c 1,142,143
 282 320 282 320 286 326.5 c 128,-1,144
 290 333 290 333 292 338 c 0,134,135
EndSplineSet
Validated: 524289
EndChar

StartChar: b
Encoding: 98 98 13
Width: 327
Flags: W
LayerCount: 2
Back
Fore
SplineSet
24 333 m 0,0,1
 30 365 30 365 37.5 397 c 128,-1,2
 45 429 45 429 56 458 c 0,3,4
 67 490 67 490 80.5 517 c 128,-1,5
 94 544 94 544 108 572 c 0,6,7
 123 600 123 600 142 626 c 128,-1,8
 161 652 161 652 184 671 c 0,9,10
 193 678 193 678 204.5 686 c 128,-1,11
 216 694 216 694 228.5 699 c 128,-1,12
 241 704 241 704 254 703.5 c 128,-1,13
 267 703 267 703 278 694 c 0,14,15
 288 685 288 685 290 672 c 128,-1,16
 292 659 292 659 289 645 c 128,-1,17
 286 631 286 631 281 617 c 128,-1,18
 276 603 276 603 273 593 c 0,19,20
 262 563 262 563 247.5 534 c 128,-1,21
 233 505 233 505 219 476 c 0,22,23
 208 453 208 453 195.5 429 c 128,-1,24
 183 405 183 405 169 385 c 0,25,26
 153 362 153 362 136.5 338.5 c 128,-1,27
 120 315 120 315 102 294 c 0,28,29
 93 283 93 283 83 273.5 c 128,-1,30
 73 264 73 264 62 254 c 0,31,32
 53 246 53 246 53 229 c 128,-1,33
 53 212 53 212 51 200 c 0,34,35
 49 185 49 185 48 170 c 128,-1,36
 47 155 47 155 46 140 c 0,37,38
 45 126 45 126 43.5 111 c 128,-1,39
 42 96 42 96 47 83 c 1,40,41
 52 89 52 89 55 96 c 128,-1,42
 58 103 58 103 60 111 c 0,43,44
 80 158 80 158 101.5 202 c 128,-1,45
 123 246 123 246 152 284 c 0,46,47
 163 298 163 298 176 313 c 128,-1,48
 189 328 189 328 205 336 c 0,49,50
 218 343 218 343 233.5 342 c 128,-1,51
 249 341 249 341 260 330 c 0,52,53
 273 316 273 316 278 300.5 c 128,-1,54
 283 285 283 285 287 268 c 0,55,56
 289.5 252 289.5 252 289.5 236.375 c 128,-1,57
 289.5 220.75 289.5 220.75 287 205.5 c 0,58,59
 282 175 282 175 273 147 c 0,60,61
 270 139 270 139 266.5 131 c 128,-1,62
 263 123 263 123 261 115 c 1,63,64
 269 116 269 116 276 119.5 c 128,-1,65
 283 123 283 123 291 127 c 0,66,67
 306 134 306 134 323 144 c 0,68,69
 331 148 331 148 337.5 152 c 128,-1,70
 344 156 344 156 349 162 c 256,71,72
 354 168 354 168 359.5 176.5 c 128,-1,73
 365 185 365 185 371 180 c 0,74,75
 376 176 376 176 373.5 171.5 c 128,-1,76
 371 167 371 167 365.5 161.5 c 128,-1,77
 360 156 360 156 353 151.5 c 128,-1,78
 346 147 346 147 342 143 c 0,79,80
 330 135 330 135 317.5 127 c 128,-1,81
 305 119 305 119 292 113 c 0,82,83
 280 108 280 108 267 104.5 c 128,-1,84
 254 101 254 101 246 90 c 0,85,86
 238 77 238 77 230.5 64 c 128,-1,87
 223 51 223 51 212 40 c 0,88,89
 202 30 202 30 191.5 21.5 c 128,-1,90
 181 13 181 13 168 8 c 256,91,92
 155 3 155 3 139 -1.5 c 128,-1,93
 123 -6 123 -6 109 0 c 0,94,95
 99 4 99 4 94.5 13.5 c 128,-1,96
 90 23 90 23 94 33 c 0,97,98
 98 47 98 47 107 54.5 c 128,-1,99
 116 62 116 62 128 68 c 256,100,101
 140 74 140 74 153 76.5 c 128,-1,102
 166 79 166 79 177 84 c 0,103,104
 189 90 189 90 193 100 c 128,-1,105
 197 110 197 110 203 121 c 0,106,107
 218 148 218 148 229.5 176 c 128,-1,108
 241 204 241 204 247 234 c 0,109,110
 250 246 250 246 252 261 c 128,-1,111
 254 276 254 276 252.5 289 c 128,-1,112
 251 302 251 302 244 312 c 128,-1,113
 237 322 237 322 222 325 c 0,114,115
 210 327 210 327 200.5 321 c 128,-1,116
 191 315 191 315 184 306 c 0,117,118
 173 294 173 294 162 281.5 c 128,-1,119
 151 269 151 269 142 255 c 0,120,121
 116 211 116 211 93.5 164 c 128,-1,122
 71 117 71 117 60 67 c 0,123,124
 57 54 57 54 54.5 41.5 c 128,-1,125
 52 29 52 29 49 15 c 0,126,127
 47 6 47 6 39.5 6.5 c 128,-1,128
 32 7 32 7 25 9 c 0,129,130
 15 12 15 12 10 19 c 128,-1,131
 5 26 5 26 3 34.5 c 128,-1,132
 1 43 1 43 1 52.5 c 128,-1,133
 1 62 1 62 1 71 c 1,134,-1
 0 71 l 1,135,136
 0 92 0 92 1 123.5 c 128,-1,137
 2 155 2 155 5 191 c 128,-1,138
 8 227 8 227 12.5 264 c 128,-1,139
 17 301 17 301 24 333 c 0,0,1
61 270 m 1,140,141
 72 278 72 278 82 289 c 128,-1,142
 92 300 92 300 101 311 c 0,143,144
 112 323 112 323 120.5 335.5 c 128,-1,145
 129 348 129 348 137 362 c 0,146,147
 154 390 154 390 170.5 418 c 128,-1,148
 187 446 187 446 201 475 c 0,149,150
 208 489 208 489 215 504 c 128,-1,151
 222 519 222 519 229 533 c 0,152,153
 242 558 242 558 254 587 c 128,-1,154
 266 616 266 616 271 642 c 0,155,156
 272 646 272 646 273.5 653.5 c 128,-1,157
 275 661 275 661 275.5 668.5 c 128,-1,158
 276 676 276 676 274.5 682 c 128,-1,159
 273 688 273 688 267 690 c 0,160,161
 256 692 256 692 243.5 684 c 128,-1,162
 231 676 231 676 223 669 c 0,163,164
 202 651 202 651 186 629 c 0,165,166
 166 604 166 604 150.5 579 c 128,-1,167
 135 554 135 554 123 525 c 0,168,169
 112 496 112 496 103.5 466 c 128,-1,170
 95 436 95 436 87 407 c 0,171,172
 83 394 83 394 77.5 374 c 128,-1,173
 72 354 72 354 67.5 333.5 c 128,-1,174
 63 313 63 313 61 295.5 c 128,-1,175
 59 278 59 278 61 270 c 1,140,141
117 12 m 0,176,177
 122 9 122 9 128.5 13.5 c 128,-1,178
 135 18 135 18 139 21 c 0,179,180
 151 31 151 31 160 44.5 c 128,-1,181
 169 58 169 58 174 72 c 1,182,183
 163 72 163 72 151.5 67 c 128,-1,184
 140 62 140 62 129 57 c 0,185,186
 120 53 120 53 114 46.5 c 128,-1,187
 108 40 108 40 107 30 c 0,188,189
 109 17 109 17 117 12 c 0,176,177
EndSplineSet
Validated: 524289
EndChar

StartChar: c
Encoding: 99 99 14
Width: 251
Flags: W
LayerCount: 2
Back
Fore
SplineSet
71 66 m 0,0,1
 73 54 73 54 77.5 42.5 c 128,-1,2
 82 31 82 31 93 23 c 128,-1,3
 104 15 104 15 117 15 c 128,-1,4
 130 15 130 15 142.5 19.5 c 128,-1,5
 155 24 155 24 166 31.5 c 128,-1,6
 177 39 177 39 186 47 c 0,7,8
 209 65 209 65 226 89.5 c 128,-1,9
 243 114 243 114 254 140 c 0,10,11
 256 146 256 146 259 154 c 128,-1,12
 262 162 262 162 265 169 c 128,-1,13
 268 176 268 176 271.5 180.5 c 128,-1,14
 275 185 275 185 278 183 c 0,15,16
 282 180 282 180 281 173 c 128,-1,17
 280 166 280 166 277 158 c 128,-1,18
 274 150 274 150 270 141.5 c 128,-1,19
 266 133 266 133 263 127 c 0,20,21
 250 100 250 100 232.5 73.5 c 128,-1,22
 215 47 215 47 189 30 c 0,23,24
 164 13 164 13 135 4.5 c 0,25,26
 121.675675676 0.594594594595 121.675675676 0.594594594595 108.140248356 0.594594594595 c 0,27,28
 92.2162162162 0.594594594595 92.2162162162 0.594594594595 76 6 c 0,29,30
 47 15 47 15 31 37.5 c 128,-1,31
 15 60 15 60 9 87.5 c 0,32,33
 4.2 109.5 4.2 109.5 4.2 133.1 c 0,34,35
 4.2 139 4.2 139 4.5 145 c 0,36,37
 6 175 6 175 12 199 c 0,38,39
 17 226 17 226 28 251 c 128,-1,40
 39 276 39 276 53 299 c 0,41,42
 68 322 68 322 87 343.5 c 128,-1,43
 106 365 106 365 130 377 c 0,44,45
 152 388 152 388 178 391 c 0,46,47
 182.588235294 391.529411765 182.588235294 391.529411765 187.083044983 391.529411765 c 0,48,49
 208.058823529 391.529411765 208.058823529 391.529411765 227 380 c 0,50,51
 246 369 246 369 251 346 c 0,52,53
 253 340 253 340 252.5 333.5 c 128,-1,54
 252 327 252 327 251 320 c 0,55,56
 249 310 249 310 247 302 c 128,-1,57
 245 294 245 294 236 297 c 0,58,59
 230 299 230 299 231 305.5 c 128,-1,60
 232 312 232 312 234 319 c 128,-1,61
 236 326 236 326 237 332.5 c 128,-1,62
 238 339 238 339 236 347 c 0,63,64
 234 357 234 357 227.5 367 c 128,-1,65
 221 377 221 377 209 379 c 0,66,67
 198 381 198 381 187 376.5 c 128,-1,68
 176 372 176 372 166 364.5 c 128,-1,69
 156 357 156 357 148 347.5 c 128,-1,70
 140 338 140 338 135 329 c 0,71,72
 119 306 119 306 106.5 280.5 c 128,-1,73
 94 255 94 255 83 229 c 0,74,75
 78 216 78 216 74 203.5 c 128,-1,76
 70 191 70 191 68 177 c 0,77,78
 66 171 66 171 65.5 165 c 128,-1,79
 65 159 65 159 64 153 c 0,80,81
 64 148 64 148 64.5 138 c 0,82,83
 64.9856614881 128.286770238 64.9856614881 128.286770238 60.2822471935 128.008223717 c 1,84,85
 60.5312694171 127.078018206 60.5312694171 127.078018206 61 124.5 c 0,86,87
 62 119 62 119 63.5 109 c 128,-1,88
 65 99 65 99 67 87.5 c 128,-1,89
 69 76 69 76 71 66 c 0,0,1
EndSplineSet
Validated: 524289
EndChar

StartChar: r
Encoding: 114 114 15
Width: 268
Flags: W
LayerCount: 2
Back
Fore
SplineSet
122 121 m 0,0,1
 123 133 123 133 125.5 145 c 128,-1,2
 128 157 128 157 129 168 c 0,3,4
 130 178 130 178 134 189.5 c 128,-1,5
 138 201 138 201 141.5 212.5 c 128,-1,6
 145 224 145 224 148 235 c 128,-1,7
 151 246 151 246 150 254 c 1,8,9
 140 249 140 249 133 235.5 c 128,-1,10
 126 222 126 222 119 213 c 0,11,12
 110 202 110 202 99.5 191 c 128,-1,13
 89 180 89 180 78 169 c 0,14,15
 71 162 71 162 59 153.5 c 128,-1,16
 47 145 47 145 35 141.5 c 128,-1,17
 23 138 23 138 13.5 142.5 c 128,-1,18
 4 147 4 147 2 165 c 0,19,20
 1.37931034483 171.620689655 1.37931034483 171.620689655 1.37931034483 178.177170036 c 0,21,22
 1.37931034483 203.310344828 1.37931034483 203.310344828 10.5 227.5 c 0,23,24
 22 258 22 258 28 289 c 0,25,26
 31 304 31 304 35.5 320.5 c 0,27,28
 39.1818181818 334 39.1818181818 334 39.1818181818 346.495867769 c 0,29,30
 39.1818181818 349.272727273 39.1818181818 349.272727273 39 352 c 0,31,32
 38 366 38 366 44.5 372.5 c 128,-1,33
 51 379 51 379 65 374 c 0,34,35
 80 369 80 369 84.5 358 c 128,-1,36
 89 347 89 347 88.5 333 c 128,-1,37
 88 319 88 319 83.5 305 c 128,-1,38
 79 291 79 291 76 281 c 0,39,40
 71 266 71 266 66 251.5 c 128,-1,41
 61 237 61 237 58 222 c 0,42,43
 57 218 57 218 55.5 210.5 c 128,-1,44
 54 203 54 203 54 196 c 128,-1,45
 54 189 54 189 57 185.5 c 128,-1,46
 60 182 60 182 69 186 c 0,47,48
 79 191 79 191 91 203 c 128,-1,49
 103 215 103 215 114.5 229.5 c 128,-1,50
 126 244 126 244 136 258.5 c 128,-1,51
 146 273 146 273 152 282 c 0,52,53
 158 292 158 292 164.5 303.5 c 128,-1,54
 171 315 171 315 182 319 c 0,55,56
 191 321 191 321 201.5 318 c 128,-1,57
 212 315 212 315 214 304 c 0,58,59
 215 296 215 296 212.5 281 c 128,-1,60
 210 266 210 266 206 249.5 c 128,-1,61
 202 233 202 233 197.5 218.5 c 128,-1,62
 193 204 193 204 192 197 c 0,63,64
 187 168 187 168 182.5 139 c 128,-1,65
 178 110 178 110 173 81 c 0,66,67
 171 67 171 67 170 55 c 128,-1,68
 169 43 169 43 177 30 c 0,69,70
 184 18 184 18 193.5 24 c 128,-1,71
 203 30 203 30 211 36 c 0,72,73
 233 53 233 53 248 75 c 128,-1,74
 263 97 263 97 278 119 c 0,75,76
 286 129 286 129 290 140.5 c 128,-1,77
 294 152 294 152 302 162 c 0,78,79
 304 164 304 164 307.5 166.5 c 128,-1,80
 311 169 311 169 313 165 c 256,81,82
 315 161 315 161 312 155.5 c 128,-1,83
 309 150 309 150 307 147 c 0,84,85
 292 121 292 121 275.5 94.5 c 128,-1,86
 259 68 259 68 239 45 c 0,87,88
 225 28 225 28 203 13 c 0,89,90
 188.652173913 3.21739130435 188.652173913 3.21739130435 173.4536862 3.21739130435 c 0,91,92
 165.347826087 3.21739130435 165.347826087 3.21739130435 157 6 c 0,93,94
 141 13 141 13 131 31 c 0,95,96
 117.162162162 50.8918918919 117.162162162 50.8918918919 117.162162162 69.2878013148 c 0,97,98
 117.162162162 72.1621621622 117.162162162 72.1621621622 117.5 75 c 0,99,100
 120 96 120 96 122 121 c 0,0,1
EndSplineSet
Validated: 524289
EndChar

StartChar: M
Encoding: 77 77 16
Width: 866
Flags: W
LayerCount: 2
Back
Fore
SplineSet
814 530 m 0,0,1
 818 534 818 534 823.5 542 c 128,-1,2
 829 550 829 550 833.5 557 c 0,3,4
 836.433471319 561.563177608 836.433471319 561.563177608 838.304564397 564.426552749 c 0,5,6
 853.137124282 585.20822314 853.137124282 585.20822314 866.5 605.5 c 0,7,8
 880 626 880 626 884 652 c 0,9,10
 885 662 885 662 881.5 667.5 c 128,-1,11
 878 673 878 673 867 674 c 0,12,13
 858 675 858 675 849 671 c 128,-1,14
 840 667 840 667 833 662 c 0,15,16
 820 652 820 652 810.5 638 c 128,-1,17
 801 624 801 624 793.5 608 c 128,-1,18
 786 592 786 592 780 574.5 c 128,-1,19
 774 557 774 557 768 541 c 0,20,21
 763 529 763 529 759.5 528.5 c 128,-1,22
 756 528 756 528 745 534 c 1,23,24
 746 530 746 530 747 525 c 128,-1,25
 748 520 748 520 751 518 c 0,26,27
 756 516 756 516 758.5 516.5 c 128,-1,28
 761 517 761 517 759 509 c 0,29,30
 755 497 755 497 750.5 484.5 c 128,-1,31
 746 472 746 472 745 459 c 1,32,33
 758 464 758 464 766 475.5 c 128,-1,34
 774 487 774 487 788 490 c 1,35,36
 786 480 786 480 778.5 472 c 128,-1,37
 771 464 771 464 764 456 c 0,38,39
 757 449 757 449 750.5 442.5 c 128,-1,40
 744 436 744 436 739 428 c 0,41,42
 730 410 730 410 723.5 376.5 c 128,-1,43
 717 343 717 343 713 305 c 128,-1,44
 709 267 709 267 708 231 c 128,-1,45
 707 195 707 195 707 173 c 0,46,47
 707 157 707 157 708.5 137.5 c 128,-1,48
 710 118 710 118 715 98.5 c 128,-1,49
 720 79 720 79 728.5 61 c 128,-1,50
 737 43 737 43 751 31 c 0,51,52
 768 17 768 17 787.5 15 c 0,53,54
 793.071428571 14.4285714286 793.071428571 14.4285714286 798.683673469 14.4285714286 c 0,55,56
 812.714285714 14.4285714286 812.714285714 14.4285714286 827 18 c 0,57,58
 838 20 838 20 846 27.5 c 128,-1,59
 854 35 854 35 861 43 c 128,-1,60
 868 51 868 51 874.5 61.5 c 128,-1,61
 881 72 881 72 889 65 c 0,62,63
 896 59 896 59 889.5 52 c 128,-1,64
 883 45 883 45 877 38 c 0,65,66
 867 26 867 26 857 20 c 0,67,68
 835 5 835 5 804 3 c 0,69,70
 800.818181818 2.81818181818 800.818181818 2.81818181818 797.694214876 2.81818181818 c 0,71,72
 766.454545455 2.81818181818 766.454545455 2.81818181818 741 21 c 0,73,74
 730 29 730 29 721.5 42.5 c 128,-1,75
 713 56 713 56 705 67 c 0,76,77
 687 96 687 96 680.5 135.5 c 128,-1,78
 674 175 674 175 671 214 c 0,79,80
 670 234 670 234 670 254 c 128,-1,81
 670 274 670 274 672 294 c 0,82,83
 672 311 672 311 675 327 c 128,-1,84
 678 343 678 343 679 361 c 1,85,86
 667 353 667 353 656.5 341.5 c 128,-1,87
 646 330 646 330 636 320 c 0,88,89
 622 301 622 301 605 284 c 128,-1,90
 588 267 588 267 571 248 c 0,91,92
 562 237 562 237 552 226.5 c 128,-1,93
 542 216 542 216 532 205 c 0,94,95
 524 196 524 196 531 181.5 c 128,-1,96
 538 167 538 167 541 157 c 0,97,98
 545.413793103 143.75862069 545.413793103 143.75862069 545.413793103 129.451843044 c 0,99,100
 545.413793103 117.827586207 545.413793103 117.827586207 542.5 105.5 c 0,101,102
 536 78 536 78 515 61 c 0,103,104
 507 55 507 55 495.5 52 c 128,-1,105
 484 49 484 49 474 53 c 0,106,107
 463 57 463 57 458 69 c 128,-1,108
 453 81 453 81 452 92 c 0,109,110
 451 105 451 105 455 117 c 128,-1,111
 459 129 459 129 466 140 c 0,112,113
 468 143 468 143 472 148 c 128,-1,114
 476 153 476 153 480 159 c 128,-1,115
 484 165 484 165 486 170.5 c 128,-1,116
 488 176 488 176 486 181 c 0,117,118
 469 223 469 223 449 262 c 128,-1,119
 429 301 429 301 410 343 c 0,120,121
 404 354 404 354 398.5 367.5 c 128,-1,122
 393 381 393 381 385 391 c 1,123,124
 373 351 373 351 358 313.5 c 128,-1,125
 343 276 343 276 327 236 c 0,126,127
 310 201 310 201 295 165.5 c 128,-1,128
 280 130 280 130 256 96 c 0,129,130
 242 76 242 76 223.5 55 c 128,-1,131
 205 34 205 34 183 18 c 0,132,133
 172 10 172 10 158.5 6 c 128,-1,134
 145 2 145 2 131 0 c 128,-1,135
 117 -2 117 -2 105 -3 c 128,-1,136
 93 -4 93 -4 79 1 c 0,137,138
 67 5 67 5 55.5 11.5 c 128,-1,139
 44 18 44 18 36 27 c 0,140,141
 29 34 29 34 22.5 45.5 c 128,-1,142
 16 57 16 57 11.5 70 c 128,-1,143
 7 83 7 83 6 96.5 c 128,-1,144
 5 110 5 110 8 121 c 0,145,146
 13 134 13 134 17.5 143 c 128,-1,147
 22 152 22 152 27 159 c 128,-1,148
 32 166 32 166 38.5 173.5 c 128,-1,149
 45 181 45 181 54 193 c 0,150,151
 61 202 61 202 72 207.5 c 128,-1,152
 83 213 83 213 95.5 214.5 c 128,-1,153
 108 216 108 216 120.5 214 c 128,-1,154
 133 212 133 212 142 206 c 0,155,156
 164 193 164 193 172 170 c 0,157,158
 174 160 174 160 172 145.5 c 128,-1,159
 170 131 170 131 159 128 c 0,160,161
 152 126 152 126 150.5 129.5 c 128,-1,162
 149 133 149 133 150 139 c 128,-1,163
 151 145 151 145 153 151.5 c 128,-1,164
 155 158 155 158 155 161 c 0,165,166
 156 172 156 172 151 181 c 128,-1,167
 146 190 146 190 138 195 c 0,168,169
 124 204.8 124 204.8 107.795 204.8 c 0,170,171
 100.85 204.8 100.85 204.8 93.5 203 c 0,172,173
 69 197 69 197 53 181 c 0,174,175
 41 168 41 168 32.5 151 c 128,-1,176
 24 134 24 134 19 117 c 0,177,178
 15.9523809524 105.571428571 15.9523809524 105.571428571 15.9523809524 94.9410430839 c 0,179,180
 15.9523809524 77.6666666667 15.9523809524 77.6666666667 24 62.5 c 0,181,182
 37 38 37 38 60.5 24 c 128,-1,183
 84 10 84 10 113 8 c 0,184,185
 116.625 7.75 116.625 7.75 120.171875 7.75 c 0,186,187
 145 7.75 145 7.75 166 20 c 0,188,189
 189 34 189 34 207 55 c 128,-1,190
 225 76 225 76 239 99 c 0,191,192
 254 124 254 124 267.5 152 c 128,-1,193
 281 180 281 180 295 209 c 0,194,195
 308 239 308 239 320.5 269.5 c 128,-1,196
 333 300 333 300 345 331 c 0,197,198
 353 349 353 349 359.5 367.5 c 128,-1,199
 366 386 366 386 373 406 c 0,200,201
 378 420 378 420 369.5 436 c 128,-1,202
 361 452 361 452 355 465 c 0,203,204
 338 507 338 507 321 549 c 128,-1,205
 304 591 304 591 293 645 c 0,206,207
 290 662 290 662 287.5 678 c 128,-1,208
 285 694 285 694 283 711 c 0,209,210
 282 720.5 282 720.5 282 730.25 c 128,-1,211
 282 740 282 740 283 750 c 0,212,213
 285 770 285 770 292 789 c 128,-1,214
 299 808 299 808 311.5 824 c 128,-1,215
 324 840 324 840 344 852 c 0,216,217
 355 858 355 858 371 859 c 128,-1,218
 387 860 387 860 399 857 c 0,219,220
 412 853 412 853 421.5 844 c 128,-1,221
 431 835 431 835 438 824 c 0,222,223
 453 798 453 798 453.5 766 c 0,224,225
 453.571428571 761.428571429 453.571428571 761.428571429 453.571428571 756.918367347 c 0,226,227
 453.571428571 729.857142857 453.571428571 729.857142857 451 705 c 0,228,229
 447 673 447 673 442.5 641.5 c 128,-1,230
 438 610 438 610 430 578 c 0,231,232
 425 561 425 561 421.5 544.5 c 128,-1,233
 418 528 418 528 414 511 c 0,234,235
 412 503 412 503 410.5 495 c 128,-1,236
 409 487 409 487 407 479 c 0,237,238
 405 473 405 473 408.5 466 c 128,-1,239
 412 459 412 459 414 453 c 0,240,241
 432 407 432 407 455 363.5 c 128,-1,242
 478 320 478 320 497 271 c 0,243,244
 500 263 500 263 503.5 256 c 128,-1,245
 507 249 507 249 510 241 c 0,246,247
 512 238 512 238 515 228 c 128,-1,248
 518 218 518 218 523 216 c 0,249,250
 529 214 529 214 534 221.5 c 128,-1,251
 539 229 539 229 542 233 c 0,252,253
 547 239 547 239 553 245 c 128,-1,254
 559 251 559 251 564 257 c 0,255,256
 579 274 579 274 593 292 c 128,-1,257
 607 310 607 310 625 328 c 0,258,259
 635 339 635 339 645 348.5 c 128,-1,260
 655 358 655 358 665 368 c 0,261,262
 683 384 683 384 689 409 c 0,263,264
 694 423 694 423 697.5 437 c 128,-1,265
 701 451 701 451 706 465 c 0,266,267
 707 469 707 469 708.5 475.5 c 128,-1,268
 710 482 710 482 712 488.5 c 128,-1,269
 714 495 714 495 717.5 499 c 128,-1,270
 721 503 721 503 727 502 c 0,271,272
 735 500 735 500 732 496 c 128,-1,273
 729 492 729 492 732 488 c 0,274,275
 735 485 735 485 740 484 c 128,-1,276
 745 483 745 483 745 490 c 0,277,278
 745 500 745 500 738 505 c 0,279,280
 736 507 736 507 730.5 506 c 128,-1,281
 725 505 725 505 724 508 c 0,282,283
 723 513 723 513 727 520.5 c 128,-1,284
 731 528 731 528 733 533 c 0,285,286
 749 565 749 565 765.5 596.5 c 128,-1,287
 782 628 782 628 805 658 c 0,288,289
 811 665 811 665 822 672.5 c 128,-1,290
 833 680 833 680 845 684 c 128,-1,291
 857 688 857 688 868.5 686.5 c 128,-1,292
 880 685 880 685 888 676 c 0,293,294
 897 665 897 665 897.5 652.5 c 128,-1,295
 898 640 898 640 893 628 c 128,-1,296
 888 616 888 616 880 604 c 128,-1,297
 872 592 872 592 865 583 c 0,298,299
 856 571 856 571 847 558 c 128,-1,300
 838 545 838 545 829 532 c 0,301,302
 821 522 821 522 813.5 511 c 128,-1,303
 806 500 806 500 795 493 c 1,304,305
 793 500 793 500 793.5 502.5 c 128,-1,306
 794 505 794 505 799 511 c 0,307,308
 803 516 803 516 806.5 520.5 c 128,-1,309
 810 525 810 525 814 530 c 0,0,1
398 501 m 1,310,311
 413 556 413 556 423.5 608.5 c 128,-1,312
 434 661 434 661 439 714 c 0,313,314
 441 735 441 735 441 763.5 c 128,-1,315
 441 792 441 792 429 812 c 0,316,317
 420 829 420 829 403.5 840 c 0,318,319
 394.857142857 845.761904762 394.857142857 845.761904762 385.528344671 845.761904762 c 0,320,321
 377.047619048 845.761904762 377.047619048 845.761904762 368 841 c 0,322,323
 348 831 348 831 340 813.5 c 128,-1,324
 332 796 332 796 330 776 c 0,325,326
 329 764 329 764 328 752.5 c 128,-1,327
 327 741 327 741 329 730 c 0,328,329
 340 682 340 682 352.5 636 c 128,-1,330
 365 590 365 590 383 541 c 0,331,332
 386 531 386 531 389.5 520.5 c 128,-1,333
 393 510 393 510 398 501 c 1,310,311
475 70 m 0,334,335
 493 68 493 68 500.5 77.5 c 128,-1,336
 508 87 508 87 508.5 100.5 c 128,-1,337
 509 114 509 114 505.5 128 c 128,-1,338
 502 142 502 142 499 149 c 0,339,340
 494 163 494 163 486 149 c 0,341,342
 482 143 482 143 478.5 137 c 128,-1,343
 475 131 475 131 473 125 c 0,344,345
 470 119 470 119 468 111.5 c 128,-1,346
 466 104 466 104 465 96 c 128,-1,347
 464 88 464 88 466.5 81 c 128,-1,348
 469 74 469 74 475 70 c 0,334,335
838.304564397 564.426552749 m 0,349,350
 839.303763824 565.955648335 839.303763824 565.955648335 840 567 c 2,351,-1
 838 564 l 2,352,353
 838.152358972 564.213302561 838.152358972 564.213302561 838.304564397 564.426552749 c 0,349,350
EndSplineSet
Validated: 524293
EndChar

StartChar: N
Encoding: 78 78 17
Width: 608
Flags: W
LayerCount: 2
Back
Fore
SplineSet
641 601 m 0,0,1
 633 587 633 587 627 572 c 128,-1,2
 621 557 621 557 616 542 c 0,3,4
 600 492 600 492 582.5 445 c 128,-1,5
 565 398 565 398 551 349 c 0,6,7
 542 317 542 317 534.5 285 c 128,-1,8
 527 253 527 253 518 221 c 0,9,10
 516 214 516 214 513.5 207 c 128,-1,11
 511 200 511 200 511 193 c 0,12,13
 512 185 512 185 514.5 178.5 c 128,-1,14
 517 172 517 172 519 166 c 0,15,16
 525 150 525 150 531 134 c 128,-1,17
 537 118 537 118 543 103 c 0,18,19
 548 92 548 92 553 77.5 c 128,-1,20
 558 63 558 63 559.5 49 c 128,-1,21
 561 35 561 35 557 22.5 c 128,-1,22
 553 10 553 10 540 3 c 0,23,24
 525 -5 525 -5 513 -2 c 128,-1,25
 501 1 501 1 492.5 10 c 128,-1,26
 484 19 484 19 478.5 32.5 c 128,-1,27
 473 46 473 46 470 59 c 0,28,29
 466.153846154 77.4615384615 466.153846154 77.4615384615 466.153846154 96.2189349112 c 0,30,31
 466.153846154 101.846153846 466.153846154 101.846153846 466.5 107.5 c 0,32,33
 468 132 468 132 472 156 c 0,34,35
 474 169 474 169 476.5 181.5 c 128,-1,36
 479 194 479 194 481 207 c 0,37,38
 483 221 483 221 479 230 c 128,-1,39
 475 239 475 239 470 250 c 0,40,41
 460 273 460 273 450 295 c 128,-1,42
 440 317 440 317 429 340 c 0,43,44
 424 351 424 351 418.5 363 c 128,-1,45
 413 375 413 375 407 387 c 0,46,47
 402 397 402 397 396.5 411 c 128,-1,48
 391 425 391 425 383 433 c 1,49,50
 376 422 376 422 375 405.5 c 128,-1,51
 374 389 374 389 372 376 c 0,52,53
 361 325 361 325 348 276 c 128,-1,54
 335 227 335 227 315 182 c 0,55,56
 303 153 303 153 289.5 123.5 c 128,-1,57
 276 94 276 94 258 69 c 0,58,59
 249 57 249 57 239 46.5 c 128,-1,60
 229 36 229 36 218 26 c 256,61,62
 207 16 207 16 195.5 5 c 128,-1,63
 184 -6 184 -6 170 -13 c 0,64,65
 141 -26 141 -26 113 -32 c 0,66,67
 105.695652174 -33.5652173913 105.695652174 -33.5652173913 98.3232514178 -33.5652173913 c 0,68,69
 77.4347826087 -33.5652173913 77.4347826087 -33.5652173913 56 -21 c 0,70,71
 33 -7 33 -7 18.5 17.5 c 128,-1,72
 4 42 4 42 0 68 c 0,73,74
 -0.486486486486 72.2162162162 -0.486486486486 72.2162162162 -0.486486486486 76.3798392988 c 0,75,76
 -0.486486486486 97.8918918919 -0.486486486486 97.8918918919 12.5 118 c 0,77,78
 28 142 28 142 54 150 c 0,79,80
 64.3870967742 153.161290323 64.3870967742 153.161290323 75.3860561915 153.161290323 c 0,81,82
 88.7419354839 153.161290323 88.7419354839 153.161290323 103 148.5 c 0,83,84
 129 140 129 140 137 115 c 0,85,86
 138 113 138 113 139 107 c 128,-1,87
 140 101 140 101 139.5 95 c 128,-1,88
 139 89 139 89 137 85 c 128,-1,89
 135 81 135 81 129 83 c 256,90,91
 123 85 123 85 122 91.5 c 128,-1,92
 121 98 121 98 120 103 c 0,93,94
 119 111 119 111 117.5 117.5 c 128,-1,95
 116 124 116 124 111 130 c 0,96,97
 103 141 103 141 91.5 143.5 c 128,-1,98
 80 146 80 146 68 143 c 128,-1,99
 56 140 56 140 45 133 c 128,-1,100
 34 126 34 126 27 118 c 0,101,102
 17 106 17 106 14 93 c 128,-1,103
 11 80 11 80 12.5 66.5 c 128,-1,104
 14 53 14 53 19.5 39.5 c 128,-1,105
 25 26 25 26 33 15 c 0,106,107
 47 -6 47 -6 68 -15 c 0,108,109
 79.8125 -20.0625 79.8125 -20.0625 92.890625 -20.0625 c 0,110,111
 103.0625 -20.0625 103.0625 -20.0625 114 -17 c 0,112,113
 137 -11 137 -11 158 6.5 c 128,-1,114
 179 24 179 24 191 41 c 0,115,116
 209 65 209 65 222 90 c 128,-1,117
 235 115 235 115 247 142 c 0,118,119
 260 171 260 171 269 201 c 128,-1,120
 278 231 278 231 288 261 c 0,121,122
 298 293 298 293 307 325.5 c 128,-1,123
 316 358 316 358 324 390 c 0,124,125
 331 415 331 415 335 440 c 128,-1,126
 339 465 339 465 347 490 c 0,127,128
 349.25 498.625 349.25 498.625 349.25 506.6875 c 0,129,130
 349.25 520.125 349.25 520.125 343 532 c 0,131,132
 337 545 337 545 332.5 557.5 c 128,-1,133
 328 570 328 570 323 583 c 256,134,135
 318 596 318 596 314 607 c 128,-1,136
 310 618 310 618 309 632 c 0,137,138
 308 641 308 641 308 655.5 c 128,-1,139
 308 670 308 670 316 677 c 0,140,141
 324 686 324 686 333 685.5 c 128,-1,142
 342 685 342 685 350.5 679 c 128,-1,143
 359 673 359 673 365.5 664.5 c 128,-1,144
 372 656 372 656 376 649 c 0,145,146
 387 629 387 629 390 600.5 c 128,-1,147
 393 572 393 572 393 551 c 0,148,149
 392 525 392 525 387.5 498.5 c 0,150,151
 385.88 488.96 385.88 488.96 385.88 479.4848 c 0,152,153
 385.88 462.64 385.88 462.64 391 446 c 0,154,155
 395 434 395 434 401.5 422.5 c 128,-1,156
 408 411 408 411 413 400 c 0,157,158
 426 374 426 374 437.5 348.5 c 128,-1,159
 449 323 449 323 462 297 c 0,160,161
 467 285 467 285 472.5 271.5 c 128,-1,162
 478 258 478 258 486 247 c 1,163,164
 492 261 492 261 495.5 276 c 128,-1,165
 499 291 499 291 503 305 c 2,166,-1
 521 371 l 2,167,168
 538 427 538 427 554.5 467 c 128,-1,169
 571 507 571 507 585 545 c 0,170,171
 596 575 596 575 610.5 603 c 128,-1,172
 625 631 625 631 640 657 c 0,173,174
 648 669 648 669 657 680.5 c 128,-1,175
 666 692 666 692 675 703 c 0,176,177
 692 722 692 722 716.5 736 c 128,-1,178
 741 750 741 750 768 755.5 c 0,179,180
 780.913043478 758.130434783 780.913043478 758.130434783 793.711720227 758.130434783 c 0,181,182
 807.673913043 758.130434783 807.673913043 758.130434783 821.5 755 c 0,183,184
 848 749 848 749 868 730 c 0,185,186
 886 714 886 714 895 692 c 0,187,188
 902.529411765 676 902.529411765 676 902.529411765 659.114186851 c 0,189,190
 902.529411765 640.588235294 902.529411765 640.588235294 896 621 c 0,191,192
 890 603 890 603 880 587.5 c 128,-1,193
 870 572 870 572 859 561 c 0,194,195
 842 542 842 542 815.5 531 c 0,196,197
 793.076923077 521.692307692 793.076923077 521.692307692 772.443786982 521.692307692 c 0,198,199
 768.692307692 521.692307692 768.692307692 521.692307692 765 522 c 0,200,201
 746 524 746 524 729 538.5 c 128,-1,202
 712 553 712 553 706 571 c 0,203,204
 704 576 704 576 702 584 c 128,-1,205
 700 592 700 592 704 597 c 0,206,207
 709 605 709 605 715 599 c 128,-1,208
 721 593 721 593 723 588 c 0,209,210
 729 572 729 572 738.5 558 c 128,-1,211
 748 544 748 544 767 540 c 0,212,213
 776.166666667 537.916666667 776.166666667 537.916666667 784.378472222 537.916666667 c 0,214,215
 795.875 537.916666667 795.875 537.916666667 805.5 542 c 0,216,217
 822 549 822 549 839 563 c 0,218,219
 861 582 861 582 875 604 c 128,-1,220
 889 626 889 626 891.5 648.5 c 0,221,222
 891.962962963 652.666666667 891.962962963 652.666666667 891.962962963 656.781893004 c 0,223,224
 891.962962963 674.888888889 891.962962963 674.888888889 883 692 c 0,225,226
 872 713 872 713 845 730 c 0,227,228
 836 737 836 737 827.5 741 c 128,-1,229
 819 745 819 745 808 747 c 0,230,231
 804.666666667 747.333333333 804.666666667 747.333333333 801.263888889 747.333333333 c 0,232,233
 784.25 747.333333333 784.25 747.333333333 765.5 739 c 0,234,235
 743 729 743 729 720.5 709.5 c 128,-1,236
 698 690 698 690 677 662.5 c 128,-1,237
 656 635 656 635 641 601 c 0,0,1
505 16 m 1,238,239
 517.6 10.6 517.6 10.6 525.88 10.6 c 0,240,241
 531.4 10.6 531.4 10.6 535 13 c 0,242,243
 544 19 544 19 546 32.5 c 128,-1,244
 548 46 548 46 544.5 62 c 128,-1,245
 541 78 541 78 537 90 c 0,246,247
 534 101 534 101 530 110.5 c 128,-1,248
 526 120 526 120 522 130 c 0,249,250
 518 138 518 138 515 147.5 c 128,-1,251
 512 157 512 157 505 163 c 1,252,253
 500 148 500 148 495.5 127.5 c 128,-1,254
 491 107 491 107 489.5 86 c 0,255,256
 489 79 489 79 489 72.2222222222 c 0,257,258
 489 58.6666666667 489 58.6666666667 491 46 c 0,259,260
 494 27 494 27 505 16 c 1,238,239
352 652 m 0,261,262
 350 657 350 657 348 662.5 c 128,-1,263
 346 668 346 668 341 670 c 0,264,265
 327 674 327 674 323 665 c 128,-1,266
 319 656 319 656 320 642.5 c 128,-1,267
 321 629 321 629 324.5 616 c 128,-1,268
 328 603 328 603 330 599 c 0,269,270
 336 584 336 584 341.5 568 c 128,-1,271
 347 552 347 552 355 538 c 1,272,273
 360 550 360 550 360 564.5 c 128,-1,274
 360 579 360 579 361 593 c 1,275,276
 361 591 361 591 360.5 598 c 128,-1,277
 360 605 360 605 358.5 614.5 c 128,-1,278
 357 624 357 624 355.5 635 c 128,-1,279
 354 646 354 646 352 652 c 0,261,262
EndSplineSet
Validated: 524289
EndChar

StartChar: O
Encoding: 79 79 18
Width: 595
Flags: W
LayerCount: 2
Back
Fore
SplineSet
191 20 m 0,0,1
 165 34 165 34 145.5 56 c 128,-1,2
 126 78 126 78 112 103 c 0,3,4
 104 117 104 117 98.5 131.5 c 128,-1,5
 93 146 93 146 88 160 c 0,6,7
 78.4761904762 193.333333333 78.4761904762 193.333333333 78.4761904762 223.038548753 c 0,8,9
 78.4761904762 224.523809524 78.4761904762 224.523809524 78.5 226 c 0,10,11
 79 257 79 257 79 292 c 0,12,13
 81 328 81 328 87.5 360.5 c 128,-1,14
 94 393 94 393 102 424 c 0,15,16
 105 437 105 437 108.5 447.5 c 128,-1,17
 112 458 112 458 97 464 c 0,18,19
 73 474 73 474 54.5 494 c 128,-1,20
 36 514 36 514 24 537 c 0,21,22
 11 562 11 562 5.5 589.5 c 0,23,24
 2.61904761905 603.904761905 2.61904761905 603.904761905 2.61904761905 618.446712018 c 0,25,26
 2.61904761905 631.666666667 2.61904761905 631.666666667 5 645 c 0,27,28
 9 671 9 671 21.5 698 c 128,-1,29
 34 725 34 725 57 739 c 0,30,31
 68 745 68 745 82 749 c 128,-1,32
 96 753 96 753 110 753 c 128,-1,33
 124 753 124 753 137 748 c 128,-1,34
 150 743 150 743 158 732 c 0,35,36
 159 730 159 730 162 725 c 128,-1,37
 165 720 165 720 167 714.5 c 128,-1,38
 169 709 169 709 169 704.5 c 128,-1,39
 169 700 169 700 163 699 c 256,40,41
 157 698 157 698 153 701 c 128,-1,42
 149 704 149 704 146 708.5 c 128,-1,43
 143 713 143 713 140 718.5 c 128,-1,44
 137 724 137 724 133 727 c 0,45,46
 119.378378378 737.594594595 119.378378378 737.594594595 101.46165084 737.594594595 c 0,47,48
 95.7027027027 737.594594595 95.7027027027 737.594594595 89.5 736.5 c 0,49,50
 64 732 64 732 49 716 c 0,51,52
 29 696 29 696 23 667.5 c 128,-1,53
 17 639 17 639 17 612 c 0,54,55
 17 583 17 583 29 555 c 128,-1,56
 41 527 41 527 61 507 c 0,57,58
 71 496 71 496 82.5 488 c 128,-1,59
 94 480 94 480 106 473 c 0,60,61
 112 469 112 469 116.5 473 c 128,-1,62
 121 477 121 477 125 484 c 128,-1,63
 129 491 129 491 131 498.5 c 128,-1,64
 133 506 133 506 135 510 c 0,65,66
 149 537 149 537 165 563 c 128,-1,67
 181 589 181 589 203 610 c 0,68,69
 226 633 226 633 250.5 652 c 128,-1,70
 275 671 275 671 304 686 c 0,71,72
 323.130434783 696.52173913 323.130434783 696.52173913 345.920604915 696.52173913 c 0,73,74
 346.956521739 696.52173913 346.956521739 696.52173913 348 696.5 c 0,75,76
 372 696 372 696 392 682 c 0,77,78
 410 668 410 668 417 643 c 0,79,80
 418 638 418 638 418 632.5 c 128,-1,81
 418 627 418 627 420 622 c 0,82,83
 423 616 423 616 429 613 c 128,-1,84
 435 610 435 610 441 607 c 0,85,86
 467 594 467 594 488.5 575 c 128,-1,87
 510 556 510 556 524 530 c 256,88,89
 538 504 538 504 547 472 c 128,-1,90
 556 440 556 440 558 411 c 0,91,92
 558.4 401.2 558.4 401.2 558.4 391.44 c 0,93,94
 558.4 352.4 558.4 352.4 552 314 c 0,95,96
 544 266 544 266 530 222 c 0,97,98
 525 206 525 206 520 190.5 c 128,-1,99
 515 175 515 175 508 160 c 0,100,101
 482 103 482 103 439.5 60 c 128,-1,102
 397 17 397 17 335 1 c 0,103,104
 314.851851852 -3.74074074074 314.851851852 -3.74074074074 292.9478738 -3.74074074074 c 0,105,106
 277.888888889 -3.74074074074 277.888888889 -3.74074074074 262 -1.5 c 0,107,108
 223 4 223 4 191 20 c 0,0,1
178 440 m 0,109,110
 173 438 173 438 172 432 c 128,-1,111
 171 426 171 426 170 421 c 0,112,113
 161 389 161 389 154 359 c 128,-1,114
 147 329 147 329 145 296 c 0,115,116
 143 279 143 279 142.5 262 c 0,117,118
 142.333333333 256.333333333 142.333333333 256.333333333 142.333333333 250.666666667 c 0,119,120
 142.333333333 239.333333333 142.333333333 239.333333333 143 228 c 0,121,122
 145 197 145 197 149.5 165.5 c 128,-1,123
 154 134 154 134 164 105 c 256,124,125
 174 76 174 76 191.5 52 c 128,-1,126
 209 28 209 28 238 17 c 0,127,128
 262.64 7.32 262.64 7.32 288.0544 7.32 c 0,129,130
 291.52 7.32 291.52 7.32 295 7.5 c 0,131,132
 324 9 324 9 350.5 20 c 128,-1,133
 377 31 377 31 400 49.5 c 128,-1,134
 423 68 423 68 440 91 c 0,135,136
 459 116 459 116 473 141.5 c 128,-1,137
 487 167 487 167 496 198 c 0,138,139
 506 229 506 229 513 260.5 c 128,-1,140
 520 292 520 292 523 324 c 0,141,142
 527 364 527 364 529 403 c 0,143,144
 529.363636364 410.090909091 529.363636364 410.090909091 529.363636364 417.214876033 c 0,145,146
 529.363636364 449.272727273 529.363636364 449.272727273 522 482 c 0,147,148
 514 518 514 518 493.5 548 c 128,-1,149
 473 578 473 578 439 594 c 0,150,151
 434 597 434 597 427 600 c 128,-1,152
 420 603 420 603 417 595 c 0,153,154
 413 585 413 585 409.5 576 c 128,-1,155
 406 567 406 567 401 558 c 0,156,157
 384 523 384 523 354 499 c 0,158,159
 321 474 321 474 285 459 c 0,160,161
 265 450 265 450 251 447.5 c 128,-1,162
 237 445 237 445 225.5 444.5 c 128,-1,163
 214 444 214 444 202.5 444 c 128,-1,164
 191 444 191 444 178 440 c 0,109,110
408 617 m 0,165,166
 412 621 412 621 409 628.5 c 128,-1,167
 406 636 406 636 405 641 c 0,168,169
 401 650 401 650 396 657 c 128,-1,170
 391 664 391 664 382 669 c 0,171,172
 367 677 367 677 348 677 c 128,-1,173
 329 677 329 677 314 669 c 0,174,175
 287 655 287 655 268 634 c 128,-1,176
 249 613 249 613 234.5 588 c 128,-1,177
 220 563 220 563 209 535.5 c 128,-1,178
 198 508 198 508 188 482 c 0,179,180
 187 479 187 479 184.5 473.5 c 128,-1,181
 182 468 182 468 181 462.5 c 128,-1,182
 180 457 180 457 181.5 453.5 c 128,-1,183
 183 450 183 450 190 450 c 0,184,185
 203 451 203 451 217 452 c 128,-1,186
 231 453 231 453 244 455 c 0,187,188
 256 459 256 459 270 464.5 c 128,-1,189
 284 470 284 470 294 476 c 0,190,191
 307 484 307 484 320 492.5 c 128,-1,192
 333 501 333 501 346 509 c 0,193,194
 368 522 368 522 383.5 545 c 128,-1,195
 399 568 399 568 406 592 c 0,196,197
 408 599 408 599 404 601.5 c 128,-1,198
 400 604 400 604 394 604 c 128,-1,199
 388 604 388 604 381.5 602 c 128,-1,200
 375 600 375 600 371 598 c 0,201,202
 366 596 366 596 364 592 c 128,-1,203
 362 588 362 588 357 583 c 256,204,205
 352 578 352 578 345 572 c 128,-1,206
 338 566 338 566 332 569 c 0,207,208
 327 572 327 572 330 576 c 128,-1,209
 333 580 333 580 338 585 c 0,210,211
 342 588 342 588 345.5 592 c 128,-1,212
 349 596 349 596 354 600 c 0,213,214
 364 608 364 608 371 611 c 128,-1,215
 378 614 378 614 383.5 615 c 128,-1,216
 389 616 389 616 394.5 615.5 c 128,-1,217
 400 615 400 615 408 617 c 0,165,166
EndSplineSet
Validated: 524289
EndChar

StartChar: P
Encoding: 80 80 19
Width: 678
Flags: W
LayerCount: 2
Back
Fore
SplineSet
594 840 m 0,0,1
 597 830 597 830 596 818.5 c 128,-1,2
 595 807 595 807 590 798 c 256,3,4
 585 789 585 789 578 779.5 c 128,-1,5
 571 770 571 770 563 764 c 0,6,7
 554 758 554 758 543.5 754 c 128,-1,8
 533 750 533 750 522 747 c 0,9,10
 515 744 515 744 508 743 c 128,-1,11
 501 742 501 742 493 741 c 0,12,13
 487 740 487 740 480 739.5 c 128,-1,14
 473 739 473 739 468 734 c 0,15,16
 462 728 462 728 455.5 713 c 128,-1,17
 449 698 449 698 444 680.5 c 128,-1,18
 439 663 439 663 435 646.5 c 128,-1,19
 431 630 431 630 429 622 c 0,20,21
 428 614 428 614 427 607 c 128,-1,22
 426 600 426 600 424 593 c 0,23,24
 423 586 423 586 420.5 580 c 128,-1,25
 418 574 418 574 418 567 c 1,26,27
 429 575 429 575 438 586 c 128,-1,28
 447 597 447 597 457 608 c 0,29,30
 468 619 468 619 479 629.5 c 128,-1,31
 490 640 490 640 503 649 c 0,32,33
 526 666 526 666 554 678.5 c 128,-1,34
 582 691 582 691 608 698 c 0,35,36
 622 702 622 702 636.5 702 c 128,-1,37
 651 702 651 702 665 697 c 256,38,39
 679 692 679 692 692.5 686 c 128,-1,40
 706 680 706 680 717 670 c 0,41,42
 760 630 760 630 763 575 c 0,43,44
 763.666666667 564.333333333 763.666666667 564.333333333 763.666666667 553.777777778 c 0,45,46
 763.666666667 532.666666667 763.666666667 532.666666667 761 512 c 0,47,48
 757 481 757 481 745 450 c 0,49,50
 734 421 734 421 717.5 393 c 128,-1,51
 701 365 701 365 684 338 c 0,52,53
 676 325 676 325 668.5 313 c 128,-1,54
 661 301 661 301 650 292 c 0,55,56
 639 282 639 282 628.5 273 c 128,-1,57
 618 264 618 264 605 256 c 0,58,59
 578 241 578 241 549 234.5 c 0,60,61
 532.608695652 230.826086957 532.608695652 230.826086957 515.578449905 230.826086957 c 0,62,63
 502.47826087 230.826086957 502.47826087 230.826086957 489 233 c 0,64,65
 466 237 466 237 446 248 c 128,-1,66
 426 259 426 259 415 281 c 0,67,68
 405.058823529 299.352941176 405.058823529 299.352941176 405.058823529 318.875432526 c 0,69,70
 405.058823529 324.882352941 405.058823529 324.882352941 406 331 c 0,71,72
 410 357 410 357 432 375 c 0,73,74
 443 384 443 384 456 384 c 128,-1,75
 469 384 469 384 482 381 c 0,76,77
 488 379 488 379 491.5 377.5 c 128,-1,78
 495 376 495 376 497 370 c 256,79,80
 499 364 499 364 494.5 361 c 128,-1,81
 490 358 490 358 485 360 c 0,82,83
 479 363 479 363 474 366.5 c 128,-1,84
 469 370 469 370 461 370 c 0,85,86
 450 370 450 370 436 361 c 0,87,88
 426 353 426 353 420 344 c 128,-1,89
 414 335 414 335 415 322 c 0,90,91
 417 305 417 305 419.5 296 c 128,-1,92
 422 287 422 287 433 274 c 0,93,94
 441 264 441 264 451.5 256.5 c 128,-1,95
 462 249 462 249 474 245 c 0,96,97
 485.487179487 241.717948718 485.487179487 241.717948718 496.721893491 241.717948718 c 0,98,99
 512.871794872 241.717948718 512.871794872 241.717948718 528.5 248.5 c 0,100,101
 555 260 555 260 575 277 c 0,102,103
 599 298 599 298 617 323.5 c 128,-1,104
 635 349 635 349 648.5 377 c 128,-1,105
 662 405 662 405 671.5 434.5 c 128,-1,106
 681 464 681 464 690 493 c 0,107,108
 699 523 699 523 708 552.5 c 0,109,110
 716.1 579.05 716.1 579.05 716.1 607.625 c 0,111,112
 716.1 610.8 716.1 610.8 716 614 c 0,113,114
 715 648 715 648 693.5 665.5 c 128,-1,115
 672 683 672 683 641 686 c 0,116,117
 634.176470588 686.941176471 634.176470588 686.941176471 627.186851211 686.941176471 c 0,118,119
 604.470588235 686.941176471 604.470588235 686.941176471 580 677 c 0,120,121
 548 664 548 664 524 649 c 0,122,123
 512 641 512 641 501 631.5 c 128,-1,124
 490 622 490 622 479 613 c 0,125,126
 455 592 455 592 436 567 c 0,127,128
 428 556 428 556 420 544 c 128,-1,129
 412 532 412 532 410 518 c 0,130,131
 408 502 408 502 404 486.5 c 128,-1,132
 400 471 400 471 397 455 c 0,133,134
 392 421 392 421 385 387.5 c 128,-1,135
 378 354 378 354 370 320 c 0,136,137
 363 286 363 286 355 255 c 128,-1,138
 347 224 347 224 339 193 c 0,139,140
 332 164 332 164 322 134 c 128,-1,141
 312 104 312 104 295 78 c 0,142,143
 278 55 278 55 259.5 34.5 c 128,-1,144
 241 14 241 14 215 0 c 0,145,146
 191 -12 191 -12 159.5 -15.5 c 0,147,148
 147.894736842 -16.7894736842 147.894736842 -16.7894736842 137.03601108 -16.7894736842 c 0,149,150
 118.421052632 -16.7894736842 118.421052632 -16.7894736842 102 -13 c 0,151,152
 72 -6 72 -6 49 13.5 c 128,-1,153
 26 33 26 33 13 59 c 128,-1,154
 0 85 0 85 -3 115.5 c 0,155,156
 -3.69230769231 122.538461538 -3.69230769231 122.538461538 -3.69230769231 129.443786982 c 0,157,158
 -3.69230769231 152.461538462 -3.69230769231 152.461538462 4 174 c 0,159,160
 14 201 14 201 28.5 222.5 c 128,-1,161
 43 244 43 244 68 261 c 0,162,163
 95.5757575758 279.560606061 95.5757575758 279.560606061 123.995179063 279.560606061 c 0,164,165
 149.166666667 279.560606061 149.166666667 279.560606061 175 265 c 0,166,167
 187 258 187 258 193 246 c 128,-1,168
 199 234 199 234 200.5 220 c 128,-1,169
 202 206 202 206 199 191.5 c 128,-1,170
 196 177 196 177 190 167 c 0,171,172
 187 162 187 162 182.5 157.5 c 128,-1,173
 178 153 178 153 173 148 c 0,174,175
 169 145 169 145 165.5 140 c 128,-1,176
 162 135 162 135 157 133 c 0,177,178
 154 132 154 132 148.5 132 c 128,-1,179
 143 132 143 132 140 135 c 0,180,181
 136 140 136 140 143 145 c 128,-1,182
 150 150 150 150 153 152 c 0,183,184
 163 158 163 158 171.5 171 c 128,-1,185
 180 184 180 184 185 195 c 0,186,187
 192 207 192 207 189.5 221 c 128,-1,188
 187 235 187 235 176 246 c 0,189,190
 168 255 168 255 156 259.5 c 128,-1,191
 144 264 144 264 130.5 264.5 c 128,-1,192
 117 265 117 265 104.5 262.5 c 128,-1,193
 92 260 92 260 83 254 c 0,194,195
 58 239 58 239 40 218 c 128,-1,196
 22 197 22 197 15 168 c 0,197,198
 10.0769230769 150.153846154 10.0769230769 150.153846154 10.0769230769 132.307692308 c 0,199,200
 10.0769230769 121.153846154 10.0769230769 121.153846154 12 110 c 0,201,202
 14 96 14 96 18.5 78.5 c 128,-1,203
 23 61 23 61 31 50 c 0,204,205
 48 25 48 25 75 11.5 c 128,-1,206
 102 -2 102 -2 131 -4 c 0,207,208
 134.75 -4.25 134.75 -4.25 138.4609375 -4.25 c 0,209,210
 164.4375 -4.25 164.4375 -4.25 188.5 8 c 0,211,212
 216 22 216 22 236 45 c 0,213,214
 256 70 256 70 265 99 c 128,-1,215
 274 128 274 128 281 159 c 0,216,217
 288 191 288 191 294.5 223.5 c 128,-1,218
 301 256 301 256 307 288 c 0,219,220
 321 353 321 353 330.5 418 c 128,-1,221
 340 483 340 483 354 548 c 0,222,223
 362 581 362 581 372 612.5 c 128,-1,224
 382 644 382 644 393 676 c 0,225,226
 396 684 396 684 398.5 691.5 c 128,-1,227
 401 699 401 699 405 707 c 0,228,229
 406 709 406 709 410 717 c 128,-1,230
 414 725 414 725 412 727 c 0,231,232
 409 729 409 729 399.5 727 c 128,-1,233
 390 725 390 725 386 724 c 0,234,235
 376 723 376 723 367 722 c 128,-1,236
 358 721 358 721 349 720 c 0,237,238
 316 715 316 715 282.5 708.5 c 128,-1,239
 249 702 249 702 218 691 c 0,240,241
 189 682 189 682 160 669.5 c 128,-1,242
 131 657 131 657 111 638 c 0,243,244
 90 618 90 618 80 593.5 c 0,245,246
 74.1176470588 579.088235294 74.1176470588 579.088235294 74.1176470588 563.119377163 c 0,247,248
 74.1176470588 551.941176471 74.1176470588 551.941176471 77 540 c 0,249,250
 83 514 83 514 99.5 497.5 c 128,-1,251
 116 481 116 481 143 479 c 0,252,253
 156 477 156 477 168 481 c 128,-1,254
 180 485 180 485 191 492 c 0,255,256
 203 500 203 500 208.5 514 c 128,-1,257
 214 528 214 528 215 542 c 0,258,259
 215 546 215 546 213 552 c 128,-1,260
 211 558 211 558 209.5 563.5 c 128,-1,261
 208 569 208 569 209 573 c 128,-1,262
 210 577 210 577 217 579 c 0,263,264
 225 581 225 581 227 577 c 128,-1,265
 229 573 229 573 231 567 c 0,266,267
 233 562 233 562 234 553.5 c 128,-1,268
 235 545 235 545 235 540 c 0,269,270
 234 526 234 526 227 513.5 c 128,-1,271
 220 501 220 501 209.5 492 c 128,-1,272
 199 483 199 483 185.5 477 c 128,-1,273
 172 471 172 471 159 469 c 0,274,275
 151.894736842 467.684210526 151.894736842 467.684210526 144.927977839 467.684210526 c 0,276,277
 125.421052632 467.684210526 125.421052632 467.684210526 107 478 c 0,278,279
 82 492 82 492 70 517 c 0,280,281
 61.6551724138 534.448275862 61.6551724138 534.448275862 61.6551724138 555.349583829 c 0,282,283
 61.6551724138 562 61.6551724138 562 62.5 569 c 0,284,285
 66 598 66 598 79 619 c 0,286,287
 92 642 92 642 112.5 654.5 c 128,-1,288
 133 667 133 667 156 678 c 0,289,290
 184 692 184 692 215.5 700 c 128,-1,291
 247 708 247 708 278 714 c 0,292,293
 293 718 293 718 308.5 721 c 128,-1,294
 324 724 324 724 340 727 c 0,295,296
 354 729 354 729 370 731 c 128,-1,297
 386 733 386 733 399 739 c 0,298,299
 421 750 421 750 436 769 c 128,-1,300
 451 788 451 788 467 807 c 0,301,302
 485 827 485 827 510 844.5 c 128,-1,303
 535 862 535 862 564 862 c 0,304,305
 587 862 587 862 594 840 c 0,0,1
525 840 m 0,306,307
 515 833 515 833 507 821.5 c 128,-1,308
 499 810 499 810 494 799 c 0,309,310
 491 793 491 793 488.5 787.5 c 128,-1,311
 486 782 486 782 483 776 c 0,312,313
 481 773 481 773 476.5 764.5 c 128,-1,314
 472 756 472 756 474 752 c 0,315,316
 475 750 475 750 481.5 751 c 128,-1,317
 488 752 488 752 495.5 753.5 c 128,-1,318
 503 755 503 755 510 757 c 128,-1,319
 517 759 517 759 519 760 c 0,320,321
 539 764 539 764 554.5 774.5 c 128,-1,322
 570 785 570 785 579 804 c 0,323,324
 586.692307692 819.384615385 586.692307692 819.384615385 586.692307692 829.147928994 c 0,325,326
 586.692307692 832.076923077 586.692307692 832.076923077 586 834.5 c 0,327,328
 583 845 583 845 573 848.5 c 128,-1,329
 563 852 563 852 549 849 c 128,-1,330
 535 846 535 846 525 840 c 0,306,307
EndSplineSet
Validated: 524289
EndChar

StartChar: Q
Encoding: 81 81 20
Width: 594
Flags: W
LayerCount: 2
Back
Fore
SplineSet
316 297 m 0,0,1
 310 275 310 275 301 253 c 128,-1,2
 292 231 292 231 278 214 c 0,3,4
 263 196 263 196 246 178 c 128,-1,5
 229 160 229 160 207 151 c 0,6,7
 196 146 196 146 183 144 c 128,-1,8
 170 142 170 142 158 140 c 0,9,10
 149 138.666666667 149 138.666666667 140.222222222 138.666666667 c 0,11,12
 122.666666667 138.666666667 122.666666667 138.666666667 106 144 c 0,13,14
 84 152 84 152 67 164.5 c 128,-1,15
 50 177 50 177 37 196 c 0,16,17
 29 207 29 207 25 218 c 128,-1,18
 21 229 21 229 16 240 c 256,19,20
 11 251 11 251 7.5 261.5 c 128,-1,21
 4 272 4 272 3 285 c 0,22,23
 0.454545454545 316.818181818 0.454545454545 316.818181818 0.454545454545 340.719008264 c 0,24,25
 0.454545454545 364.272727273 0.454545454545 364.272727273 5 387 c 0,26,27
 6 394 6 394 8 407 c 128,-1,28
 10 420 10 420 14 432.5 c 128,-1,29
 18 445 18 445 25 453.5 c 128,-1,30
 32 462 32 462 43 459 c 1,31,32
 41 456 41 456 42.5 454 c 128,-1,33
 44 452 44 452 46 450 c 256,34,35
 48 448 48 448 48 445.5 c 128,-1,36
 48 443 48 443 50 441 c 1,37,38
 53 445 53 445 51 451 c 128,-1,39
 49 457 49 457 47 462 c 256,40,41
 45 467 45 467 41.5 465.5 c 128,-1,42
 38 464 38 464 34 464 c 0,43,44
 31 464 31 464 32 470 c 128,-1,45
 33 476 33 476 36 484 c 128,-1,46
 39 492 39 492 42.5 499 c 128,-1,47
 46 506 46 506 47 508 c 0,48,49
 62 534 62 534 74.5 560 c 128,-1,50
 87 586 87 586 108 607 c 0,51,52
 130 629 130 629 149.5 646.5 c 128,-1,53
 169 664 169 664 193 680 c 0,54,55
 219 697 219 697 249 703.5 c 128,-1,56
 279 710 279 710 310 712 c 0,57,58
 325 712 325 712 338.5 712 c 128,-1,59
 352 712 352 712 367 709 c 0,60,61
 383 705 383 705 398 700.5 c 128,-1,62
 413 696 413 696 427 688 c 0,63,64
 440 681 440 681 453 673.5 c 128,-1,65
 466 666 466 666 476 655 c 0,66,67
 511 620 511 620 526.5 579.5 c 128,-1,68
 542 539 542 539 547 493 c 0,69,70
 549.571428571 465.571428571 549.571428571 465.571428571 549.571428571 437.775510204 c 0,71,72
 549.571428571 433.142857143 549.571428571 433.142857143 549.5 428.5 c 0,73,74
 549 396 549 396 542 364 c 0,75,76
 531 313 531 313 512.5 265.5 c 128,-1,77
 494 218 494 218 465 175 c 0,78,79
 436 133 436 133 397.5 96 c 128,-1,80
 359 59 359 59 316 31 c 0,81,82
 306 25 306 25 296 21 c 128,-1,83
 286 17 286 17 277 10 c 1,84,85
 285 0 285 0 297 -6.5 c 128,-1,86
 309 -13 309 -13 320 -20 c 0,87,88
 333 -28 333 -28 351 -40 c 128,-1,89
 369 -52 369 -52 388 -63.5 c 128,-1,90
 407 -75 407 -75 425 -83.5 c 128,-1,91
 443 -92 443 -92 455 -92 c 0,92,93
 466 -93 466 -93 476 -93 c 128,-1,94
 486 -93 486 -93 497 -87 c 0,95,96
 516 -77 516 -77 519 -57 c 0,97,98
 520 -51 520 -51 519.5 -44 c 128,-1,99
 519 -37 519 -37 518.5 -30.5 c 128,-1,100
 518 -24 518 -24 519.5 -18.5 c 128,-1,101
 521 -13 521 -13 526 -11 c 256,102,103
 531 -9 531 -9 534.5 -14 c 128,-1,104
 538 -19 538 -19 539.5 -26.5 c 128,-1,105
 541 -34 541 -34 541.5 -42 c 128,-1,106
 542 -50 542 -50 542 -56 c 0,107,108
 543 -70 543 -70 537.5 -83 c 128,-1,109
 532 -96 532 -96 524 -106 c 0,110,111
 515 -117 515 -117 501.5 -121 c 128,-1,112
 488 -125 488 -125 473 -124.5 c 128,-1,113
 458 -124 458 -124 443.5 -119.5 c 128,-1,114
 429 -115 429 -115 418 -109 c 0,115,116
 405 -102 405 -102 392.5 -95.5 c 128,-1,117
 380 -89 380 -89 367 -81 c 0,118,119
 340 -63 340 -63 315 -45.5 c 128,-1,120
 290 -28 290 -28 267 -9 c 0,121,122
 255 3 255 3 241.5 0.5 c 128,-1,123
 228 -2 228 -2 213 -6 c 0,124,125
 199 -10 199 -10 182 -14 c 128,-1,126
 165 -18 165 -18 148 -19.5 c 0,127,128
 141.625 -20.0625 141.625 -20.0625 135.6015625 -20.0625 c 0,129,130
 125.5625 -20.0625 125.5625 -20.0625 116.5 -18.5 c 0,131,132
 102 -16 102 -16 95 -8 c 256,133,134
 88 0 88 0 86.5 14.5 c 128,-1,135
 85 29 85 29 90 38 c 0,136,137
 97 50 97 50 110.5 55.5 c 128,-1,138
 124 61 124 61 138 60 c 0,139,140
 159 58 159 58 180.5 51.5 c 128,-1,141
 202 45 202 45 220 36 c 0,142,143
 228 32 228 32 235.5 27.5 c 128,-1,144
 243 23 243 23 251 23 c 0,145,146
 263 23 263 23 275 31.5 c 128,-1,147
 287 40 287 40 296 47 c 0,148,149
 322 65 322 65 343 88 c 0,150,151
 364 110 364 110 381 136 c 128,-1,152
 398 162 398 162 414 188 c 0,153,154
 448 243 448 243 465 305 c 0,155,156
 470 320 470 320 473 335 c 128,-1,157
 476 350 476 350 479 365 c 0,158,159
 486 395 486 395 487 431 c 0,160,161
 487.166666667 437 487.166666667 437 487.166666667 442.805555556 c 0,162,163
 487.166666667 471.833333333 487.166666667 471.833333333 483 496 c 0,164,165
 478 530 478 530 468 562 c 0,166,167
 459 591 459 591 444 616.5 c 128,-1,168
 429 642 429 642 406 662 c 0,169,170
 385 680 385 680 362 690 c 0,171,172
 348 697 348 697 334 697.5 c 128,-1,173
 320 698 320 698 305 696 c 0,174,175
 273 691 273 691 247 681 c 128,-1,176
 221 671 221 671 198 651 c 0,177,178
 175 632 175 632 155.5 611 c 128,-1,179
 136 590 136 590 123 564 c 0,180,181
 116 550 116 550 110 537.5 c 128,-1,182
 104 525 104 525 99 511 c 0,183,184
 93 496 93 496 90 480.5 c 128,-1,185
 87 465 87 465 84 449 c 0,186,187
 77 417 77 417 72.5 385.5 c 0,188,189
 68.8181818182 359.727272727 68.8181818182 359.727272727 68.8181818182 333.619834711 c 0,190,191
 68.8181818182 327.818181818 68.8181818182 327.818181818 69 322 c 256,192,193
 70 290 70 290 75 259 c 0,194,195
 78 245 78 245 81 229.5 c 128,-1,196
 84 214 84 214 92 201 c 0,197,198
 103 182 103 182 124.5 171.5 c 0,199,200
 144.130434783 161.913043478 144.130434783 161.913043478 164.177693762 161.913043478 c 0,201,202
 166.086956522 161.913043478 166.086956522 161.913043478 168 162 c 0,203,204
 197 162 197 162 217.5 180 c 128,-1,205
 238 198 238 198 251.5 224 c 128,-1,206
 265 250 265 250 272.5 278.5 c 128,-1,207
 280 307 280 307 284 330 c 0,208,209
 289 362 289 362 291 395 c 0,210,211
 291.4 401.6 291.4 401.6 291.4 408.16 c 0,212,213
 291.4 434.4 291.4 434.4 285 460 c 0,214,215
 279 486 279 486 255 496.5 c 0,216,217
 241.378378378 502.459459459 241.378378378 502.459459459 227.434623813 502.459459459 c 0,218,219
 216.810810811 502.459459459 216.810810811 502.459459459 206 499 c 0,220,221
 191 494 191 494 180 482 c 128,-1,222
 169 470 169 470 161 457 c 0,223,224
 150.916666667 440.5 150.916666667 440.5 150.916666667 423.579861111 c 0,225,226
 150.916666667 405.430555556 150.916666667 405.430555556 158 383 c 0,227,228
 159 378 159 378 154.5 372 c 128,-1,229
 150 366 150 366 146 374 c 0,230,231
 141 383 141 383 140 392 c 128,-1,232
 139 401 139 401 139 412 c 0,233,234
 138.75 416.75 138.75 416.75 138.75 421.375 c 0,235,236
 138.75 435.25 138.75 435.25 141 448 c 0,237,238
 144 465 144 465 156 480 c 0,239,240
 175 506 175 506 205.5 516 c 0,241,242
 218.208333333 520.166666667 218.208333333 520.166666667 230.829861111 520.166666667 c 0,243,244
 248.5 520.166666667 248.5 520.166666667 266 512 c 0,245,246
 297 498 297 498 311 472 c 128,-1,247
 325 446 325 446 328 415.5 c 0,248,249
 329.2 403.3 329.2 403.3 329.2 390.94 c 0,250,251
 329.2 372.4 329.2 372.4 326.5 353.5 c 0,252,253
 322 322 322 322 316 297 c 0,0,1
226 10 m 0,254,255
 231 12 231 12 228 15 c 128,-1,256
 225 18 225 18 224 19 c 0,257,258
 197 33 197 33 184.5 37.5 c 128,-1,259
 172 42 172 42 162 45 c 0,260,261
 152.588235294 47.9411764706 152.588235294 47.9411764706 143.349480969 47.9411764706 c 0,262,263
 136.882352941 47.9411764706 136.882352941 47.9411764706 130.5 46.5 c 0,264,265
 115 43 115 43 109 25 c 0,266,267
 105 14 105 14 107.5 8 c 128,-1,268
 110 2 110 2 115.5 -1 c 128,-1,269
 121 -4 121 -4 128 -5 c 128,-1,270
 135 -6 135 -6 141 -7 c 0,271,272
 144 -7 144 -7 154 -5 c 128,-1,273
 164 -3 164 -3 176.5 -0.5 c 128,-1,274
 189 2 189 2 202.5 5 c 128,-1,275
 216 8 216 8 226 10 c 0,254,255
EndSplineSet
Validated: 524289
EndChar

StartChar: R
Encoding: 82 82 21
Width: 718
Flags: W
LayerCount: 2
Back
Fore
SplineSet
10 168 m 0,0,1
 23 196 23 196 41 219 c 0,2,3
 49 229 49 229 59.5 237.5 c 128,-1,4
 70 246 70 246 82 252 c 0,5,6
 93 257 93 257 108 259 c 0,7,8
 111 259 111 259 114.5 258.5 c 128,-1,9
 118 258 118 258 121 258 c 0,10,11
 126 258 126 258 130 259 c 128,-1,12
 134 260 134 260 139 260 c 0,13,14
 160 259 160 259 178.5 239.5 c 0,15,16
 198.083333333 218.858108108 198.083333333 218.858108108 198.083333333 195.302083333 c 0,17,18
 198.083333333 174.791666667 198.083333333 174.791666667 188 150.5 c 0,19,20
 177 124 177 124 155 114 c 0,21,22
 151 112 151 112 145 112 c 128,-1,23
 139 112 139 112 137 117 c 0,24,25
 135 123 135 123 141.5 127.5 c 128,-1,26
 148 132 148 132 151 135 c 0,27,28
 162 144 162 144 171.5 155.5 c 128,-1,29
 181 167 181 167 186 180 c 0,30,31
 190 189 190 189 188.5 199 c 128,-1,32
 187 209 187 209 182.5 218 c 128,-1,33
 178 227 178 227 170.5 234 c 128,-1,34
 163 241 163 241 154 243 c 0,35,36
 142.1875 246.0625 142.1875 246.0625 130.087890625 246.0625 c 0,37,38
 114.53125 246.0625 114.53125 246.0625 98.5 241 c 0,39,40
 70 232 70 232 50 213 c 0,41,42
 33 197 33 197 24 177 c 0,43,44
 19 165 19 165 15.5 147.5 c 128,-1,45
 12 130 12 130 12 116 c 0,46,47
 12 88 12 88 16.5 63.5 c 128,-1,48
 21 39 21 39 40 17 c 0,49,50
 76.1590909091 -25.0227272727 76.1590909091 -25.0227272727 131.419421488 -25.0227272727 c 0,51,52
 132.704545455 -25.0227272727 132.704545455 -25.0227272727 134 -25 c 0,53,54
 165 -23 165 -23 187.5 -12 c 128,-1,55
 210 -1 210 -1 231 21 c 256,56,57
 252 43 252 43 261 73 c 128,-1,58
 270 103 270 103 277 132 c 0,59,60
 291 196 291 196 302.5 260.5 c 128,-1,61
 314 325 314 325 327 389 c 0,62,63
 330 405 330 405 332 420 c 128,-1,64
 334 435 334 435 336 451 c 0,65,66
 339 468 339 468 343 485 c 128,-1,67
 347 502 347 502 350 519 c 0,68,69
 356 551 356 551 366.5 581.5 c 128,-1,70
 377 612 377 612 385 643 c 0,71,72
 390 660 390 660 397 675 c 128,-1,73
 404 690 404 690 408 706 c 1,74,75
 393 708 393 708 377 705 c 128,-1,76
 361 702 361 702 346 699 c 0,77,78
 313 694 313 694 280 687 c 0,79,80
 249 681 249 681 219 671.5 c 128,-1,81
 189 662 189 662 161 648 c 0,82,83
 147 641 147 641 133 634 c 128,-1,84
 119 627 119 627 108 617 c 0,85,86
 98 609 98 609 89.5 597 c 128,-1,87
 81 585 81 585 76 574 c 0,88,89
 70 561 70 561 71 545.5 c 128,-1,90
 72 530 72 530 74 517 c 0,91,92
 79 491 79 491 99 475 c 0,93,94
 118 461 118 461 141.5 459 c 0,95,96
 144.633333333 458.733333333 144.633333333 458.733333333 147.704444444 458.733333333 c 0,97,98
 167.666666667 458.733333333 167.666666667 458.733333333 185 470 c 0,99,100
 206 483 206 483 212 507 c 0,101,102
 215 521 215 521 212 535 c 0,103,104
 210 541 210 541 207 548 c 128,-1,105
 204 555 204 555 212 560 c 0,106,107
 218 564 218 564 221.5 560 c 128,-1,108
 225 556 225 556 227 549 c 128,-1,109
 229 542 229 542 230 535 c 128,-1,110
 231 528 231 528 231 525 c 0,111,112
 231 497 231 497 211 475 c 0,113,114
 192 455 192 455 167.5 450.5 c 0,115,116
 158.68 448.88 158.68 448.88 149.6656 448.88 c 0,117,118
 133.64 448.88 133.64 448.88 117 454 c 0,119,120
 105 458 105 458 93.5 464.5 c 128,-1,121
 82 471 82 471 75 482 c 0,122,123
 67 495 67 495 63.5 510 c 128,-1,124
 60 525 60 525 60 539 c 0,125,126
 60 571 60 571 75 596 c 128,-1,127
 90 621 90 621 116 638 c 0,128,129
 143 656 143 656 173 667.5 c 128,-1,130
 203 679 203 679 235 687 c 128,-1,131
 267 695 267 695 299.5 700.5 c 128,-1,132
 332 706 332 706 363 711 c 0,133,134
 371 713 371 713 378 714 c 128,-1,135
 385 715 385 715 393 716 c 0,136,137
 398 716 398 716 405.5 716.5 c 128,-1,138
 413 717 413 717 417 722 c 0,139,140
 425 733 425 733 431.5 746.5 c 128,-1,141
 438 760 438 760 448 771 c 0,142,143
 468 792 468 792 491.5 812.5 c 128,-1,144
 515 833 515 833 544 839 c 0,145,146
 556 841 556 841 567 840 c 128,-1,147
 578 839 578 839 586 829 c 0,148,149
 593 820 593 820 592.5 807 c 128,-1,150
 592 794 592 794 587 781 c 128,-1,151
 582 768 582 768 573.5 757.5 c 128,-1,152
 565 747 565 747 557 743 c 0,153,154
 543 735 543 735 529 729.5 c 128,-1,155
 515 724 515 724 500 721 c 0,156,157
 491 719 491 719 479.5 719.5 c 128,-1,158
 468 720 468 720 463 711 c 0,159,160
 457 700 457 700 454 686.5 c 128,-1,161
 451 673 451 673 447 662 c 0,162,163
 442 648 442 648 437.5 635.5 c 128,-1,164
 433 623 433 623 429 609 c 0,165,166
 426 597 426 597 422 583 c 128,-1,167
 418 569 418 569 419 556 c 1,168,169
 428 563 428 563 434 574 c 128,-1,170
 440 585 440 585 448 594 c 0,171,172
 456 604 456 604 465.5 612.5 c 128,-1,173
 475 621 475 621 485 629 c 0,174,175
 506 646 506 646 530.5 660 c 128,-1,176
 555 674 555 674 581 680 c 0,177,178
 605 686 605 686 631 687 c 0,179,180
 633.6 687.1 633.6 687.1 636.17 687.1 c 0,181,182
 659.3 687.1 659.3 687.1 680 679 c 0,183,184
 704 669 704 669 718 647.5 c 128,-1,185
 732 626 732 626 735 601 c 0,186,187
 736.454545455 590.818181818 736.454545455 590.818181818 736.454545455 580.768595041 c 0,188,189
 736.454545455 563.181818182 736.454545455 563.181818182 732 546 c 0,190,191
 725 519 725 519 717 493 c 0,192,193
 710 470 710 470 695 451 c 0,194,195
 688 440 688 440 682 429 c 128,-1,196
 676 418 676 418 667 409 c 0,197,198
 647 390 647 390 626.5 372.5 c 128,-1,199
 606 355 606 355 582 340 c 0,200,201
 571 333 571 333 559 327.5 c 128,-1,202
 547 322 547 322 535 318 c 0,203,204
 521 313 521 313 507.5 311 c 128,-1,205
 494 309 494 309 480 304 c 1,206,207
 503 293 503 293 523.5 273 c 128,-1,208
 544 253 544 253 553 229 c 0,209,210
 559 215 559 215 563 199.5 c 128,-1,211
 567 184 567 184 572 169 c 2,212,-1
 593 106 l 2,213,214
 604 78 604 78 618.5 48.5 c 128,-1,215
 633 19 633 19 653 -3 c 0,216,217
 670 -22 670 -22 696 -25 c 0,218,219
 711 -27 711 -27 725 -21.5 c 128,-1,220
 739 -16 739 -16 753 -11 c 0,221,222
 757 -10 757 -10 759 -14 c 128,-1,223
 761 -18 761 -18 757 -20 c 0,224,225
 752 -23 752 -23 746.5 -26 c 128,-1,226
 741 -29 741 -29 735 -32 c 0,227,228
 721 -38 721 -38 705.5 -38.5 c 128,-1,229
 690 -39 690 -39 676 -38 c 0,230,231
 647 -36 647 -36 624.5 -20 c 128,-1,232
 602 -4 602 -4 584 18 c 0,233,234
 564 44 564 44 551 73.5 c 128,-1,235
 538 103 538 103 526 133 c 0,236,237
 515 162 515 162 507 191.5 c 128,-1,238
 499 221 499 221 485 250 c 0,239,240
 478 264 478 264 466 276.5 c 128,-1,241
 454 289 454 289 441 298 c 0,242,243
 426 308 426 308 409.5 312 c 128,-1,244
 393 316 393 316 380 329 c 1,245,246
 394 334 394 334 409 332 c 128,-1,247
 424 330 424 330 438 329 c 0,248,249
 444.8 328.2 444.8 328.2 451.36 328.2 c 0,250,251
 461.2 328.2 461.2 328.2 470.5 330 c 0,252,253
 486 333 486 333 503 338 c 0,254,255
 529 346 529 346 553 363 c 128,-1,256
 577 380 577 380 597 399 c 0,257,258
 620 422 620 422 637 445.5 c 128,-1,259
 654 469 654 469 664 500 c 0,260,261
 669 515 669 515 672 530 c 128,-1,262
 675 545 675 545 677 560 c 0,263,264
 678.142857143 569.714285714 678.142857143 569.714285714 678.142857143 579.102040816 c 0,265,266
 678.142857143 586.142857143 678.142857143 586.142857143 677.5 593 c 0,267,268
 676 609 676 609 674 626 c 0,269,270
 672 638 672 638 667.5 650 c 128,-1,271
 663 662 663 662 652 670 c 0,272,273
 640 678 640 678 629.5 675.5 c 128,-1,274
 619 673 619 673 606 673 c 0,275,276
 592 672 592 672 578.5 667 c 128,-1,277
 565 662 565 662 553 655 c 0,278,279
 539 647 539 647 524.5 639 c 128,-1,280
 510 631 510 631 497 620 c 0,281,282
 486 611 486 611 475.5 600 c 128,-1,283
 465 589 465 589 455 578 c 0,284,285
 444 567 444 567 436 551.5 c 128,-1,286
 428 536 428 536 420 522 c 0,287,288
 416 515 416 515 412 508.5 c 128,-1,289
 408 502 408 502 406 495 c 256,290,291
 404 488 404 488 403.5 481.5 c 128,-1,292
 403 475 403 475 402 468 c 2,293,-1
 390 399 l 2,294,295
 380 348 380 348 368.5 299 c 128,-1,296
 357 250 357 250 343 200 c 0,297,298
 336 175 336 175 330 151 c 128,-1,299
 324 127 324 127 315 103 c 0,300,301
 296 54 296 54 259 16 c 0,302,303
 240 -3 240 -3 221 -14 c 128,-1,304
 202 -25 202 -25 183 -30 c 0,305,306
 164.176470588 -37.5294117647 164.176470588 -37.5294117647 140.923875433 -37.5294117647 c 0,307,308
 139.470588235 -37.5294117647 139.470588235 -37.5294117647 138 -37.5 c 0,309,310
 113 -37 113 -37 93 -32 c 0,311,312
 70 -25 70 -25 55 -12 c 0,313,314
 46 -4 46 -4 37.5 3 c 128,-1,315
 29 10 29 10 24 21 c 0,316,317
 -1.68055555556 64.5972222222 -1.68055555556 64.5972222222 -1.68055555556 108.551118827 c 0,318,319
 -1.68055555556 138.194444444 -1.68055555556 138.194444444 10 168 c 0,0,1
536 826 m 0,320,321
 513 816 513 816 502 796.5 c 128,-1,322
 491 777 491 777 481 756 c 0,323,324
 479 751 479 751 476.5 746 c 128,-1,325
 474 741 474 741 471 736 c 0,326,327
 468 730 468 730 473.5 730 c 128,-1,328
 479 730 479 730 482 731 c 0,329,330
 494 734 494 734 506 736.5 c 128,-1,331
 518 739 518 739 530 744 c 0,332,333
 539 747 539 747 547.5 751.5 c 128,-1,334
 556 756 556 756 563 763 c 0,335,336
 571 772 571 772 573.5 780 c 128,-1,337
 576 788 576 788 581 799 c 1,338,339
 581.176470588 801.764705882 581.176470588 801.764705882 581.176470588 804.297577855 c 0,340,341
 581.176470588 831.970149254 581.176470588 831.970149254 560.112274449 831.970149254 c 0,342,343
 550.328358209 831.970149254 550.328358209 831.970149254 536 826 c 0,320,321
EndSplineSet
Validated: 524289
EndChar

StartChar: S
Encoding: 83 83 22
Width: 494
Flags: W
LayerCount: 2
Back
Fore
SplineSet
405 625 m 0,0,1
 408 637 408 637 408 652 c 128,-1,2
 408 667 408 667 403 680.5 c 128,-1,3
 398 694 398 694 388 703 c 128,-1,4
 378 712 378 712 362 712 c 0,5,6
 350 712 350 712 336.5 709.5 c 128,-1,7
 323 707 323 707 312 700 c 0,8,9
 300 692 300 692 292.5 677 c 128,-1,10
 285 662 285 662 281 648 c 0,11,12
 277.666666667 636.666666667 277.666666667 636.666666667 277.666666667 625.555555556 c 0,13,14
 277.666666667 620 277.666666667 620 278.5 614.5 c 0,15,16
 281 598 281 598 286 581 c 0,17,18
 288 574 288 574 289.5 565.5 c 128,-1,19
 291 557 291 557 295 551 c 0,20,21
 297 546 297 546 302 548 c 128,-1,22
 307 550 307 550 311 548 c 0,23,24
 320 552 320 552 334.5 558 c 128,-1,25
 349 564 349 564 363 573 c 128,-1,26
 377 582 377 582 388.5 594.5 c 128,-1,27
 400 607 400 607 405 625 c 0,0,1
57 82 m 0,28,29
 64 71 64 71 71 63 c 128,-1,30
 78 55 78 55 89 48 c 128,-1,31
 100 41 100 41 112.5 35.5 c 128,-1,32
 125 30 125 30 138 26 c 0,33,34
 154.64 20.88 154.64 20.88 171.4848 20.88 c 0,35,36
 180.96 20.88 180.96 20.88 190.5 22.5 c 0,37,38
 217 27 217 27 243 35 c 0,39,40
 267 43 267 43 287.5 63 c 128,-1,41
 308 83 308 83 322 103 c 0,42,43
 337 126 337 126 342.5 152 c 0,44,45
 347.153846154 174 347.153846154 174 347.153846154 196 c 0,46,47
 347.153846154 200 347.153846154 200 347 204 c 0,48,49
 346 232 346 232 338 259 c 0,50,51
 337 264 337 264 336 270 c 128,-1,52
 335 276 335 276 333.5 280.5 c 128,-1,53
 332 285 332 285 328.5 288 c 128,-1,54
 325 291 325 291 318 290 c 0,55,56
 312 289 312 289 306 288 c 128,-1,57
 300 287 300 287 295 286 c 0,58,59
 285 286 285 286 281 287 c 0,60,61
 279 287 279 287 275.5 288.5 c 128,-1,62
 272 290 272 290 270 290 c 0,63,64
 268 289 268 289 265.5 285 c 128,-1,65
 263 281 263 281 261 280 c 0,66,67
 256 277 256 277 252.5 275 c 128,-1,68
 249 273 249 273 244 269 c 0,69,70
 236 261 236 261 228.5 251.5 c 128,-1,71
 221 242 221 242 217 231 c 0,72,73
 215 225 215 225 215.5 217 c 128,-1,74
 216 209 216 209 216 201.5 c 128,-1,75
 216 194 216 194 214 189 c 128,-1,76
 212 184 212 184 203 185 c 0,77,78
 198 185 198 185 196 189.5 c 128,-1,79
 194 194 194 194 194.5 200.5 c 128,-1,80
 195 207 195 207 196.5 214 c 128,-1,81
 198 221 198 221 200 227 c 0,82,83
 202 238 202 238 199.5 248.5 c 128,-1,84
 197 259 197 259 193 269 c 0,85,86
 185 289 185 289 165 303 c 0,87,88
 151.666666667 312.333333333 151.666666667 312.333333333 137.444444444 312.333333333 c 0,89,90
 130.333333333 312.333333333 130.333333333 312.333333333 123 310 c 0,91,92
 101 303 101 303 82.5 292.5 c 128,-1,93
 64 282 64 282 52 261 c 0,94,95
 47 252 47 252 43 242.5 c 128,-1,96
 39 233 39 233 36 223 c 0,97,98
 31 210 31 210 31 197 c 0,99,100
 31 184.371520707 31 184.371520707 29.11268046 171.743041436 c 0,101,102
 29.4111211435 171.533273962 29.4111211435 171.533273962 30.5 165 c 0,103,104
 32 156 32 156 35 142 c 128,-1,105
 38 128 38 128 43.5 111 c 128,-1,106
 49 94 49 94 57 82 c 0,28,29
419 673 m 0,107,108
 420.612903226 664.612903226 420.612903226 664.612903226 420.612903226 656.225806452 c 0,109,110
 420.612903226 638.612903226 420.612903226 638.612903226 413.5 621 c 0,111,112
 403 595 403 595 386 576 c 0,113,114
 377 566 377 566 365.5 559 c 128,-1,115
 354 552 354 552 342 547 c 0,116,117
 339 546 339 546 332 544.5 c 128,-1,118
 325 543 325 543 318 541 c 128,-1,119
 311 539 311 539 306 535.5 c 128,-1,120
 301 532 301 532 303 528 c 0,121,122
 317 499 317 499 329 469 c 128,-1,123
 341 439 341 439 356 410 c 0,124,125
 363 396 363 396 366.5 381.5 c 128,-1,126
 370 367 370 367 375 352 c 0,127,128
 376 348 376 348 377 340 c 128,-1,129
 378 332 378 332 380.5 324.5 c 128,-1,130
 383 317 383 317 387 311.5 c 128,-1,131
 391 306 391 306 397 307 c 0,132,133
 408 310 408 310 422.5 312 c 128,-1,134
 437 314 437 314 451 318 c 128,-1,135
 465 322 465 322 475.5 329.5 c 128,-1,136
 486 337 486 337 489 351 c 0,137,138
 490 354 490 354 489.5 359.5 c 128,-1,139
 489 365 489 365 490 370 c 128,-1,140
 491 375 491 375 493.5 377.5 c 128,-1,141
 496 380 496 380 503 378 c 0,142,143
 514 374 514 374 512 359.5 c 128,-1,144
 510 345 510 345 505 338 c 0,145,146
 499 327 499 327 489.5 321 c 128,-1,147
 480 315 480 315 469 311 c 0,148,149
 454 306 454 306 439 301.5 c 128,-1,150
 424 297 424 297 408 295 c 0,151,152
 404 295 404 295 398 295.5 c 128,-1,153
 392 296 392 296 391 291 c 0,154,155
 390 284 390 284 391.5 277 c 128,-1,156
 393 270 393 270 394 264 c 0,157,158
 396 247 396 247 398.5 229 c 0,159,160
 400.285714286 216.142857143 400.285714286 216.142857143 400.285714286 203.795918367 c 0,161,162
 400.285714286 198.857142857 400.285714286 198.857142857 400 194 c 0,163,164
 399 180 399 180 398 167 c 128,-1,165
 397 154 397 154 393 140 c 0,166,167
 388 124 388 124 380 111.5 c 128,-1,168
 372 99 372 99 364 85 c 0,169,170
 345 59 345 59 323.5 42.5 c 128,-1,171
 302 26 302 26 272 15 c 0,172,173
 258 10 258 10 243 7.5 c 128,-1,174
 228 5 228 5 213 4 c 0,175,176
 197 2 197 2 181 1 c 0,177,178
 177 0.75 177 0.75 172.9375 0.75 c 0,179,180
 160.75 0.75 160.75 0.75 148 3 c 0,181,182
 120 8 120 8 91.5 20.5 c 128,-1,183
 63 33 63 33 43 54 c 128,-1,184
 23 75 23 75 12 103 c 128,-1,185
 1 131 1 131 -1 160 c 0,186,187
 -3 175 -3 175 -1 191 c 0,188,189
 1 198 1 198 0 205 c 128,-1,190
 -1 212 -1 212 1 219 c 0,191,192
 6 234 6 234 13.5 246.5 c 128,-1,193
 21 259 21 259 31 272 c 0,194,195
 36 277 36 277 39 281.5 c 128,-1,196
 42 286 42 286 50 288 c 0,197,198
 56 290 56 290 56 292.5 c 128,-1,199
 56 295 56 295 59 300 c 0,200,201
 61 305 61 305 69.5 308 c 128,-1,202
 78 311 78 311 83 313 c 0,203,204
 99 321 99 321 115 324 c 0,205,206
 131 326 131 326 145.5 324 c 128,-1,207
 160 322 160 322 174 312 c 0,208,209
 188 301 188 301 195 286 c 128,-1,210
 202 271 202 271 210 256 c 1,211,212
 218 265 218 265 225 275 c 128,-1,213
 232 285 232 285 243 291 c 0,214,215
 256 299 256 299 272 300 c 128,-1,216
 288 301 288 301 303 302 c 0,217,218
 306 303 306 303 315 302.5 c 128,-1,219
 324 302 324 302 325 306 c 0,220,221
 327 311 327 311 323 318.5 c 128,-1,222
 319 326 319 326 317 331 c 0,223,224
 311 348 311 348 304.5 364 c 128,-1,225
 298 380 298 380 292 397 c 0,226,227
 280 429 280 429 268 461 c 128,-1,228
 256 493 256 493 244 525 c 0,229,230
 241 533 241 533 236 533 c 128,-1,231
 231 533 231 533 224 535 c 0,232,233
 210 538 210 538 198 544 c 0,234,235
 185 550 185 550 172.5 558.5 c 128,-1,236
 160 567 160 567 150 578 c 0,237,238
 135 597 135 597 126.5 625 c 0,239,240
 121.148148148 642.62962963 121.148148148 642.62962963 121.148148148 658.673525377 c 0,241,242
 121.148148148 668.111111111 121.148148148 668.111111111 123 677 c 0,243,244
 123 679 123 679 126 686 c 128,-1,245
 129 693 129 693 132.5 699 c 128,-1,246
 136 705 136 705 140.5 708 c 128,-1,247
 145 711 145 711 150 706 c 0,248,249
 159 697 159 697 155.5 680 c 128,-1,250
 152 663 152 663 151 652 c 0,251,252
 150.217391304 644.695652174 150.217391304 644.695652174 150.217391304 637.697542533 c 0,253,254
 150.217391304 617.869565217 150.217391304 617.869565217 156.5 600.5 c 0,255,256
 165 577 165 577 190 561 c 0,257,258
 198 556 198 556 211 550.5 c 128,-1,259
 224 545 224 545 235 547 c 0,260,261
 240 548 240 548 237 555 c 128,-1,262
 234 562 234 562 233 564 c 0,263,264
 231 572 231 572 230.5 581 c 128,-1,265
 230 590 230 590 231 599 c 0,266,267
 233 624 233 624 239 647 c 128,-1,268
 245 670 245 670 263 689 c 0,269,270
 280 708 280 708 301.5 714.5 c 128,-1,271
 323 721 323 721 347 726 c 0,272,273
 351 726.235294118 351 726.235294118 354.757785467 726.235294118 c 0,274,275
 382.941176471 726.235294118 382.941176471 726.235294118 397.5 713 c 0,276,277
 414 698 414 698 419 673 c 0,107,108
EndSplineSet
Validated: 524289
EndChar

StartChar: T
Encoding: 84 84 23
Width: 505
Flags: W
LayerCount: 2
Back
Fore
SplineSet
664 761 m 0,0,1
 669 748 669 748 666 735 c 128,-1,2
 663 722 663 722 657 711 c 0,3,4
 645 690 645 690 625.5 677 c 128,-1,5
 606 664 606 664 584 656 c 0,6,7
 569 651 569 651 553.5 648 c 128,-1,8
 538 645 538 645 523 641 c 0,9,10
 515 639 515 639 513.5 634.5 c 128,-1,11
 512 630 512 630 510 622 c 2,12,-1
 504 585 l 2,13,14
 498 553 498 553 492 520 c 128,-1,15
 486 487 486 487 479 454 c 0,16,17
 478 449 478 449 475 435.5 c 128,-1,18
 472 422 472 422 468.5 407.5 c 128,-1,19
 465 393 465 393 463 380 c 128,-1,20
 461 367 461 367 462 363 c 2,21,-1
 462 362 l 2,22,23
 460 355 460 355 458 348 c 128,-1,24
 456 341 456 341 456 333 c 2,25,-1
 456 331 l 1,26,-1
 448 296 l 2,27,28
 440 264 440 264 431 232 c 128,-1,29
 422 200 422 200 409 168 c 0,30,31
 388 114 388 114 351 66.5 c 128,-1,32
 314 19 314 19 260 -7 c 0,33,34
 233 -21 233 -21 202 -26 c 0,35,36
 182.625 -29.125 182.625 -29.125 163.640625 -29.125 c 0,37,38
 152.25 -29.125 152.25 -29.125 141 -28 c 0,39,40
 112 -25 112 -25 83 -13 c 128,-1,41
 54 -1 54 -1 36 22 c 0,42,43
 19 44 19 44 10 71.5 c 128,-1,44
 1 99 1 99 1 127 c 128,-1,45
 1 155 1 155 10.5 181.5 c 128,-1,46
 20 208 20 208 40 229 c 0,47,48
 73.4285714286 265.214285714 73.4285714286 265.214285714 122.37755102 265.214285714 c 0,49,50
 126.142857143 265.214285714 126.142857143 265.214285714 130 265 c 0,51,52
 181 262 181 262 200 212 c 1,53,-1
 206 200 l 1,54,55
 223 225 223 225 237 254 c 128,-1,56
 251 283 251 283 274 303 c 0,57,58
 297 322 297 322 324 333.5 c 128,-1,59
 351 345 351 345 380 351 c 0,60,61
 388 353 388 353 392.5 355.5 c 128,-1,62
 397 358 397 358 399 366 c 0,63,64
 404 392 404 392 410.5 416.5 c 128,-1,65
 417 441 417 441 422 465 c 0,66,67
 429 497 429 497 434.5 528.5 c 128,-1,68
 440 560 440 560 451 591 c 0,69,70
 452 593 452 593 455 599.5 c 128,-1,71
 458 606 458 606 460.5 613 c 128,-1,72
 463 620 463 620 463.5 626 c 128,-1,73
 464 632 464 632 460 632 c 0,74,75
 443 632 443 632 425.5 630 c 128,-1,76
 408 628 408 628 391 626 c 0,77,78
 356 623 356 623 322.5 619.5 c 128,-1,79
 289 616 289 616 255 611 c 0,80,81
 226 607 226 607 195 600.5 c 128,-1,82
 164 594 164 594 139 576 c 0,83,84
 119 562 119 562 111.5 537.5 c 0,85,86
 108.459459459 527.567567568 108.459459459 527.567567568 108.459459459 518.046018992 c 0,87,88
 108.459459459 504.081081081 108.459459459 504.081081081 115 491 c 0,89,90
 128 463 128 463 160 453 c 0,91,92
 175 450 175 450 190 453 c 0,93,94
 199 456 199 456 206 461 c 128,-1,95
 213 466 213 466 222 469 c 1,96,97
 222 458 222 458 216.5 453.5 c 128,-1,98
 211 449 211 449 202 444 c 256,99,100
 193 439 193 439 183 437.5 c 128,-1,101
 173 436 173 436 163 438 c 0,102,103
 140 443 140 443 123.5 458.5 c 128,-1,104
 107 474 107 474 100 496 c 0,105,106
 96.6315789474 506.947368421 96.6315789474 506.947368421 96.6315789474 517.628808864 c 0,107,108
 96.6315789474 532.315789474 96.6315789474 532.315789474 103 546.5 c 0,109,110
 114 571 114 571 134 587 c 0,111,112
 157 604 157 604 185.5 609.5 c 128,-1,113
 214 615 214 615 240 620 c 0,114,115
 272 625 272 625 303.5 627.5 c 128,-1,116
 335 630 335 630 367 634 c 2,117,-1
 432 640 l 1,118,-1
 464 644 l 2,119,120
 471 645 471 645 474.5 652.5 c 128,-1,121
 478 660 478 660 481 665 c 0,122,123
 495 689 495 689 508 714 c 128,-1,124
 521 739 521 739 540 759 c 0,125,126
 557 778 557 778 578.5 786 c 128,-1,127
 600 794 600 794 625 794 c 0,128,129
 639 794 639 794 649.5 783.5 c 128,-1,130
 660 773 660 773 664 761 c 0,0,1
260 29 m 0,131,132
 283 46 283 46 299 69.5 c 128,-1,133
 315 93 315 93 326 119 c 0,134,135
 338 148 338 148 347.5 178.5 c 128,-1,136
 357 209 357 209 365 239 c 2,137,-1
 383 303 l 2,138,139
 385 311 385 311 387.5 318 c 128,-1,140
 390 325 390 325 391 333 c 0,141,142
 392 340 392 340 384.5 338 c 128,-1,143
 377 336 377 336 374 335 c 0,144,145
 346 326 346 326 320 315.5 c 128,-1,146
 294 305 294 305 272 283 c 0,147,148
 254 265 254 265 240.5 242 c 128,-1,149
 227 219 227 219 219 194 c 0,150,151
 208 166 208 166 208 137 c 0,152,153
 208 135 208 135 206 133.5 c 128,-1,154
 204 132 204 132 203 131 c 0,155,156
 200 129 200 129 198.5 130.5 c 128,-1,157
 197 132 197 132 195 134 c 0,158,159
 191 139 191 139 192.5 149.5 c 128,-1,160
 194 160 194 160 195 165 c 0,161,162
 197 177 197 177 195.5 190 c 128,-1,163
 194 203 194 203 189 215 c 128,-1,164
 184 227 184 227 175 236 c 128,-1,165
 166 245 166 245 153 249 c 0,166,167
 138.846153846 253.923076923 138.846153846 253.923076923 123.934911243 253.923076923 c 0,168,169
 114.615384615 253.923076923 114.615384615 253.923076923 105 252 c 0,170,171
 80 247 80 247 63 231 c 0,172,173
 43 211 43 211 34 183.5 c 128,-1,174
 25 156 25 156 24 130 c 0,175,176
 23.9024390244 127.12195122 23.9024390244 127.12195122 23.9024390244 124.281975015 c 0,177,178
 23.9024390244 68.9024390244 23.9024390244 68.9024390244 61 28 c 0,179,180
 78 8 78 8 102 -0.5 c 128,-1,181
 126 -9 126 -9 153 -9 c 0,182,183
 157 -9 157 -9 169.5 -6.5 c 128,-1,184
 182 -4 182 -4 198 1 c 128,-1,185
 214 6 214 6 231 13 c 128,-1,186
 248 20 248 20 260 29 c 0,131,132
626 780 m 0,187,188
 617.090909091 782.227272727 617.090909091 782.227272727 608.890495868 782.227272727 c 0,189,190
 591.318181818 782.227272727 591.318181818 782.227272727 577 772 c 0,191,192
 553 755 553 755 540 726.5 c 128,-1,193
 527 698 527 698 520 672 c 0,194,195
 519 669 519 669 517 662.5 c 128,-1,196
 515 656 515 656 518 653 c 0,197,198
 520 650 520 650 527 652 c 128,-1,199
 534 654 534 654 536 655 c 0,200,201
 552 659 552 659 566.5 663.5 c 128,-1,202
 581 668 581 668 595 676 c 0,203,204
 610 684 610 684 624.5 698 c 128,-1,205
 639 712 639 712 646.5 727 c 128,-1,206
 654 742 654 742 651 756.5 c 128,-1,207
 648 771 648 771 626 780 c 0,187,188
EndSplineSet
Validated: 524289
EndChar

StartChar: U
Encoding: 85 85 24
Width: 667
Flags: W
LayerCount: 2
Back
Fore
SplineSet
437 144 m 0,0,1
 416 118 416 118 394 95 c 128,-1,2
 372 72 372 72 348 50 c 0,3,4
 326 31 326 31 297 17 c 128,-1,5
 268 3 268 3 242 -1 c 0,6,7
 230.4 -2.6 230.4 -2.6 218.88 -2.6 c 0,8,9
 201.6 -2.6 201.6 -2.6 184.5 1 c 0,10,11
 156 7 156 7 132 23 c 0,12,13
 110 38 110 38 94 60 c 0,14,15
 85 74 85 74 81 88 c 128,-1,16
 77 102 77 102 74 118 c 0,17,18
 68.88 138.48 68.88 138.48 68.88 159.5744 c 0,19,20
 68.88 171.44 68.88 171.44 70.5 183.5 c 0,21,22
 75 217 75 217 83 249 c 256,23,24
 91 281 91 281 105.5 310 c 128,-1,25
 120 339 120 339 137 368 c 256,26,27
 154 397 154 397 170 425 c 128,-1,28
 186 453 186 453 203 482 c 0,29,30
 211 496 211 496 218.5 509.5 c 128,-1,31
 226 523 226 523 234 537 c 0,32,33
 244 557 244 557 255.5 578.5 c 128,-1,34
 267 600 267 600 276 621.5 c 128,-1,35
 285 643 285 643 290.5 665.5 c 128,-1,36
 296 688 296 688 296 710 c 0,37,38
 296 723 296 723 295.5 736 c 128,-1,39
 295 749 295 749 288 761 c 0,40,41
 282 772 282 772 272.5 780.5 c 128,-1,42
 263 789 263 789 252 795 c 0,43,44
 227.783783784 808.837837838 227.783783784 808.837837838 203.567567568 808.837837838 c 0,45,-1
 196 808.5 l 0,46,47
 168 806 168 806 140 792 c 0,48,49
 114 778 114 778 91 760.5 c 128,-1,50
 68 743 68 743 51 718 c 0,51,52
 34 690 34 690 22.5 665.5 c 0,53,54
 13.9677419355 647.322580645 13.9677419355 647.322580645 13.9677419355 625.016649324 c 0,55,56
 13.9677419355 617.258064516 13.9677419355 617.258064516 15 609 c 0,57,58
 17 582 17 582 35 560 c 128,-1,59
 53 538 53 538 82 537 c 0,60,61
 108 537 108 537 133 553 c 128,-1,62
 158 569 158 569 169 592 c 0,63,64
 174 603 174 603 176 616 c 128,-1,65
 178 629 178 629 176 641 c 0,66,67
 175 646 175 646 178 650 c 128,-1,68
 181 654 181 654 186 655 c 0,69,70
 189 656 189 656 191.5 653.5 c 128,-1,71
 194 651 194 651 195.5 647 c 128,-1,72
 197 643 197 643 197.5 639 c 128,-1,73
 198 635 198 635 198 633 c 0,74,75
 200 619 200 619 195.5 605.5 c 128,-1,76
 191 592 191 592 183 581 c 256,77,78
 175 570 175 570 163 558.5 c 128,-1,79
 151 547 151 547 139 541 c 0,80,81
 117 529 117 529 91 527 c 0,82,83
 87.2857142857 526.714285714 87.2857142857 526.714285714 83.6530612245 526.714285714 c 0,84,85
 61.8571428571 526.714285714 61.8571428571 526.714285714 43 537 c 0,86,87
 15 552 15 552 6.5 577.5 c 0,88,89
 0.72 594.84 0.72 594.84 0.72 613.336 c 0,90,91
 0.72 622.04 0.72 622.04 2 631 c 0,92,93
 6 659 6 659 19 686 c 128,-1,94
 32 713 32 713 47 733 c 0,95,96
 63 755 63 755 90 774 c 128,-1,97
 117 793 117 793 140 804 c 0,98,99
 168 818 168 818 198.5 820 c 0,100,101
 203.583333333 820.333333333 203.583333333 820.333333333 208.625 820.333333333 c 0,102,103
 233.833333333 820.333333333 233.833333333 820.333333333 258 812 c 0,104,105
 310 793 310 793 331 740 c 0,106,107
 340 718.25 340 718.25 340 694.25 c 0,108,109
 340 686.25 340 686.25 339 678 c 0,110,111
 335 645 335 645 329 619 c 0,112,113
 316 562 316 562 298.5 523 c 128,-1,114
 281 484 281 484 255 446 c 0,115,116
 247 432 247 432 238.5 417.5 c 128,-1,117
 230 403 230 403 222 389 c 0,118,119
 205 360 205 360 191 331.5 c 128,-1,120
 177 303 177 303 164 272 c 0,121,122
 158 257 158 257 152.5 242 c 128,-1,123
 147 227 147 227 142 212 c 0,124,125
 137 195 137 195 134 179 c 128,-1,126
 131 163 131 163 127 146 c 0,127,128
 123.08 129.76 123.08 129.76 123.08 114.1472 c 0,129,130
 123.08 101.88 123.08 101.88 125.5 90 c 0,131,132
 131 63 131 63 152 40 c 0,133,134
 171 20 171 20 201 15 c 0,135,136
 212.538461538 13.0769230769 212.538461538 13.0769230769 223.337278107 13.0769230769 c 0,137,138
 240.615384615 13.0769230769 240.615384615 13.0769230769 256 18 c 0,139,140
 285 27 285 27 310 43.5 c 128,-1,141
 335 60 335 60 356 80 c 0,142,143
 377 101 377 101 398.5 124 c 128,-1,144
 420 147 420 147 437 173 c 0,145,146
 444 185 444 185 440.5 196.5 c 128,-1,147
 437 208 437 208 438 221 c 0,148,149
 438 239 438 239 437.5 256.5 c 128,-1,150
 437 274 437 274 437 291 c 0,151,152
 437 306 437 306 439 320.5 c 128,-1,153
 441 335 441 335 441 350 c 0,154,155
 442 368 442 368 443.5 385.5 c 128,-1,156
 445 403 445 403 449 420 c 0,157,158
 462 480 462 480 481 540.5 c 128,-1,159
 500 601 500 601 539 650 c 0,160,161
 547 660 547 660 557.5 668 c 128,-1,162
 568 676 568 676 579 681 c 0,163,164
 599 688 599 688 609 686.5 c 128,-1,165
 619 685 619 685 627 668 c 0,166,167
 634 654 634 654 635.5 639.5 c 128,-1,168
 637 625 637 625 635.5 610 c 128,-1,169
 634 595 634 595 631 580 c 128,-1,170
 628 565 628 565 625 551 c 0,171,172
 623 536 623 536 618.5 522 c 128,-1,173
 614 508 614 508 609 494 c 0,174,175
 604 477 604 477 598.5 460.5 c 128,-1,176
 593 444 593 444 587 427 c 0,177,178
 576 396 576 396 562 366 c 128,-1,179
 548 336 548 336 534 307 c 0,180,181
 526 292 526 292 518 278.5 c 128,-1,182
 510 265 510 265 502 251 c 0,183,184
 495 237 495 237 486 223.5 c 128,-1,185
 477 210 477 210 479 194 c 0,186,187
 481 162 481 162 485 132 c 128,-1,188
 489 102 489 102 497 72 c 0,189,190
 504 45 504 45 516 15 c 128,-1,191
 528 -15 528 -15 551 -33 c 0,192,193
 560 -39 560 -39 572 -44.5 c 128,-1,194
 584 -50 584 -50 595 -47 c 0,195,196
 608 -45 608 -45 619 -40.5 c 128,-1,197
 630 -36 630 -36 640 -28 c 256,198,199
 650 -20 650 -20 656 -10.5 c 128,-1,200
 662 -1 662 -1 668 10 c 0,201,202
 677 24 677 24 679.5 38.5 c 128,-1,203
 682 53 682 53 682 70 c 0,204,205
 682 73 682 73 680 79 c 128,-1,206
 678 85 678 85 676.5 90.5 c 128,-1,207
 675 96 675 96 676 100.5 c 128,-1,208
 677 105 677 105 683 106 c 0,209,210
 690 107 690 107 694 102 c 128,-1,211
 698 97 698 97 699 90 c 128,-1,212
 700 83 700 83 700 76 c 128,-1,213
 700 69 700 69 700 65 c 0,214,215
 700 38 700 38 686 12.5 c 128,-1,216
 672 -13 672 -13 655 -31 c 0,217,218
 633 -53 633 -53 608.5 -59 c 0,219,220
 598 -61.5714285714 598 -61.5714285714 587.591836735 -61.5714285714 c 0,221,222
 573.714285714 -61.5714285714 573.714285714 -61.5714285714 560 -57 c 0,223,224
 529 -46 529 -46 510.5 -19.5 c 128,-1,225
 492 7 492 7 480 36 c 0,226,227
 472 53 472 53 466 70.5 c 128,-1,228
 460 88 460 88 456 107 c 0,229,230
 455 109 455 109 453.5 117.5 c 128,-1,231
 452 126 452 126 450 134.5 c 128,-1,232
 448 143 448 143 444.5 147 c 128,-1,233
 441 151 441 151 437 144 c 0,0,1
610 673 m 0,234,235
 605 678 605 678 599 675.5 c 128,-1,236
 593 673 593 673 587.5 667 c 128,-1,237
 582 661 582 661 577 654.5 c 128,-1,238
 572 648 572 648 569 644 c 0,239,240
 550 617 550 617 537.5 585.5 c 128,-1,241
 525 554 525 554 514 522 c 256,242,243
 503 490 503 490 496.5 455.5 c 128,-1,244
 490 421 490 421 485 386 c 0,245,246
 480 356 480 356 480 328 c 128,-1,247
 480 300 480 300 478 273 c 0,248,249
 478 265 478 265 477 256 c 128,-1,250
 476 247 476 247 479 239 c 1,251,252
 495 256 495 256 506 283 c 128,-1,253
 517 310 517 310 527 329 c 0,254,255
 539 352 539 352 548.5 376 c 128,-1,256
 558 400 558 400 568 425 c 0,257,258
 579 454 579 454 592 491.5 c 128,-1,259
 605 529 605 529 613.5 565 c 0,260,261
 622.518518519 603.196078431 622.518518519 603.196078431 622.518518519 632.127572016 c 0,262,263
 622.518518519 659.518518519 622.518518519 659.518518519 610 673 c 0,234,235
EndSplineSet
Validated: 524289
EndChar

StartChar: V
Encoding: 86 86 25
Width: 480
Flags: W
LayerCount: 2
Back
Fore
SplineSet
16 578 m 0,0,1
 27 589 27 589 42.5 595 c 128,-1,2
 58 601 58 601 72 608 c 0,3,4
 94 619 94 619 116.5 624 c 128,-1,5
 139 629 139 629 161 636 c 0,6,7
 169 638 169 638 176.5 640.5 c 128,-1,8
 184 643 184 643 188 651 c 0,9,10
 195 664 195 664 197.5 678 c 128,-1,11
 200 692 200 692 206 705 c 0,12,13
 220 733 220 733 239 754 c 128,-1,14
 258 775 258 775 281 790 c 0,15,16
 292 796 292 796 308.5 797 c 128,-1,17
 325 798 325 798 336 790 c 0,18,19
 346 782 346 782 348.5 771.5 c 128,-1,20
 351 761 351 761 349.5 749.5 c 128,-1,21
 348 738 348 738 342.5 726.5 c 128,-1,22
 337 715 337 715 331 707 c 0,23,24
 317 690 317 690 301 680.5 c 128,-1,25
 285 671 285 671 268 662 c 0,26,27
 260 657 260 657 259 651.5 c 128,-1,28
 258 646 258 646 257 637 c 0,29,30
 256.111111111 622.777777778 256.111111111 622.777777778 256.111111111 608.456790123 c 0,31,32
 256.111111111 590.555555556 256.111111111 590.555555556 257.5 572.5 c 0,33,34
 260 540 260 540 261 508 c 0,35,36
 261 474 261 474 266 441 c 128,-1,37
 271 408 271 408 275 374 c 0,38,39
 280 343 280 343 285 312.5 c 128,-1,40
 290 282 290 282 298 251 c 128,-1,41
 306 220 306 220 312.5 189 c 128,-1,42
 319 158 319 158 330 129 c 1,43,44
 344 158 344 158 356 186.5 c 128,-1,45
 368 215 368 215 382 244 c 0,46,47
 397 275 397 275 410.5 305.5 c 128,-1,48
 424 336 424 336 438 367 c 0,49,50
 464 427 464 427 495.5 485 c 128,-1,51
 527 543 527 543 559 601 c 0,52,53
 574 628 574 628 590.5 655 c 128,-1,54
 607 682 607 682 624 709 c 0,55,56
 638 730 638 730 657 751 c 128,-1,57
 676 772 676 772 699 784 c 0,58,59
 715.085106383 792.340425532 715.085106383 792.340425532 730.992756904 792.340425532 c 0,60,61
 741.787234043 792.340425532 741.787234043 792.340425532 752.5 788.5 c 0,62,63
 779 779 779 779 796 755 c 0,64,65
 797 753 797 753 801 747.5 c 128,-1,66
 805 742 805 742 808.5 736.5 c 128,-1,67
 812 731 812 731 812.5 725.5 c 128,-1,68
 813 720 813 720 809 718 c 128,-1,69
 805 716 805 716 800.5 720 c 128,-1,70
 796 724 796 724 792 730 c 128,-1,71
 788 736 788 736 784.5 742 c 128,-1,72
 781 748 781 748 778 750 c 0,73,74
 767 760 767 760 754.5 762 c 128,-1,75
 742 764 742 764 729.5 760.5 c 128,-1,76
 717 757 717 757 704.5 750 c 128,-1,77
 692 743 692 743 683 734 c 0,78,79
 660 714 660 714 641 688 c 128,-1,80
 622 662 622 662 606 636 c 0,81,82
 572 582 572 582 542 526.5 c 128,-1,83
 512 471 512 471 481 415 c 0,84,85
 465 387 465 387 451.5 358.5 c 128,-1,86
 438 330 438 330 422 301 c 0,87,88
 407 272 407 272 394 242.5 c 128,-1,89
 381 213 381 213 367 184 c 0,90,91
 360 170 360 170 354.5 156 c 128,-1,92
 349 142 349 142 342 128 c 0,93,94
 334 114 334 114 336 98.5 c 128,-1,95
 338 83 338 83 339 68 c 0,96,97
 341 51 341 51 341 35.5 c 128,-1,98
 341 20 341 20 341 4 c 0,99,100
 341 -1 341 -1 339 -9 c 128,-1,101
 337 -17 337 -17 333 -24.5 c 128,-1,102
 329 -32 329 -32 324 -37.5 c 128,-1,103
 319 -43 319 -43 313 -43 c 0,104,105
 308 -44 308 -44 303 -41.5 c 128,-1,106
 298 -39 298 -39 295 -36 c 0,107,108
 290 -32 290 -32 289.5 -27 c 128,-1,109
 289 -22 289 -22 288 -17 c 0,110,111
 287.833333333 -14.1666666667 287.833333333 -14.1666666667 287.833333333 -11.375 c 0,112,113
 287.833333333 2.58333333333 287.833333333 2.58333333333 292 15.5 c 0,114,115
 297 31 297 31 302 47 c 0,116,117
 304 53 304 53 306.5 60 c 128,-1,118
 309 67 309 67 309 75 c 0,119,120
 308 81 308 81 305.5 86.5 c 128,-1,121
 303 92 303 92 301 97 c 0,122,123
 295 113 295 113 290.5 129 c 128,-1,124
 286 145 286 145 281 161 c 0,125,126
 272 191 272 191 262 221 c 128,-1,127
 252 251 252 251 243 281 c 0,128,129
 234 314 234 314 226.5 346.5 c 128,-1,130
 219 379 219 379 211 412 c 0,131,132
 208 428 208 428 204.5 443 c 128,-1,133
 201 458 201 458 198 474 c 0,134,135
 195 491 195 491 193.5 508.5 c 128,-1,136
 192 526 192 526 189 543 c 0,137,138
 186 559 186 559 184.5 573.5 c 0,139,140
 183.6 582.2 183.6 582.2 183.6 591.8 c 0,141,142
 183.6 598.2 183.6 598.2 184 605 c 0,143,144
 185 609 185 609 185.5 615 c 128,-1,145
 186 621 186 621 184 625 c 0,146,147
 181 629 181 629 173 626 c 128,-1,148
 165 623 165 623 163 622 c 0,149,150
 133 613 133 613 103.5 605.5 c 128,-1,151
 74 598 74 598 46 584 c 0,152,153
 23 571 23 571 12.5 547 c 0,154,155
 7.37209302326 535.279069767 7.37209302326 535.279069767 7.37209302326 523.319632234 c 0,156,157
 7.37209302326 510.790697674 7.37209302326 510.790697674 13 498 c 0,158,159
 20 484 20 484 29.5 475.5 c 128,-1,160
 39 467 39 467 54 467 c 0,161,162
 67 466 67 466 81.5 470 c 128,-1,163
 96 474 96 474 105 484 c 0,164,165
 116 495 116 495 119 513.5 c 128,-1,166
 122 532 122 532 122 547 c 0,167,168
 122 554 122 554 125.5 558 c 128,-1,169
 129 562 129 562 136 557 c 0,170,171
 142 553 142 553 142.5 543 c 128,-1,172
 143 533 143 533 142 528 c 0,173,174
 140 514 140 514 133.5 500 c 128,-1,175
 127 486 127 486 116.5 475.5 c 128,-1,176
 106 465 106 465 92.5 458.5 c 128,-1,177
 79 452 79 452 64 453 c 128,-1,178
 49 454 49 454 35 460 c 128,-1,179
 21 466 21 466 12 477 c 0,180,181
 -4.51428571429 499.342857143 -4.51428571429 499.342857143 -4.51428571429 527.347755102 c 0,182,183
 -4.51428571429 557.485714286 -4.51428571429 557.485714286 16 578 c 0,0,1
327 784 m 128,-1,185
 322 788 322 788 310.5 781 c 128,-1,186
 299 774 299 774 295 770 c 0,187,188
 281 758 281 758 272.5 734.5 c 128,-1,189
 264 711 264 711 262 693 c 0,190,191
 262 691 262 691 261 686.5 c 128,-1,192
 260 682 260 682 260.5 678.5 c 128,-1,193
 261 675 261 675 262.5 672.5 c 128,-1,194
 264 670 264 670 269 673 c 0,195,196
 278 679 278 679 287 685 c 128,-1,197
 296 691 296 691 305 696 c 0,198,199
 320 706 320 706 327 719.5 c 128,-1,200
 334 733 334 733 335.5 746 c 128,-1,201
 337 759 337 759 334.5 769.5 c 128,-1,184
 332 780 332 780 327 784 c 128,-1,185
297 -19 m 0,202,203
 297.267568486 -19.5351369721 297.267568486 -19.5351369721 297.53513692 -19.6765130637 c 0,204,205
 301.10252822 -24.2392323519 301.10252822 -24.2392323519 302.5 -27.5 c 0,206,207
 304 -31 304 -31 312 -28 c 128,-1,208
 320 -25 320 -25 322 -18.5 c 128,-1,209
 324 -12 324 -12 326 -4 c 0,210,211
 327 4 327 4 326 10.5 c 128,-1,212
 325 17 325 17 323 24 c 128,-1,213
 321 31 321 31 320 38.5 c 128,-1,214
 319 46 319 46 315 51 c 1,215,216
 310 45 310 45 309 37 c 128,-1,217
 308 29 308 29 306 22 c 0,218,219
 304 11 304 11 301.5 1.5 c 128,-1,220
 299 -8 299 -8 297 -19 c 0,202,203
297 -19 m 0,221,222
 297.273408448 -19.3417605605 297.273408448 -19.3417605605 297.53513692 -19.6765130637 c 0,223,224
 298.267568434 -20.0635103393 298.267568434 -20.0635103393 299 -17.5 c 0,225,226
 300 -14 300 -14 300 -11.5 c 128,-1,227
 300 -9 300 -9 299.5 -9.5 c 128,-1,228
 299 -10 299 -10 297 -19 c 0,221,222
EndSplineSet
Validated: 524293
EndChar

StartChar: W
Encoding: 87 87 26
Width: 891
Flags: W
LayerCount: 2
Back
Fore
SplineSet
561 451 m 0,0,1
 562 450 562 450 566.5 458.5 c 128,-1,2
 571 467 571 467 576.5 478 c 128,-1,3
 582 489 582 489 586.5 499 c 128,-1,4
 591 509 591 509 591 511 c 0,5,6
 592 516 592 516 593 524.5 c 128,-1,7
 594 533 594 533 593 540.5 c 128,-1,8
 592 548 592 548 587.5 552 c 128,-1,9
 583 556 583 556 574 553 c 0,10,11
 560 548 560 548 553.5 537 c 128,-1,12
 547 526 547 526 548 512 c 2,13,-1
 548 510.5 l 2,14,15
 548 504 548 504 548.5 492.5 c 128,-1,16
 549 481 549 481 552 469 c 128,-1,17
 555 457 555 457 561 451 c 0,0,1
655 14 m 0,18,19
 666 3 666 3 681 5 c 0,20,21
 696 6 696 6 708 18 c 128,-1,22
 720 30 720 30 718 46 c 0,23,24
 718 49 718 49 713.5 59 c 128,-1,25
 709 69 709 69 703.5 79 c 128,-1,26
 698 89 698 89 692.5 96 c 128,-1,27
 687 103 687 103 684 101 c 0,28,29
 677 95 677 95 672 86 c 128,-1,30
 667 77 667 77 662 70 c 0,31,32
 651 55 651 55 646 41.5 c 128,-1,33
 641 28 641 28 655 14 c 0,18,19
366 152 m 1,34,35
 352 132 352 132 341.5 109 c 128,-1,36
 331 86 331 86 319 65 c 0,37,38
 313 54 313 54 310.5 42 c 128,-1,39
 308 30 308 30 306 18 c 128,-1,40
 304 6 304 6 303.5 -7 c 128,-1,41
 303 -20 303 -20 310 -31 c 0,42,43
 316 -40 316 -40 325.5 -41.5 c 128,-1,44
 335 -43 335 -43 344 -37 c 0,45,46
 355 -29 355 -29 359 -18.5 c 128,-1,47
 363 -8 363 -8 365 5 c 0,48,49
 370 34 370 34 370.5 63.5 c 0,50,51
 370.979716631 91.8032812482 370.979716631 91.8032812482 370.999177162 119.646306404 c 0,52,53
 370.971314719 122.172111732 370.971314719 122.172111732 370 128 c 128,-1,54
 369 134 369 134 368 141 c 128,-1,55
 367 148 367 148 366 152 c 1,34,35
895 824 m 1,56,57
 908 819 908 819 921.5 816.5 c 128,-1,58
 935 814 935 814 948 807 c 0,59,60
 961 801 961 801 971.5 792.5 c 128,-1,61
 982 784 982 784 992 773 c 0,62,63
 1013 750 1013 750 1022.5 725 c 128,-1,64
 1032 700 1032 700 1036 670 c 0,65,66
 1037.77777778 655.777777778 1037.77777778 655.777777778 1037.77777778 641.75308642 c 0,67,68
 1037.77777778 624.222222222 1037.77777778 624.222222222 1035 607 c 0,69,70
 1030 576 1030 576 1019 546 c 128,-1,71
 1008 516 1008 516 991.5 488.5 c 128,-1,72
 975 461 975 461 957 436 c 0,73,74
 918 382 918 382 878 327 c 128,-1,75
 838 272 838 272 793 223 c 0,76,77
 790 220 790 220 779 208 c 128,-1,78
 768 196 768 196 756.5 183 c 128,-1,79
 745 170 745 170 735 158.5 c 128,-1,80
 725 147 725 147 724 144 c 0,81,82
 722 141 722 141 719.5 139.5 c 128,-1,83
 717 138 717 138 715 134 c 0,84,85
 713 129 713 129 715 125 c 128,-1,86
 717 121 717 121 719 116 c 0,87,88
 722 110 722 110 724.5 103.5 c 128,-1,89
 727 97 727 97 729 90 c 0,90,91
 730.8 80.4 730.8 80.4 730.8 70.26 c 0,92,93
 730.8 63.5 730.8 63.5 730 56.5 c 0,94,95
 728 39 728 39 724 23 c 0,96,97
 721 8 721 8 707 0.5 c 128,-1,98
 693 -7 693 -7 677.5 -7 c 128,-1,99
 662 -7 662 -7 649 0.5 c 128,-1,100
 636 8 636 8 635 24 c 0,101,102
 634.8 27.3 634.8 27.3 634.8 30.52 c 0,103,104
 634.8 59.5 634.8 59.5 651 82 c 0,105,106
 660 94 660 94 671 105 c 0,107,108
 678 113 678 113 677.5 117 c 128,-1,109
 677 121 677 121 672 129 c 0,110,111
 663 143 663 143 656 156.5 c 128,-1,112
 649 170 649 170 639 184 c 0,113,114
 629 200 629 200 621 215.5 c 128,-1,115
 613 231 613 231 605 248 c 0,116,117
 596 265 596 265 586.5 282.5 c 128,-1,118
 577 300 577 300 569 318 c 0,119,120
 560 335 560 335 553.5 354 c 128,-1,121
 547 373 547 373 539 390 c 1,122,123
 528 381 528 381 520 367 c 128,-1,124
 512 353 512 353 504 342 c 0,125,126
 482 313 482 313 461 287 c 0,127,128
 452 275 452 275 442 264 c 128,-1,129
 432 253 432 253 424 240 c 0,130,131
 421 235 421 235 422 228 c 128,-1,132
 423 221 423 221 423 216 c 0,133,134
 421 191 421 191 421 167 c 128,-1,135
 421 143 421 143 417 119 c 0,136,137
 415 102 415 102 414.5 83.5 c 128,-1,138
 414 65 414 65 409 50 c 128,-1,139
 404 35 404 35 399.5 19.5 c 128,-1,140
 395 4 395 4 389 -10 c 0,141,142
 384 -25 384 -25 374 -35 c 128,-1,143
 364 -45 364 -45 351 -54 c 0,144,145
 343 -60 343 -60 332 -57 c 128,-1,146
 321 -54 321 -54 313 -49 c 0,147,148
 302 -41 302 -41 297 -27 c 128,-1,149
 292 -13 292 -13 292 0 c 0,150,151
 292 14 292 14 296 27 c 128,-1,152
 300 40 300 40 304 54 c 0,153,154
 309 70 309 70 315.5 84 c 128,-1,155
 322 98 322 98 330 112 c 128,-1,156
 338 126 338 126 346.5 138 c 128,-1,157
 355 150 355 150 361 164 c 128,-1,158
 367 178 367 178 366 193 c 128,-1,159
 365 208 365 208 363 222 c 0,160,161
 361 255 361 255 359 288 c 128,-1,162
 357 321 357 321 352 353 c 0,163,164
 347 386 347 386 345.5 419.5 c 128,-1,165
 344 453 344 453 338 485 c 0,166,167
 332 516 332 516 325 544.5 c 128,-1,168
 318 573 318 573 305 601 c 0,169,170
 294 627 294 627 278 649 c 128,-1,171
 262 671 262 671 235 682 c 0,172,173
 216.548387097 689.806451613 216.548387097 689.806451613 197.089490114 689.806451613 c 0,174,175
 189.129032258 689.806451613 189.129032258 689.806451613 181 688.5 c 0,176,177
 153 684 153 684 128 674 c 0,178,179
 86 657 86 657 60 624.5 c 128,-1,180
 34 592 34 592 23 553 c 0,181,182
 18 537 18 537 14.5 522.5 c 128,-1,183
 11 508 11 508 10 491 c 0,184,185
 9 483 9 483 8.5 476 c 128,-1,186
 8 469 8 469 9 461 c 0,187,188
 9 458 9 458 11.5 448.5 c 128,-1,189
 14 439 14 439 11 437 c 0,190,191
 2 430 2 430 9 420 c 0,192,193
 14 414 14 414 16.5 408 c 128,-1,194
 19 402 19 402 21 395 c 0,195,196
 29 371 29 371 47 345.5 c 128,-1,197
 65 320 65 320 91 314 c 0,198,199
 105.5 310.5 105.5 310.5 119.375 310.5 c 128,-1,200
 133.25 310.5 133.25 310.5 146.5 314 c 0,201,202
 173 321 173 321 194 341 c 0,203,204
 209 355 209 355 219 378 c 0,205,206
 224 392 224 392 225 407.5 c 128,-1,207
 226 423 226 423 231 437 c 0,208,209
 233 441 233 441 237 446 c 128,-1,210
 241 451 241 451 246 449 c 128,-1,211
 251 447 251 447 253.5 440.5 c 128,-1,212
 256 434 256 434 257 429 c 0,213,214
 260 416 260 416 256.5 402 c 128,-1,215
 253 388 253 388 248 377 c 0,216,217
 237 352 237 352 217 336.5 c 128,-1,218
 197 321 197 321 172 311 c 0,219,220
 147.36 301.32 147.36 301.32 121.9456 301.32 c 0,221,222
 118.48 301.32 118.48 301.32 115 301.5 c 0,223,224
 86 303 86 303 60 320 c 0,225,226
 35 337 35 337 21 363.5 c 128,-1,227
 7 390 7 390 2 419 c 0,228,229
 -2.8 443.8 -2.8 443.8 -2.8 470.84 c 0,230,231
 -2.8 477.6 -2.8 477.6 -2.5 484.5 c 0,232,233
 -1 519 -1 519 10 548 c 0,234,235
 15 563 15 563 21.5 578 c 128,-1,236
 28 593 28 593 35 607 c 128,-1,237
 42 621 42 621 54 634.5 c 128,-1,238
 66 648 66 648 77 659 c 0,239,240
 109 688 109 688 150.5 697.5 c 0,241,242
 169.731707317 701.902439024 169.731707317 701.902439024 189.070791196 701.902439024 c 0,243,244
 211.463414634 701.902439024 211.463414634 701.902439024 234 696 c 0,245,246
 270 688 270 688 302 666 c 128,-1,247
 334 644 334 644 353 611 c 0,248,249
 374 573 374 573 385 530.5 c 128,-1,250
 396 488 396 488 404 446 c 0,251,252
 409 423 409 423 412.5 400.5 c 128,-1,253
 416 378 416 378 418 355 c 128,-1,254
 420 332 420 332 421 308 c 128,-1,255
 422 284 422 284 425 260 c 1,256,257
 447 286 447 286 467 312.5 c 128,-1,258
 487 339 487 339 507 365 c 0,259,260
 512 371 512 371 516 377.5 c 128,-1,261
 520 384 520 384 525 390 c 0,262,263
 529 395 529 395 532.5 399.5 c 128,-1,264
 536 404 536 404 534 411 c 0,265,266
 530 428 530 428 526 443.5 c 128,-1,267
 522 459 522 459 520 476 c 0,268,269
 518 489 518 489 518 501.5 c 128,-1,270
 518 514 518 514 522 526 c 0,271,272
 526 537 526 537 534 548 c 0,273,274
 539 553 539 553 544 559.5 c 128,-1,275
 549 566 549 566 554 570 c 0,276,277
 562 576 562 576 573 574.5 c 128,-1,278
 584 573 584 573 592 566 c 0,279,280
 603 557 603 557 606 544 c 128,-1,281
 609 531 609 531 605 517 c 0,282,283
 601 504 601 504 596.5 491.5 c 128,-1,284
 592 479 592 479 585 467 c 0,285,286
 577 453 577 453 571 441 c 128,-1,287
 565 429 565 429 573 412 c 0,288,289
 579 398 579 398 584 383.5 c 128,-1,290
 589 369 589 369 596 355 c 0,291,292
 602 340 602 340 609.5 325 c 128,-1,293
 617 310 617 310 625 296 c 0,294,295
 639 265 639 265 655 236 c 128,-1,296
 671 207 671 207 688 178 c 0,297,298
 692 171 692 171 695.5 164.5 c 128,-1,299
 699 158 699 158 703 150 c 0,300,301
 707 144 707 144 709.5 146.5 c 128,-1,302
 712 149 712 149 716 153 c 0,303,304
 727 166 727 166 738.5 178 c 128,-1,305
 750 190 750 190 761 203 c 0,306,307
 805 254 805 254 842 308.5 c 128,-1,308
 879 363 879 363 918 417 c 0,309,310
 927 430 927 430 934 442.5 c 128,-1,311
 941 455 941 455 949 469 c 128,-1,312
 957 483 957 483 964.5 496.5 c 128,-1,313
 972 510 972 510 977 525 c 128,-1,314
 982 540 982 540 985.5 554.5 c 128,-1,315
 989 569 989 569 992 584 c 0,316,317
 998 615 998 615 999.5 644.5 c 0,318,319
 999.714285714 648.714285714 999.714285714 648.714285714 999.714285714 652.897959184 c 0,320,321
 999.714285714 678 999.714285714 678 992 702 c 0,322,323
 987 716 987 716 981.5 728.5 c 128,-1,324
 976 741 976 741 967 752 c 0,325,326
 950 774 950 774 923.5 790.5 c 128,-1,327
 897 807 897 807 868 809 c 0,328,329
 864.4 809.266666667 864.4 809.266666667 860.817777778 809.266666667 c 0,330,331
 837.533333333 809.266666667 837.533333333 809.266666667 815 798 c 0,332,333
 789 785 789 785 773.5 763.5 c 128,-1,334
 758 742 758 742 755.5 715 c 0,335,336
 755.209302326 711.860465116 755.209302326 711.860465116 755.209302326 708.747971877 c 0,337,338
 755.209302326 685.093023256 755.209302326 685.093023256 772 663 c 0,339,340
 780 654 780 654 788.5 646 c 128,-1,341
 797 638 797 638 808 633 c 0,342,343
 813 630 813 630 814.5 623.5 c 128,-1,344
 816 617 816 617 811 615 c 128,-1,345
 806 613 806 613 800 612.5 c 128,-1,346
 794 612 794 612 790 617 c 0,347,348
 779 628 779 628 769.5 638.5 c 128,-1,349
 760 649 760 649 752 662 c 0,350,351
 745 675 745 675 743.5 688 c 128,-1,352
 742 701 742 701 743 715 c 0,353,354
 744 743 744 743 759.5 764 c 128,-1,355
 775 785 775 785 798 799 c 0,356,357
 809 805 809 805 820.5 809.5 c 128,-1,358
 832 814 832 814 843 819 c 0,359,360
 856 824 856 824 868.5 824 c 128,-1,361
 881 824 881 824 895 824 c 1,56,57
EndSplineSet
Validated: 524289
EndChar

StartChar: X
Encoding: 88 88 27
Width: 597
Flags: W
LayerCount: 2
Back
Fore
SplineSet
131 85 m 0,0,1
 116 66 116 66 101.5 43.5 c 128,-1,2
 87 21 87 21 83 -4 c 0,3,4
 81.7692307692 -11.3846153846 81.7692307692 -11.3846153846 81.7692307692 -18.4378698225 c 0,5,6
 81.7692307692 -34.3076923077 81.7692307692 -34.3076923077 88 -48.5 c 0,7,8
 97 -69 97 -69 117 -82 c 0,9,10
 128 -89 128 -89 141 -89.5 c 128,-1,11
 154 -90 154 -90 167 -86 c 128,-1,12
 180 -82 180 -82 191.5 -75.5 c 128,-1,13
 203 -69 203 -69 212 -61 c 0,14,15
 256 -24 256 -24 288 22.5 c 128,-1,16
 320 69 320 69 342 121 c 0,17,18
 348 135 348 135 353 148 c 128,-1,19
 358 161 358 161 362 175 c 0,20,21
 364 180 364 180 366.5 184 c 128,-1,22
 369 188 369 188 372 192 c 0,23,24
 374 193 374 193 373 201 c 128,-1,25
 372 209 372 209 373 212 c 0,26,27
 375 216 375 216 376.5 220 c 128,-1,28
 378 224 378 224 380 229 c 0,29,30
 382 235 382 235 382 242 c 128,-1,31
 382 249 382 249 383 256 c 0,32,33
 384 271 384 271 385.5 287.5 c 0,34,35
 386 293 386 293 386 298.333333333 c 0,36,37
 386 309 386 309 384 319 c 1,38,39
 376 315 376 315 368.5 308.5 c 128,-1,40
 361 302 361 302 354 296 c 0,41,42
 346 290 346 290 340 284 c 128,-1,43
 334 278 334 278 324 279 c 1,44,45
 328 290 328 290 340 297.5 c 128,-1,46
 352 305 352 305 362 312 c 0,47,48
 367 316 367 316 372 319.5 c 128,-1,49
 377 323 377 323 382 328 c 0,50,51
 388 333 388 333 389 339.5 c 128,-1,52
 390 346 390 346 392 354 c 0,53,54
 396 369 396 369 400.5 384.5 c 128,-1,55
 405 400 405 400 406 415 c 0,56,57
 408 430 408 430 409 446.5 c 0,58,59
 409.333333333 452 409.333333333 452 409.333333333 457.333333333 c 0,60,61
 409.333333333 468 409.333333333 468 408 478 c 0,62,63
 403 510 403 510 397.5 542.5 c 128,-1,64
 392 575 392 575 380 605 c 0,65,66
 375 617 375 617 370.5 629.5 c 128,-1,67
 366 642 366 642 360 653 c 0,68,69
 353 667 353 667 344 677 c 128,-1,70
 335 687 335 687 325 698 c 0,71,72
 316 710 316 710 308.5 717.5 c 128,-1,73
 301 725 301 725 289 732 c 0,74,75
 276 741 276 741 263.5 747.5 c 128,-1,76
 251 754 251 754 236 758 c 0,77,78
 221 761 221 761 206 764.5 c 128,-1,79
 191 768 191 768 176 766 c 0,80,81
 162 764 162 764 147 759.5 c 128,-1,82
 132 755 132 755 119 749 c 0,83,84
 94 738 94 738 73.5 718.5 c 128,-1,85
 53 699 53 699 39 676 c 0,86,87
 23 649 23 649 18 618 c 128,-1,88
 13 587 13 587 13 556 c 0,89,90
 12.8461538462 551.538461538 12.8461538462 551.538461538 12.8461538462 547.041420118 c 0,91,92
 12.8461538462 522.307692308 12.8461538462 522.307692308 17.5 496.5 c 0,93,94
 23 466 23 466 42 443 c 0,95,96
 59 423 59 423 83 407 c 128,-1,97
 107 391 107 391 133 383 c 0,98,99
 148.36 377.88 148.36 377.88 163.1056 377.88 c 0,100,101
 171.4 377.88 171.4 377.88 179.5 379.5 c 0,102,103
 202 384 202 384 220 396.5 c 128,-1,104
 238 409 238 409 250 428.5 c 128,-1,105
 262 448 262 448 265 471 c 0,106,107
 267 480 267 480 266 488.5 c 128,-1,108
 265 497 265 497 263 504.5 c 128,-1,109
 261 512 261 512 259.5 520 c 128,-1,110
 258 528 258 528 259 536 c 0,111,112
 259 541 259 541 262 546.5 c 128,-1,113
 265 552 265 552 270 554 c 0,114,115
 276 556 276 556 281 549 c 128,-1,116
 286 542 286 542 288 537 c 0,117,118
 295 524 295 524 294 509 c 128,-1,119
 293 494 293 494 291 480 c 0,120,121
 288 466 288 466 282.5 453 c 128,-1,122
 277 440 277 440 269 428 c 0,123,124
 260 414 260 414 249.5 405 c 128,-1,125
 239 396 239 396 226 386 c 0,126,127
 203 368 203 368 174.5 366.5 c 0,128,129
 170.613636364 366.295454545 170.613636364 366.295454545 166.736570248 366.295454545 c 0,130,131
 142.181818182 366.295454545 142.181818182 366.295454545 118 374.5 c 0,132,133
 90 384 90 384 66 402.5 c 128,-1,134
 42 421 42 421 29 443 c 0,135,136
 14 469 14 469 7.5 500 c 128,-1,137
 1 531 1 531 0 560 c 0,138,139
 -0.125 563.625 -0.125 563.625 -0.125 567.265625 c 0,140,141
 -0.125 592.75 -0.125 592.75 6 619 c 0,142,143
 13 649 13 649 26 675 c 128,-1,144
 39 701 39 701 61 721 c 128,-1,145
 83 741 83 741 109.5 753.5 c 128,-1,146
 136 766 136 766 165 771.5 c 0,147,148
 183.764705882 775.058823529 183.764705882 775.058823529 202.529411765 775.058823529 c 2,149,-1
 223 774 l 2,150,151
 254 771 254 771 281 758 c 128,-1,152
 308 745 308 745 331 726 c 128,-1,153
 354 707 354 707 373.5 683.5 c 128,-1,154
 393 660 393 660 410 636 c 0,155,156
 418 624 418 624 423.5 611 c 128,-1,157
 429 598 429 598 435 585 c 0,158,159
 438 578 438 578 441 571 c 128,-1,160
 444 564 444 564 447 556 c 0,161,162
 448 554 448 554 449 550.5 c 128,-1,163
 450 547 450 547 451.5 544.5 c 128,-1,164
 453 542 453 542 455 541.5 c 128,-1,165
 457 541 457 541 460 545 c 0,166,167
 478 570 478 570 493 594 c 128,-1,168
 508 618 508 618 533 637 c 0,169,170
 550 650 550 650 564.5 662.5 c 128,-1,171
 579 675 579 675 600 680 c 0,172,173
 614 683 614 683 630 684 c 128,-1,174
 646 685 646 685 654 682 c 0,175,176
 659 680 659 680 665 677.5 c 128,-1,177
 671 675 671 675 670 670 c 128,-1,178
 669 665 669 665 662.5 667 c 128,-1,179
 656 669 656 669 651 669 c 0,180,181
 640 669 640 669 633 670 c 128,-1,182
 626 671 626 671 619 670.5 c 128,-1,183
 612 670 612 670 604.5 667.5 c 128,-1,184
 597 665 597 665 587 658 c 0,185,186
 569 645 569 645 555 626 c 128,-1,187
 541 607 541 607 527 590 c 0,188,189
 513 571 513 571 500.5 550 c 128,-1,190
 488 529 488 529 480 506 c 0,191,192
 476 497 476 497 472 488.5 c 128,-1,193
 468 480 468 480 467 470 c 0,194,195
 467 453 467 453 468 434.5 c 128,-1,196
 469 416 469 416 471 401 c 0,197,198
 472 396 472 396 476 399 c 128,-1,199
 480 402 480 402 482 403 c 0,200,201
 512 429 512 429 540.5 452.5 c 128,-1,202
 569 476 569 476 593 504 c 0,203,204
 616 530 616 530 637 560 c 128,-1,205
 658 590 658 590 667 622 c 0,206,207
 669 635 669 635 669.5 643 c 128,-1,208
 670 651 670 651 667 663 c 1,209,210
 675 661 675 661 677.5 660 c 128,-1,211
 680 659 680 659 681 651 c 0,212,213
 681 627 681 627 674 607.5 c 128,-1,214
 667 588 667 588 657 567 c 0,215,216
 645 544 645 544 622.5 519.5 c 128,-1,217
 600 495 600 495 574 471 c 128,-1,218
 548 447 548 447 521.5 426 c 128,-1,219
 495 405 495 405 476 389 c 0,220,221
 467 381 467 381 467 365.5 c 128,-1,222
 467 350 467 350 466 339 c 0,223,224
 460 307 460 307 454.5 276.5 c 128,-1,225
 449 246 449 246 440 217 c 0,226,227
 438 210 438 210 436 203 c 128,-1,228
 434 196 434 196 433 189 c 0,229,230
 431 181 431 181 435 172 c 128,-1,231
 439 163 439 163 442 155 c 0,232,233
 447 141 447 141 451.5 126.5 c 128,-1,234
 456 112 456 112 463 98 c 0,235,236
 469 84 469 84 477.5 72 c 128,-1,237
 486 60 486 60 494 48 c 0,238,239
 517 16 517 16 545.5 -5 c 128,-1,240
 574 -26 574 -26 612 -26 c 0,241,242
 617 -26 617 -26 623 -26 c 128,-1,243
 629 -26 629 -26 634 -30 c 0,244,245
 640 -36 640 -36 636.5 -39.5 c 128,-1,246
 633 -43 633 -43 625.5 -45.5 c 128,-1,247
 618 -48 618 -48 609.5 -48.5 c 128,-1,248
 601 -49 601 -49 599 -48 c 0,249,250
 582 -46 582 -46 565.5 -38 c 128,-1,251
 549 -30 549 -30 535 -22 c 0,252,253
 506 -8 506 -8 486 17 c 0,254,255
 475 31 475 31 465 45 c 128,-1,256
 455 59 455 59 445 74 c 0,257,258
 436 88 436 88 430.5 103 c 128,-1,259
 425 118 425 118 417 132 c 1,260,261
 415 129 415 129 411.5 129 c 128,-1,262
 408 129 408 129 404 129.5 c 128,-1,263
 400 130 400 130 398 128 c 128,-1,264
 396 126 396 126 398 119 c 0,265,266
 400 113 400 113 402 111 c 128,-1,267
 404 109 404 109 399 102 c 0,268,269
 394 94 394 94 389 87 c 128,-1,270
 384 80 384 80 379 72 c 0,271,272
 362 46 362 46 343 22.5 c 128,-1,273
 324 -1 324 -1 301 -23 c 0,274,275
 280 -43 280 -43 255.5 -61 c 128,-1,276
 231 -79 231 -79 204 -89 c 0,277,278
 179.454545455 -98.0909090909 179.454545455 -98.0909090909 151.603305785 -98.0909090909 c 0,279,280
 148.818181818 -98.0909090909 148.818181818 -98.0909090909 146 -98 c 0,281,282
 115 -97 115 -97 94 -75 c 0,283,284
 75 -57 75 -57 71.5 -30.5 c 0,285,286
 70.5925925926 -23.6296296296 70.5925925926 -23.6296296296 70.5925925926 -16.9945130316 c 0,287,288
 70.5925925926 1.96296296296 70.5925925926 1.96296296296 78 19 c 0,289,290
 91 50 91 50 109.5 74.5 c 128,-1,291
 128 99 128 99 147 122 c 0,292,293
 156 133 156 133 166 143.5 c 128,-1,294
 176 154 176 154 187 164 c 0,295,296
 199 175 199 175 210 186.5 c 128,-1,297
 221 198 221 198 233 209 c 2,298,-1
 284 251 l 2,299,300
 289 256 289 256 293.5 260 c 128,-1,301
 298 264 298 264 303 269 c 0,302,303
 305 271 305 271 310 267 c 0,304,305
 314.152729655 263.677816276 314.152729655 263.677816276 316.925844864 266.563892749 c 1,306,307
 306.157541298 252.446382083 306.157541298 252.446382083 289.5 241.5 c 0,308,309
 272 230 272 230 258 216 c 0,310,311
 250 209 250 209 243 202.5 c 128,-1,312
 236 196 236 196 228 189 c 0,313,314
 205 169 205 169 178.5 141.5 c 128,-1,315
 152 114 152 114 131 85 c 0,0,1
316.925844864 266.563892749 m 1,316,317
 317.491636434 267.15273096 317.491636434 267.15273096 318 268 c 1,318,319
 317.470453676 267.277891376 317.470453676 267.277891376 316.925844864 266.563892749 c 1,316,317
EndSplineSet
Validated: 524289
EndChar

StartChar: Y
Encoding: 89 89 28
Width: 445
Flags: W
LayerCount: 2
Back
Fore
SplineSet
246 723 m 0,0,1
 263 699 263 699 263 669 c 128,-1,2
 263 639 263 639 258 612 c 0,3,4
 255 596 255 596 250.5 582 c 128,-1,5
 246 568 246 568 241 553 c 0,6,7
 224 508 224 508 205.5 459 c 128,-1,8
 187 410 187 410 177 364 c 0,9,10
 173 350 173 350 170.5 334.5 c 128,-1,11
 168 319 168 319 168 304 c 0,12,13
 168 293 168 293 172.5 279 c 128,-1,14
 177 265 177 265 190 261 c 0,15,16
 202 258 202 258 216.5 262 c 128,-1,17
 231 266 231 266 245 273 c 128,-1,18
 259 280 259 280 271 288.5 c 128,-1,19
 283 297 283 297 291 303 c 0,20,21
 312 320 312 320 333 337 c 128,-1,22
 354 354 354 354 368 378 c 0,23,24
 376 391 376 391 379 404 c 128,-1,25
 382 417 382 417 384 431 c 0,26,27
 390 465 390 465 399 500 c 0,28,29
 407 532 407 532 416 564 c 128,-1,30
 425 596 425 596 436 628 c 0,31,32
 441 643 441 643 446.5 657.5 c 128,-1,33
 452 672 452 672 460 686 c 0,34,35
 466 697 466 697 473.5 707.5 c 128,-1,36
 481 718 481 718 495 719 c 0,37,38
 512 720 512 720 518.5 710.5 c 128,-1,39
 525 701 525 701 526 686.5 c 128,-1,40
 527 672 527 672 524 656.5 c 128,-1,41
 521 641 521 641 519 632 c 0,42,43
 511 603 511 603 498.5 575.5 c 128,-1,44
 486 548 486 548 472 522 c 0,45,46
 466 509 466 509 458.5 497.5 c 128,-1,47
 451 486 451 486 444 474 c 0,48,49
 436 459 436 459 432 442.5 c 128,-1,50
 428 426 428 426 424 409 c 0,51,52
 415 377 415 377 407.5 344.5 c 128,-1,53
 400 312 400 312 389 281 c 0,54,55
 369 219 369 219 345 160 c 128,-1,56
 321 101 321 101 282 48 c 0,57,58
 265 25 265 25 243 4.5 c 128,-1,59
 221 -16 221 -16 195 -28 c 256,60,61
 169 -40 169 -40 137.5 -42.5 c 0,62,63
 131.2 -43 131.2 -43 125.08 -43 c 0,64,65
 100.6 -43 100.6 -43 79 -35 c 0,66,67
 54 -26 54 -26 36 -7 c 128,-1,68
 18 12 18 12 9 35.5 c 0,69,70
 0.473684210526 57.7631578947 0.473684210526 57.7631578947 0.473684210526 81.8213296399 c 0,71,72
 0.473684210526 108.947368421 0.473684210526 108.947368421 13 134 c 0,73,74
 24 157 24 157 46.5 173 c 128,-1,75
 69 189 69 189 95 194 c 0,76,77
 100.333333333 194.96969697 100.333333333 194.96969697 105.754820937 194.96969697 c 0,78,79
 122.696969697 194.96969697 122.696969697 194.96969697 140.5 185.5 c 0,80,81
 164 173 164 173 170 150 c 256,82,83
 175.142857143 130.285714286 175.142857143 130.285714286 175.142857143 108 c 0,84,85
 175.142857143 104.285714286 175.142857143 104.285714286 175 100.5 c 0,86,87
 174 74 174 74 153 58 c 0,88,89
 142 49 142 49 128.5 46 c 128,-1,90
 115 43 115 43 101 45 c 0,91,92
 94 47 94 47 88 48.5 c 128,-1,93
 82 50 82 50 78 55 c 256,94,95
 74 60 74 60 77 64.5 c 128,-1,96
 80 69 80 69 85 69 c 0,97,98
 92 71 92 71 97 67.5 c 128,-1,99
 102 64 102 64 108 62 c 0,100,101
 117 59 117 59 131 61 c 0,102,103
 146 65 146 65 153 75.5 c 128,-1,104
 160 86 160 86 163 100 c 0,105,106
 164.666666667 107.666666667 164.666666667 107.666666667 164.666666667 115.222222222 c 0,107,108
 164.666666667 130.333333333 164.666666667 130.333333333 158 145 c 0,109,110
 148 167 148 167 125 177 c 0,111,112
 113 182 113 182 100.5 181 c 128,-1,113
 88 180 88 180 76.5 174.5 c 128,-1,114
 65 169 65 169 55.5 160 c 128,-1,115
 46 151 46 151 39 142 c 0,116,117
 18.5454545455 112 18.5454545455 112 18.5454545455 78.7458677686 c 0,118,119
 18.5454545455 63.2272727273 18.5454545455 63.2272727273 23 47 c 0,120,121
 31 18 31 18 50 -0.5 c 128,-1,122
 69 -19 69 -19 93.5 -25.5 c 0,123,124
 107.977272727 -29.3409090909 107.977272727 -29.3409090909 123.152892562 -29.3409090909 c 0,125,126
 133.659090909 -29.3409090909 133.659090909 -29.3409090909 144.5 -27.5 c 0,127,128
 171 -23 171 -23 195 -7 c 0,129,130
 220 10 220 10 239 29.5 c 128,-1,131
 258 49 258 49 271 76 c 0,132,133
 278 90 278 90 283.5 103.5 c 128,-1,134
 289 117 289 117 294 132 c 0,135,136
 299 148 299 148 304.5 164 c 128,-1,137
 310 180 310 180 315 196 c 0,138,139
 322 215 322 215 329 233 c 128,-1,140
 336 251 336 251 342 270 c 0,141,142
 345 281 345 281 348 290.5 c 128,-1,143
 351 300 351 300 353 311 c 0,144,145
 355 320 355 320 359 328 c 128,-1,146
 363 336 363 336 360 345 c 1,147,148
 347 336 347 336 336 325.5 c 128,-1,149
 325 315 325 315 314 304.5 c 128,-1,150
 303 294 303 294 291.5 284.5 c 128,-1,151
 280 275 280 275 266 268 c 0,152,153
 254 261 254 261 240 254 c 128,-1,154
 226 247 226 247 211 242.5 c 128,-1,155
 196 238 196 238 181 238.5 c 128,-1,156
 166 239 166 239 153 247 c 0,157,158
 125 264 125 264 117 290.5 c 0,159,160
 109.888888889 314.055555556 109.888888889 314.055555556 109.888888889 340.37654321 c 0,161,162
 109.888888889 343.666666667 109.888888889 343.666666667 110 347 c 0,163,164
 111 363 111 363 115.5 377.5 c 128,-1,165
 120 392 120 392 123 407 c 0,166,167
 127 423 127 423 132 437.5 c 128,-1,168
 137 452 137 452 143 467 c 0,169,170
 160 508 160 508 173.5 533 c 128,-1,171
 187 558 187 558 200 581 c 0,172,173
 213 606 213 606 220 633 c 0,174,175
 224.454545455 650.181818182 224.454545455 650.181818182 224.454545455 668.173553719 c 0,176,177
 224.454545455 678.454545455 224.454545455 678.454545455 223 689 c 0,178,179
 220 712 220 712 208.5 728.5 c 128,-1,180
 197 745 197 745 173 749 c 0,181,182
 164.724137931 750.103448276 164.724137931 750.103448276 156.866825208 750.103448276 c 0,183,184
 136.24137931 750.103448276 136.24137931 750.103448276 118.5 742.5 c 0,185,186
 94 732 94 732 75 711 c 0,187,188
 47 681 47 681 29 640 c 0,189,190
 12.8 603.1 12.8 603.1 12.8 563.77 c 0,191,192
 12.8 559.4 12.8 559.4 13 555 c 0,193,194
 14 543 14 543 22 531 c 128,-1,195
 30 519 30 519 46 520 c 0,196,197
 75 522 75 522 93 543.5 c 128,-1,198
 111 565 111 565 118 591 c 0,199,200
 120 598 120 598 121 604.5 c 128,-1,201
 122 611 122 611 123 618 c 0,202,203
 123 627 123 627 128.5 627.5 c 128,-1,204
 134 628 134 628 138 624 c 0,205,206
 146 616 146 616 142.5 598 c 128,-1,207
 139 580 139 580 133 572 c 0,208,209
 125 561 125 561 119 550 c 128,-1,210
 113 539 113 539 103 530 c 0,211,212
 84 511 84 511 57 506 c 0,213,214
 42 503 42 503 30.5 509.5 c 128,-1,215
 19 516 19 516 11.5 527.5 c 128,-1,216
 4 539 4 539 1 553 c 128,-1,217
 -2 567 -2 567 0 580 c 0,218,219
 5 611 5 611 14.5 640 c 128,-1,220
 24 669 24 669 42 695 c 0,221,222
 59 718 59 718 84 735.5 c 128,-1,223
 109 753 109 753 136 760 c 0,224,225
 150.736842105 763.368421053 150.736842105 763.368421053 164.32132964 763.368421053 c 0,226,227
 183 763.368421053 183 763.368421053 199.5 757 c 0,228,229
 228 746 228 746 246 723 c 0,0,1
452 514 m 1,230,231
 466 535 466 535 477 557 c 128,-1,232
 488 579 488 579 497 602 c 0,233,234
 507 627 507 627 512 653 c 0,235,236
 514 662 514 662 517 678 c 128,-1,237
 520 694 520 694 513 702 c 0,238,239
 510 705 510 705 506.5 701.5 c 128,-1,240
 503 698 503 698 500 691.5 c 128,-1,241
 497 685 497 685 494.5 678.5 c 128,-1,242
 492 672 492 672 491 670 c 0,243,244
 486 658 486 658 482.5 646 c 128,-1,245
 479 634 479 634 475 621 c 0,246,247
 469 595 469 595 464.5 567.5 c 128,-1,248
 460 540 460 540 452 514 c 1,230,231
EndSplineSet
Validated: 524289
EndChar

StartChar: D
Encoding: 68 68 29
Width: 659
Flags: W
LayerCount: 2
Back
Fore
SplineSet
9 35 m 0,0,1
 17 56 17 56 38 68 c 128,-1,2
 59 80 59 80 81 82 c 0,3,4
 83.2666666667 82.1333333333 83.2666666667 82.1333333333 85.5422222222 82.1333333333 c 0,5,6
 100.333333333 82.1333333333 100.333333333 82.1333333333 115.5 76.5 c 0,7,8
 128.882352941 71.5294117647 128.882352941 71.5294117647 140.21799308 71.5294117647 c 0,9,10
 143.705882353 71.5294117647 143.705882353 71.5294117647 147 72 c 0,11,12
 150 73 150 73 155 90.5 c 128,-1,13
 160 108 160 108 165.5 129.5 c 128,-1,14
 171 151 171 151 175 170.5 c 128,-1,15
 179 190 179 190 180 195 c 0,16,17
 188 221 188 221 194.5 247 c 128,-1,18
 201 273 201 273 207 300 c 0,19,20
 218 350 218 350 234 399 c 128,-1,21
 250 448 250 448 273 494 c 0,22,23
 284 516 284 516 300 535.5 c 128,-1,24
 316 555 316 555 336 568 c 0,25,26
 337 569 337 569 342 572 c 128,-1,27
 347 575 347 575 352 577.5 c 128,-1,28
 357 580 357 580 361 580 c 128,-1,29
 365 580 365 580 365 575 c 256,30,31
 365 570 365 570 361 565.5 c 128,-1,32
 357 561 357 561 355 557 c 2,33,-1
 340 533 l 2,34,35
 312 488 312 488 297.5 437.5 c 128,-1,36
 283 387 283 387 271 340 c 0,37,38
 258 289 258 289 244 238.5 c 128,-1,39
 230 188 230 188 216 137 c 0,40,41
 215 134 215 134 211 121 c 128,-1,42
 207 108 207 108 202.5 93 c 128,-1,43
 198 78 198 78 194.5 66 c 128,-1,44
 191 54 191 54 191 54 c 1,45,46
 202 49 202 49 214.5 46 c 128,-1,47
 227 43 227 43 239 39 c 0,48,49
 257 33 257 33 277 32 c 0,50,51
 281.444444444 31.7777777778 281.444444444 31.7777777778 285.888888889 31.7777777778 c 0,52,-1
 317 34.5 l 0,53,54
 337 38 337 38 355 45 c 128,-1,55
 373 52 373 52 388 60 c 0,56,57
 431 83 431 83 462 121 c 128,-1,58
 493 159 493 159 513 198 c 0,59,60
 535 240 535 240 550 292 c 128,-1,61
 565 344 565 344 567 397.5 c 0,62,63
 567.258064516 404.403225806 567.258064516 404.403225806 567.258064516 411.24817898 c 0,64,65
 567.258064516 457.451612903 567.258064516 457.451612903 555.5 501 c 0,66,67
 542 551 542 551 509 587 c 0,68,69
 474 623 474 623 431 652 c 128,-1,70
 388 681 388 681 339 689 c 0,71,72
 314 694 314 694 287.5 695 c 0,73,74
 283.083333333 695.166666667 283.083333333 695.166666667 278.708333333 695.166666667 c 0,75,76
 256.833333333 695.166666667 256.833333333 695.166666667 236 691 c 0,77,78
 211 687 211 687 188 677.5 c 128,-1,79
 165 668 165 668 143 656 c 0,80,81
 95 630 95 630 69 595.5 c 128,-1,82
 43 561 43 561 24 513 c 0,83,84
 15 489 15 489 12.5 463.5 c 0,85,86
 11.9047619048 457.428571429 11.9047619048 457.428571429 11.9047619048 451.385487528 c 0,87,88
 11.9047619048 432.047619048 11.9047619048 432.047619048 18 413 c 0,89,90
 22 402 22 402 25.5 392.5 c 128,-1,91
 29 383 29 383 36 374 c 256,92,93
 43 365 43 365 52 358 c 128,-1,94
 61 351 61 351 70 345 c 0,95,96
 90.2222222222 332.481481481 90.2222222222 332.481481481 109.517146776 332.481481481 c 0,97,98
 110.259259259 332.481481481 110.259259259 332.481481481 111 332.5 c 0,99,100
 131 333 131 333 154 341 c 0,101,102
 157 342 157 342 163 344 c 128,-1,103
 169 346 169 346 175 347.5 c 128,-1,104
 181 349 181 349 186 348 c 128,-1,105
 191 347 191 347 192 342 c 256,106,107
 193 337 193 337 189 333.5 c 128,-1,108
 185 330 185 330 179 327 c 128,-1,109
 173 324 173 324 167 322 c 128,-1,110
 161 320 161 320 158 319 c 0,111,112
 148 317 148 317 137 314.5 c 128,-1,113
 126 312 126 312 116 314 c 0,114,115
 104 316 104 316 93 319 c 128,-1,116
 82 322 82 322 71 327 c 0,117,118
 52 337 52 337 36 353 c 128,-1,119
 20 369 20 369 12 389 c 0,120,121
 1.75757575758 413.424242424 1.75757575758 413.424242424 1.75757575758 441.573002755 c 0,122,123
 1.75757575758 449.151515152 1.75757575758 449.151515152 2.5 457 c 0,124,125
 6 494 6 494 20 529 c 128,-1,126
 34 564 34 564 55 594.5 c 128,-1,127
 76 625 76 625 99 643 c 0,128,129
 117 657 117 657 140.5 670 c 128,-1,130
 164 683 164 683 185 689 c 0,131,132
 197 692 197 692 209 695.5 c 128,-1,133
 221 699 221 699 234 701 c 0,134,135
 258.533333333 703.844444444 258.533333333 703.844444444 282.497777778 703.844444444 c 0,136,137
 325.933333333 703.844444444 325.933333333 703.844444444 367.5 694.5 c 0,138,139
 432 680 432 680 489 645 c 0,140,141
 530 621 530 621 563 584 c 128,-1,142
 596 547 596 547 613 503 c 0,143,144
 631.05 456.45 631.05 456.45 631.05 407.1925 c 0,145,146
 631.05 404.6 631.05 404.6 631 402 c 0,147,148
 630 350 630 350 619 300 c 256,149,150
 608 250 608 250 585 204 c 128,-1,151
 562 158 562 158 530 118 c 0,152,153
 516 101 516 101 499.5 85.5 c 128,-1,154
 483 70 483 70 465 57 c 0,155,156
 448 44 448 44 423 35 c 128,-1,157
 398 26 398 26 378 21 c 0,158,159
 347 13 347 13 314.5 12.5 c 0,160,161
 312.588235294 12.4705882353 312.588235294 12.4705882353 310.678200692 12.4705882353 c 0,162,163
 280.117647059 12.4705882353 280.117647059 12.4705882353 250 20 c 0,164,165
 235 24 235 24 220 29 c 128,-1,166
 205 34 205 34 190 39 c 0,167,168
 182 41 182 41 179.5 37.5 c 128,-1,169
 177 34 177 34 173 29 c 0,170,171
 163 11 163 11 147 -4.5 c 128,-1,172
 131 -20 131 -20 113 -29 c 0,173,174
 104 -33 104 -33 89 -35.5 c 128,-1,175
 74 -38 74 -38 58.5 -37 c 128,-1,176
 43 -36 43 -36 30 -31.5 c 128,-1,177
 17 -27 17 -27 11 -16 c 0,178,179
 5 -6 5 -6 4.5 10 c 128,-1,180
 4 26 4 26 9 35 c 0,0,1
71 -22 m 0,181,182
 98 -16 98 -16 111.5 -1.5 c 128,-1,183
 125 13 125 13 136 36 c 0,184,185
 138 40 138 40 141 45 c 128,-1,186
 144 50 144 50 143 55 c 0,187,188
 143 60 143 60 135.5 61 c 128,-1,189
 128 62 128 62 125 63 c 0,190,191
 100 66 100 66 77.5 69.5 c 0,192,193
 73.8372093023 70.0697674419 73.8372093023 70.0697674419 70.2406706328 70.0697674419 c 0,194,195
 51.7441860465 70.0697674419 51.7441860465 70.0697674419 35 55 c 0,196,197
 21 41 21 41 18 25.5 c 128,-1,198
 15 10 15 10 21 -1.5 c 128,-1,199
 27 -13 27 -13 40 -19.5 c 0,200,201
 48.0476190476 -23.5238095238 48.0476190476 -23.5238095238 58.0113378685 -23.5238095238 c 0,202,203
 64.1428571429 -23.5238095238 64.1428571429 -23.5238095238 71 -22 c 0,181,182
EndSplineSet
Validated: 524289
EndChar

StartChar: Z
Encoding: 90 90 30
Width: 512
Flags: W
LayerCount: 2
Back
Fore
SplineSet
440 170 m 0,0,1
 434 155 434 155 428.5 142 c 128,-1,2
 423 129 423 129 413 116 c 0,3,4
 402 102 402 102 392.5 88 c 128,-1,5
 383 74 383 74 371 62 c 0,6,7
 350 41 350 41 324.5 24.5 c 128,-1,8
 299 8 299 8 271 -4 c 0,9,10
 258 -9 258 -9 244.5 -12.5 c 128,-1,11
 231 -16 231 -16 217 -17 c 0,12,13
 201 -18 201 -18 184.5 -20.5 c 0,14,15
 177 -21.6363636364 177 -21.6363636364 169.396694215 -21.6363636364 c 0,16,17
 160.272727273 -21.6363636364 160.272727273 -21.6363636364 151 -20 c 0,18,19
 120 -15 120 -15 93.5 -2 c 128,-1,20
 67 11 67 11 46 34 c 0,21,22
 26 55 26 55 12.5 82.5 c 128,-1,23
 -1 110 -1 110 -1 139 c 0,24,25
 -1 170 -1 170 4.5 198.5 c 128,-1,26
 10 227 10 227 27 253 c 0,27,28
 41 273 41 273 59 287.5 c 128,-1,29
 77 302 77 302 100 309 c 0,30,31
 116.779661017 314.491525424 116.779661017 314.491525424 132.256248205 314.491525424 c 0,32,33
 167.508474576 314.491525424 167.508474576 314.491525424 196 286 c 0,34,35
 216 266 216 266 220.5 239.5 c 0,36,37
 222.631578947 226.947368421 222.631578947 226.947368421 222.631578947 214.282548476 c 0,38,39
 222.631578947 200.210526316 222.631578947 200.210526316 220 186 c 0,40,41
 218 176 218 176 214 161.5 c 128,-1,42
 210 147 210 147 203.5 134 c 128,-1,43
 197 121 197 121 187 112.5 c 128,-1,44
 177 104 177 104 164 107 c 0,45,46
 156 108 156 108 155.5 113 c 128,-1,47
 155 118 155 118 157.5 123 c 128,-1,48
 160 128 160 128 164.5 133.5 c 128,-1,49
 169 139 169 139 171 142 c 0,50,51
 181 155 181 155 187 170 c 128,-1,52
 193 185 193 185 198 200 c 0,53,54
 202.651162791 213.953488372 202.651162791 213.953488372 202.651162791 226.717144402 c 0,55,56
 202.651162791 241.395348837 202.651162791 241.395348837 196.5 254.5 c 0,57,58
 185 279 185 279 159 295 c 0,59,60
 147 302 147 302 133.5 302.5 c 128,-1,61
 120 303 120 303 106.5 299 c 128,-1,62
 93 295 93 295 81.5 287 c 128,-1,63
 70 279 70 279 62 269 c 0,64,65
 43 246 43 246 36 219.5 c 128,-1,66
 29 193 29 193 24 164 c 0,67,68
 22.6666666667 154.666666667 22.6666666667 154.666666667 22.6666666667 145.055555556 c 0,69,70
 22.6666666667 125.833333333 22.6666666667 125.833333333 28 105.5 c 0,71,72
 36 75 36 75 53 52 c 0,73,74
 71 29 71 29 96.5 15.5 c 128,-1,75
 122 2 122 2 151 -3 c 0,76,77
 162.6 -5.4 162.6 -5.4 174.36 -5.4 c 0,78,79
 192 -5.4 192 -5.4 210 0 c 0,80,81
 226 5 226 5 242.5 9 c 128,-1,82
 259 13 259 13 274 21 c 0,83,84
 301 34 301 34 326 52 c 128,-1,85
 351 70 351 70 370 94 c 256,86,87
 389 118 389 118 399.5 145.5 c 128,-1,88
 410 173 410 173 415 203 c 0,89,90
 420.333333333 231.444444444 420.333333333 231.444444444 420.333333333 259.888888889 c 0,91,92
 420.333333333 295.444444444 420.333333333 295.444444444 412 331 c 0,93,94
 409 343 409 343 403.5 356.5 c 128,-1,95
 398 370 398 370 390.5 382.5 c 128,-1,96
 383 395 383 395 372 404 c 128,-1,97
 361 413 361 413 348 416 c 256,98,99
 335 419 335 419 319 418 c 128,-1,100
 303 417 303 417 291 413 c 0,101,102
 284 411 284 411 278 407.5 c 128,-1,103
 272 404 272 404 265 402 c 0,104,105
 258 399 258 399 250.5 395 c 128,-1,106
 243 391 243 391 235 393 c 0,107,108
 230 394 230 394 229.5 398 c 128,-1,109
 229 402 229 402 231 406.5 c 128,-1,110
 233 411 233 411 236 415 c 128,-1,111
 239 419 239 419 242 421 c 0,112,113
 254 428 254 428 267 432 c 128,-1,114
 280 436 280 436 292 444 c 0,115,116
 316 459 316 459 332.5 482.5 c 128,-1,117
 349 506 349 506 360 532 c 0,118,119
 365 546 365 546 371 559.5 c 128,-1,120
 377 573 377 573 380 587 c 256,121,122
 383 601 383 601 385 618 c 128,-1,123
 387 635 387 635 384 649 c 0,124,125
 381 661 381 661 373 669.5 c 128,-1,126
 365 678 365 678 354 682.5 c 128,-1,127
 343 687 343 687 331 689 c 128,-1,128
 319 691 319 691 308 690 c 0,129,130
 281 688 281 688 254.5 674 c 128,-1,131
 228 660 228 660 208 640 c 0,132,133
 191 621 191 621 186.5 596.5 c 0,134,135
 183.384615385 579.538461538 183.384615385 579.538461538 183.384615385 562.337278107 c 0,136,137
 183.384615385 554.692307692 183.384615385 554.692307692 184 547 c 0,138,139
 186 533 186 533 192 520 c 128,-1,140
 198 507 198 507 197 493 c 0,141,142
 197 482 197 482 187 482 c 0,143,144
 179 482 179 482 176 488 c 128,-1,145
 173 494 173 494 171 500 c 0,146,147
 163.666666667 520.666666667 163.666666667 520.666666667 163.666666667 541.333333333 c 0,148,149
 163.666666667 551.666666667 163.666666667 551.666666667 165.5 562 c 0,150,151
 171 593 171 593 183 622 c 0,152,153
 189 636 189 636 199.5 646 c 128,-1,154
 210 656 210 656 221 665 c 0,155,156
 234 676 234 676 247 684 c 128,-1,157
 260 692 260 692 275 697 c 0,158,159
 296.333333333 704.111111111 296.333333333 704.111111111 319.24691358 704.111111111 c 0,160,161
 322.111111111 704.111111111 322.111111111 704.111111111 325 704 c 0,162,163
 351 703 351 703 374 692 c 0,164,165
 398 680 398 680 414.5 664.5 c 0,166,167
 430.057142857 649.885714286 430.057142857 649.885714286 430.057142857 621.492244898 c 0,168,169
 430.057142857 601.914285714 430.057142857 601.914285714 422 567 c 0,170,171
 416 541 416 541 401 520 c 0,172,173
 393 509 393 509 384.5 499 c 128,-1,174
 376 489 376 489 367 478 c 0,175,176
 359 468 359 468 349 461.5 c 128,-1,177
 339 455 339 455 329 446 c 1,178,179
 346 441 346 441 362.5 440 c 128,-1,180
 379 439 379 439 395 436 c 0,181,182
 410 432 410 432 420.5 421.5 c 128,-1,183
 431 411 431 411 440 400 c 0,184,185
 460 377 460 377 465 344 c 0,186,187
 465 341 465 341 465 337.5 c 128,-1,188
 465 334 465 334 466 331 c 0,189,190
 468 327 468 327 470 324.5 c 128,-1,191
 472 322 472 322 472 318 c 0,192,193
 472 267 472 267 462 231.5 c 128,-1,194
 452 196 452 196 440 170 c 0,0,1
EndSplineSet
Validated: 524289
EndChar

StartChar: d
Encoding: 100 100 31
Width: 396
Flags: W
LayerCount: 2
Back
Fore
SplineSet
27 209 m 0,0,1
 39 235 39 235 55 258 c 128,-1,2
 71 281 71 281 95 299 c 0,3,4
 112 312 112 312 129 321 c 128,-1,5
 146 330 146 330 167 330 c 0,6,7
 176 331 176 331 185.5 328.5 c 128,-1,8
 195 326 195 326 203 323 c 0,9,10
 208 321 208 321 214.5 317 c 128,-1,11
 221 313 221 313 226 316 c 0,12,13
 230 318 230 318 231 326.5 c 128,-1,14
 232 335 232 335 233 340 c 0,15,16
 239 373 239 373 248 406 c 0,17,18
 257 438 257 438 268 469 c 128,-1,19
 279 500 279 500 292 531 c 0,20,21
 304 560 304 560 320.5 585.5 c 128,-1,22
 337 611 337 611 356 635 c 0,23,24
 373 656 373 656 396.5 676.5 c 128,-1,25
 420 697 420 697 448 701 c 0,26,27
 460 703 460 703 473.5 701.5 c 128,-1,28
 487 700 487 700 492 686 c 0,29,30
 498 673 498 673 495.5 656.5 c 128,-1,31
 493 640 493 640 489 627 c 0,32,33
 468 565 468 565 436 505 c 0,34,35
 420 476 420 476 402.5 449 c 128,-1,36
 385 422 385 422 363 399 c 0,37,38
 352 388 352 388 341 376 c 128,-1,39
 330 364 330 364 319 353 c 0,40,41
 309 342 309 342 297 332.5 c 128,-1,42
 285 323 285 323 277 312 c 256,43,44
 269 301 269 301 267.5 286.5 c 128,-1,45
 266 272 266 272 263 259 c 0,46,47
 259 242 259 242 258.5 224.5 c 128,-1,48
 258 207 258 207 256 190 c 0,49,50
 253 155 253 155 252.5 121 c 0,51,52
 252.428571429 116.142857143 252.428571429 116.142857143 252.428571429 111.265306122 c 0,53,54
 252.428571429 82 252.428571429 82 255 52 c 0,55,56
 258 22 258 22 260.5 -8 c 128,-1,57
 263 -38 263 -38 278 -65 c 0,58,59
 284 -75 284 -75 293.5 -86 c 128,-1,60
 303 -97 303 -97 315 -99 c 0,61,62
 321 -100 321 -100 326.5 -96 c 128,-1,63
 332 -92 332 -92 336.5 -86 c 128,-1,64
 341 -80 341 -80 344.5 -73.5 c 128,-1,65
 348 -67 348 -67 350 -62 c 0,66,67
 363 -37 363 -37 371 -8 c 0,68,69
 376 8 376 8 381 24 c 128,-1,70
 386 40 386 40 389 57 c 0,71,72
 394 82 394 82 400 106 c 128,-1,73
 406 130 406 130 410 155 c 0,74,75
 412 161 412 161 412.5 167.5 c 128,-1,76
 413 174 413 174 415 179 c 0,77,78
 419 185 419 185 420.5 179 c 128,-1,79
 422 173 422 173 422 171 c 0,80,81
 420 157 420 157 417 144 c 128,-1,82
 414 131 414 131 412 117 c 0,83,84
 407 91 407 91 402 64.5 c 128,-1,85
 397 38 397 38 390 12 c 0,86,87
 384 -15 384 -15 374.5 -39.5 c 128,-1,88
 365 -64 365 -64 351 -87 c 0,89,90
 341 -104 341 -104 325.5 -109 c 0,91,92
 317.75 -111.5 317.75 -111.5 309.625 -111.5 c 128,-1,93
 301.5 -111.5 301.5 -111.5 293 -109 c 0,94,95
 270 -102 270 -102 255 -85 c 128,-1,96
 240 -68 240 -68 229 -48 c 0,97,98
 216 -25 216 -25 213 -0.5 c 128,-1,99
 210 24 210 24 208 49 c 0,100,101
 205 76 205 76 205 102 c 0,102,103
 206 116 206 116 207.5 131 c 128,-1,104
 209 146 209 146 206 160 c 1,105,106
 200 153 200 153 196 145 c 128,-1,107
 192 137 192 137 187 129 c 0,108,109
 181 118 181 118 174.5 109 c 128,-1,110
 168 100 168 100 161 90 c 0,111,112
 150 73 150 73 137 55.5 c 128,-1,113
 124 38 124 38 106 26 c 0,114,115
 91 15 91 15 69.5 14 c 0,116,117
 67.7083333333 13.9166666667 67.7083333333 13.9166666667 65.9548611111 13.9166666667 c 0,118,119
 46.6666666667 13.9166666667 46.6666666667 13.9166666667 32 24 c 0,120,121
 16 36 16 36 9 56 c 0,122,123
 2.875 73.5 2.875 73.5 2.875 86.40625 c 0,124,125
 2.875 89.3125 2.875 89.3125 4 104.5 c 0,126,127
 5 118 5 118 8 136 c 128,-1,128
 11 154 11 154 15.5 174 c 128,-1,129
 20 194 20 194 27 209 c 0,0,1
81 30 m 0,130,131
 92 31 92 31 101 38 c 128,-1,132
 110 45 110 45 118 54 c 128,-1,133
 126 63 126 63 132.5 73 c 128,-1,134
 139 83 139 83 145 91 c 0,135,136
 159 111 159 111 173 130.5 c 128,-1,137
 187 150 187 150 196 172 c 0,138,139
 201 182 201 182 205.5 190 c 128,-1,140
 210 198 210 198 212 209 c 0,141,142
 214 221 214 221 214 233 c 128,-1,143
 214 245 214 245 216 257 c 0,144,145
 218 266 218 266 221 279.5 c 128,-1,146
 224 293 224 293 219 301 c 0,147,148
 214 310 214 310 202 312.5 c 128,-1,149
 190 315 190 315 181 313 c 0,150,151
 158 309 158 309 139.5 292.5 c 128,-1,152
 121 276 121 276 107 259 c 0,153,154
 76 222 76 222 61 175.5 c 128,-1,155
 46 129 46 129 46 82 c 2,156,157
 46 82 46 82 46.5 73 c 128,-1,158
 47 64 47 64 50.5 54 c 128,-1,159
 54 44 54 44 61 36 c 128,-1,160
 68 28 68 28 81 30 c 0,130,131
476 688 m 0,161,162
 472 693 472 693 466 691 c 128,-1,163
 460 689 460 689 456 688 c 0,164,165
 445 686 445 686 435 676.5 c 128,-1,166
 425 667 425 667 417 660 c 0,167,168
 397 642 397 642 381.5 620 c 128,-1,169
 366 598 366 598 353 574 c 0,170,171
 339 548 339 548 329.5 521.5 c 128,-1,172
 320 495 320 495 310 467 c 256,173,174
 300 439 300 439 293 410 c 128,-1,175
 286 381 286 381 281 352 c 0,176,177
 280 348 280 348 277.5 341 c 128,-1,178
 275 334 275 334 277 330 c 0,179,180
 279 325 279 325 285.5 331.5 c 128,-1,181
 292 338 292 338 294 340 c 0,182,183
 304 349 304 349 313.5 358 c 128,-1,184
 323 367 323 367 332 378 c 0,185,186
 351 399 351 399 369 420.5 c 128,-1,187
 387 442 387 442 401 467 c 0,188,189
 415 490 415 490 427.5 514 c 128,-1,190
 440 538 440 538 448 564 c 0,191,192
 457 590 457 590 470 616 c 128,-1,193
 483 642 483 642 483 671 c 0,194,195
 483 679 483 679 482 680.5 c 128,-1,196
 481 682 481 682 476 688 c 0,161,162
EndSplineSet
Validated: 524289
EndChar

StartChar: e
Encoding: 101 101 32
Width: 234
Flags: W
LayerCount: 2
Back
Fore
SplineSet
90 160 m 0,0,1
 103 156 103 156 117 165.5 c 128,-1,2
 131 175 131 175 139 183 c 0,3,4
 161 204 161 204 175 231 c 0,5,6
 182 245 182 245 187.5 261 c 0,7,8
 191.533333333 272.733333333 191.533333333 272.733333333 191.533333333 283.928888889 c 0,9,10
 191.533333333 288 191.533333333 288 191 292 c 0,11,12
 189 303 189 303 184.5 315.5 c 128,-1,13
 180 328 180 328 168 330 c 0,14,15
 155 332 155 332 141.5 323.5 c 128,-1,16
 128 315 128 315 120 307 c 0,17,18
 97 284 97 284 85 253.5 c 0,19,20
 73.2074405195 223.527244654 73.2074405195 223.527244654 62.3806068559 194.037351863 c 0,21,22
 62.6169333521 193.532265115 62.6169333521 193.532265115 63 192 c 0,23,24
 64 188 64 188 67 181.5 c 128,-1,25
 70 175 70 175 75.5 168.5 c 128,-1,26
 81 162 81 162 90 160 c 0,0,1
243 153 m 0,27,28
 245 161 245 161 247.5 167 c 128,-1,29
 250 173 250 173 255 178 c 0,30,31
 261 185 261 185 262.5 178.5 c 128,-1,32
 264 172 264 172 262 168 c 0,33,34
 249 136 249 136 236.5 108.5 c 128,-1,35
 224 81 224 81 203 55 c 0,36,37
 190 38 190 38 171.5 24.5 c 128,-1,38
 153 11 153 11 132 4.5 c 0,39,40
 115.941176471 -0.470588235294 115.941176471 -0.470588235294 99.2975778547 -0.470588235294 c 0,41,42
 94.1764705882 -0.470588235294 94.1764705882 -0.470588235294 89 0 c 0,43,44
 67 2 67 2 48 16 c 0,45,46
 25 32 25 32 13.5 57 c 128,-1,47
 2 82 2 82 1 109 c 0,48,49
 0.466666666667 117 0.466666666667 117 0.466666666667 125.177777778 c 0,50,51
 0.466666666667 147.666666667 0.466666666667 147.666666667 4.5 171.5 c 0,52,53
 10 204 10 204 21 231 c 0,54,55
 26 245 26 245 32.5 258 c 128,-1,56
 39 271 39 271 47 282 c 0,57,58
 67 308 67 308 87.5 327.5 c 128,-1,59
 108 347 108 347 139 347 c 0,60,61
 141.142857143 347.142857143 141.142857143 347.142857143 143.306122449 347.142857143 c 0,62,63
 156.285714286 347.142857143 156.285714286 347.142857143 170 342 c 0,64,65
 183 336 183 336 190 324.5 c 128,-1,66
 197 313 197 313 199.5 299 c 128,-1,67
 202 285 202 285 200 270.5 c 128,-1,68
 198 256 198 256 192 243 c 0,69,70
 184 226 184 226 174 208.5 c 128,-1,71
 164 191 164 191 151 178 c 0,72,73
 139 165 139 165 126.5 155.5 c 0,74,75
 116.173913043 147.652173913 116.173913043 147.652173913 101.412098299 147.652173913 c 0,76,77
 98.3043478261 147.652173913 98.3043478261 147.652173913 95 148 c 0,78,79
 78 150 78 150 66 160 c 0,80,81
 63 161 63 161 61 163 c 0,82,83
 57 165 57 165 57 164 c 0,84,85
 56 158 56 158 55 151.5 c 128,-1,86
 54 145 54 145 53 138 c 0,87,88
 50.4666666667 112.666666667 50.4666666667 112.666666667 50.4666666667 95.9022222222 c 0,89,90
 50.4666666667 77.7333333333 50.4666666667 77.7333333333 57 60 c 0,91,92
 60 53 60 53 64.5 44 c 128,-1,93
 69 35 69 35 75 27 c 128,-1,94
 81 19 81 19 89 14 c 128,-1,95
 97 9 97 9 106 11 c 0,96,97
 120 12 120 12 138.5 21 c 128,-1,98
 157 30 157 30 176 48 c 128,-1,99
 195 66 195 66 212.5 92 c 128,-1,100
 230 118 230 118 243 153 c 0,27,28
EndSplineSet
Validated: 524289
EndChar

StartChar: f
Encoding: 102 102 33
Width: 284
Flags: W
LayerCount: 2
Back
Fore
SplineSet
236 441 m 256,0,1
 224 420 224 420 212 398.5 c 128,-1,2
 200 377 200 377 186 357 c 0,3,4
 180 348 180 348 173 340 c 128,-1,5
 166 332 166 332 159 324 c 0,6,7
 151 315 151 315 144.5 305.5 c 128,-1,8
 138 296 138 296 129 288 c 0,9,10
 121 280 121 280 112.5 274 c 128,-1,11
 104 268 104 268 97 259 c 0,12,13
 96 258 96 258 99.5 254.5 c 128,-1,14
 103 251 103 251 108 247 c 128,-1,15
 113 243 113 243 117.5 239 c 128,-1,16
 122 235 122 235 123 234 c 0,17,18
 139 218 139 218 153.5 201.5 c 128,-1,19
 168 185 168 185 179 166 c 0,20,21
 184 158 184 158 189 146.5 c 128,-1,22
 194 135 194 135 202 132 c 0,23,24
 213 127 213 127 226.5 132 c 128,-1,25
 240 137 240 137 250 141 c 0,26,27
 271 149 271 149 285 163 c 0,28,29
 292 170 292 170 298.5 178.5 c 128,-1,30
 305 187 305 187 315 189 c 1,31,32
 315 178 315 178 305.5 168.5 c 128,-1,33
 296 159 296 159 288 151 c 0,34,35
 264 132 264 132 233 124 c 0,36,37
 229 123 229 123 219 122.5 c 128,-1,38
 209 122 209 122 207 119 c 0,39,40
 204 114 204 114 207 106.5 c 128,-1,41
 210 99 210 99 212 94 c 0,42,43
 217 77 217 77 223 60.5 c 128,-1,44
 229 44 229 44 232 27 c 0,45,46
 237 -4 237 -4 238 -36 c 0,47,48
 238.166666667 -41.3333333333 238.166666667 -41.3333333333 238.166666667 -46.6388888889 c 0,49,50
 238.166666667 -73.1666666667 238.166666667 -73.1666666667 234 -99 c 0,51,52
 230 -126 230 -126 223.5 -156 c 128,-1,53
 217 -186 217 -186 200 -209 c 0,54,55
 193 -219 193 -219 184.5 -229 c 128,-1,56
 176 -239 176 -239 165 -245 c 0,57,58
 151 -253 151 -253 138.5 -253 c 128,-1,59
 126 -253 126 -253 111 -248 c 0,60,61
 82 -239 82 -239 65 -213.5 c 128,-1,62
 48 -188 48 -188 36 -162 c 0,63,64
 22 -133 22 -133 17.5 -100 c 128,-1,65
 13 -67 13 -67 8 -36 c 0,66,67
 3 -3 3 -3 1.5 30.5 c 0,68,69
 0.857142857143 44.8571428571 0.857142857143 44.8571428571 0.857142857143 59.306122449 c 0,70,71
 0.857142857143 78.5714285714 0.857142857143 78.5714285714 2 98 c 0,72,73
 3 123 3 123 4 148 c 128,-1,74
 5 173 5 173 7 198 c 0,75,76
 10 224 10 224 14.5 249.5 c 128,-1,77
 19 275 19 275 24 301 c 0,78,79
 32 354 32 354 45 405 c 128,-1,80
 58 456 58 456 78 505 c 0,81,82
 96 551 96 551 121 594 c 0,83,84
 132 614 132 614 144.5 632.5 c 128,-1,85
 157 651 157 651 174 666 c 0,86,87
 189 680 189 680 211 692 c 0,88,89
 225.666666667 700 225.666666667 700 239.888888889 700 c 0,90,91
 247 700 247 700 254 698 c 0,92,93
 277 691 277 691 284.5 667.5 c 128,-1,94
 292 644 292 644 293 624 c 0,95,96
 293 614 293 614 288.5 592 c 128,-1,97
 284 570 284 570 276.5 543.5 c 128,-1,98
 269 517 269 517 258.5 489.5 c 128,-1,99
 248 462 248 462 236 441 c 256,0,1
216 46 m 0,100,101
 214 56 214 56 211.5 65.5 c 128,-1,102
 209 75 209 75 205 85 c 0,103,104
 202 93 202 93 198.5 104.5 c 128,-1,105
 195 116 195 116 187 121 c 0,106,107
 170 130 170 130 152 135 c 128,-1,108
 134 140 134 140 118 153 c 0,109,110
 100 166 100 166 87 179 c 0,111,112
 80 186 80 186 74.5 193 c 128,-1,113
 69 200 69 200 61 206 c 1,114,115
 56 184 56 184 56 161.5 c 128,-1,116
 56 139 56 139 55 117 c 0,117,118
 53 94 53 94 51 69.5 c 0,119,120
 50 57.25 50 57.25 50 45.375 c 128,-1,121
 50 33.5 50 33.5 51 22 c 256,122,123
 53 -1 53 -1 53.5 -24.5 c 128,-1,124
 54 -48 54 -48 58 -71 c 0,125,126
 62 -95 62 -95 69 -117.5 c 128,-1,127
 76 -140 76 -140 85 -162 c 0,128,129
 92 -179 92 -179 104 -196.5 c 128,-1,130
 116 -214 116 -214 132 -224 c 0,131,132
 141.777777778 -230.722222222 141.777777778 -230.722222222 151.36882716 -230.722222222 c 0,133,134
 157.472222222 -230.722222222 157.472222222 -230.722222222 163.5 -228 c 0,135,136
 179 -221 179 -221 189 -207 c 0,137,138
 194 -198 194 -198 197.5 -188.5 c 128,-1,139
 201 -179 201 -179 205 -170 c 0,140,141
 209 -160 209 -160 213 -151 c 128,-1,142
 217 -142 217 -142 219 -132 c 0,143,144
 228.68 -88.88 228.68 -88.88 228.68 -49.632 c 0,145,146
 228.68 -44.28 228.68 -44.28 228.5 -39 c 0,147,148
 227 5 227 5 216 46 c 0,100,101
89 269 m 0,149,150
 116 286 116 286 139 310 c 0,151,152
 160 334 160 334 177.5 361 c 128,-1,153
 195 388 195 388 212 415 c 0,154,155
 220 429 220 429 225.5 443 c 128,-1,156
 231 457 231 457 237 471 c 0,157,158
 244 487 244 487 250 501.5 c 128,-1,159
 256 516 256 516 261 533 c 0,160,161
 269 562 269 562 276 593 c 0,162,163
 278.882352941 605.764705882 278.882352941 605.764705882 278.882352941 618.529411765 c 0,164,165
 278.882352941 636.764705882 278.882352941 636.764705882 273 655 c 0,166,167
 268 668 268 668 261.5 677 c 128,-1,168
 255 686 255 686 240 684 c 0,169,170
 227 682 227 682 216 674 c 128,-1,171
 205 666 205 666 197 655 c 0,172,173
 188 642 188 642 178.5 629 c 128,-1,174
 169 616 169 616 160 602 c 256,175,176
 151 588 151 588 144.5 573.5 c 128,-1,177
 138 559 138 559 132 543 c 0,178,179
 118 511 118 511 109 479.5 c 128,-1,180
 100 448 100 448 92 415 c 0,181,182
 84 383 84 383 79 350 c 128,-1,183
 74 317 74 317 69 284 c 0,184,185
 69 282 69 282 68.5 279.5 c 128,-1,186
 68 277 68 277 68 275 c 0,187,188
 68 255 68 255 89 269 c 0,149,150
84 200 m 256,189,190
 90 192 90 192 97.5 184 c 128,-1,191
 105 176 105 176 114 170 c 0,192,193
 122 165 122 165 131 159 c 128,-1,194
 140 153 140 153 149 148 c 0,195,196
 151 147 151 147 157 144 c 128,-1,197
 163 141 163 141 168.5 139.5 c 128,-1,198
 174 138 174 138 177 139 c 128,-1,199
 180 140 180 140 177 146 c 0,200,201
 167 166 167 166 154.5 184.5 c 128,-1,202
 142 203 142 203 125 218 c 0,203,204
 116 226 116 226 107 232 c 128,-1,205
 98 238 98 238 88 245 c 0,206,207
 82 250 82 250 72.5 246 c 128,-1,208
 63 242 63 242 65 234 c 0,209,210
 68 224 68 224 73 216 c 128,-1,211
 78 208 78 208 84 200 c 256,189,190
EndSplineSet
Validated: 524289
EndChar

